<svg width="32" height="32" viewBox="0 0 32 32" fill="none" xmlns="http://www.w3.org/2000/svg">
<path d="M16 32C7.03453 32 0 24.7827 0 15.932C0 7.21733 7.03453 0 16 0C24.9655 0 32 7.21733 32 15.932C32 24.7827 24.9655 32 16 32ZM16 25.192C23.3108 25.192 28.5511 20.5613 30.8964 15.932C29.2417 12.392 24.2762 6.808 16 6.808C8.68924 6.808 3.44888 11.3013 1.10359 15.932C3.31076 20.56 8.68924 25.192 16 25.192ZM16 24.3747C11.3108 24.3747 7.44888 20.5613 7.44888 15.932C7.44888 11.3027 11.3108 7.48933 16 7.48933C20.6892 7.48933 24.5511 11.3027 24.5511 15.932C24.5511 20.6973 20.6892 24.3747 16 24.3747Z" fill="white"/>
</svg>
