<svg width="26" height="26" viewBox="0 0 26 26" fill="none" xmlns="http://www.w3.org/2000/svg">
<path d="M23.1388 0.250977C23.8774 0.250977 24.5857 0.544375 25.1079 1.06663C25.6302 1.58888 25.9236 2.2972 25.9236 3.03578V22.5294C25.9236 23.268 25.6302 23.9763 25.1079 24.4986C24.5857 25.0208 23.8774 25.3142 23.1388 25.3142H3.64516C2.90658 25.3142 2.19825 25.0208 1.676 24.4986C1.15375 23.9763 0.860352 23.268 0.860352 22.5294V3.03578C0.860352 2.2972 1.15375 1.58888 1.676 1.06663C2.19825 0.544375 2.90658 0.250977 3.64516 0.250977H23.1388ZM22.4426 21.8332V14.4535C22.4426 13.2496 21.9643 12.095 21.1131 11.2438C20.2618 10.3925 19.1072 9.91425 17.9034 9.91425C16.7198 9.91425 15.3413 10.6383 14.673 11.7244V10.1788H10.7882V21.8332H14.673V14.9687C14.673 13.8965 15.5363 13.0193 16.6084 13.0193C17.1254 13.0193 17.6213 13.2247 17.9868 13.5903C18.3524 13.9558 18.5578 14.4517 18.5578 14.9687V21.8332H22.4426ZM6.26287 7.99273C6.88328 7.99273 7.47827 7.74628 7.91696 7.30759C8.35565 6.86889 8.60211 6.2739 8.60211 5.6535C8.60211 4.35856 7.55781 3.30034 6.26287 3.30034C5.63877 3.30034 5.04024 3.54826 4.59894 3.98956C4.15763 4.43086 3.90971 5.0294 3.90971 5.6535C3.90971 6.94843 4.96794 7.99273 6.26287 7.99273ZM8.19831 21.8332V10.1788H4.34136V21.8332H8.19831Z" fill="#073B63"/>
</svg>
