<svg width="19" height="18" viewBox="0 0 19 18" fill="none" xmlns="http://www.w3.org/2000/svg">
<g clip-path="url(#clip0_2097_3516)">
<path d="M3.4643 3.27839C3.4643 2.86651 3.45502 2.48423 3.4661 2.10247C3.49563 1.08509 4.20515 0.270712 5.25071 0.0542747C5.42889 0.0190352 5.61052 0.00185902 5.79254 0.00303625C9.4133 0.000154474 13.0341 -0.000191707 16.6548 0.0019977C17.8075 0.00296353 18.701 0.667552 18.9404 1.69703C18.98 1.87833 18.999 2.06314 18.9971 2.24829C19.0003 5.65937 19.0008 9.07046 18.9987 12.4816C18.998 13.639 18.2341 14.5323 17.0746 14.6913C16.6644 14.7475 16.2404 14.7137 15.8227 14.7205C15.737 14.7219 15.6514 14.7207 15.5399 14.7207C15.5399 15.0924 15.5361 15.4417 15.5408 15.7909C15.5574 16.261 15.4079 16.7228 15.1158 17.1031C14.6522 17.7015 14.0166 17.9953 13.2397 17.9962C9.59868 18.0003 5.95769 18 2.31671 17.9954C0.979847 17.9926 0.00749524 17.0659 0.005019 15.798C-0.0017086 12.355 -0.00167222 8.91197 0.00512458 5.46894C0.00770081 4.19828 0.979352 3.29074 2.31998 3.27889C2.68972 3.27562 3.0595 3.27839 3.4643 3.27839ZM7.76775 16.3594C9.56816 16.3594 11.3686 16.3593 13.169 16.3592C13.6236 16.3591 13.8199 16.1735 13.8199 15.739C13.8206 12.334 13.8206 8.92904 13.8198 5.52407C13.8197 5.09503 13.6193 4.90787 13.1621 4.90779C9.56799 4.90721 5.97392 4.90724 2.37986 4.90787C1.9258 4.90796 1.73253 5.09582 1.7325 5.53086C1.73228 8.92944 1.73226 12.328 1.73246 15.7266C1.73248 16.1833 1.92025 16.3593 2.40698 16.3593C4.1939 16.3595 5.98083 16.3595 7.76775 16.3594ZM5.19089 3.27832H5.45553C8.01739 3.27832 10.5792 3.27933 13.1411 3.28135C13.3833 3.27687 13.6251 3.30088 13.861 3.35283C14.8928 3.60531 15.538 4.43635 15.5391 5.4998C15.5417 7.94603 15.542 10.3923 15.5399 12.8385C15.5399 12.9182 15.5399 12.9979 15.5399 13.0915C15.9114 13.0915 16.2477 13.0919 16.584 13.0914C17.0828 13.0908 17.2696 12.9152 17.2696 12.4464C17.2698 9.06126 17.2698 5.67614 17.2696 2.29101C17.2696 1.80826 17.0896 1.63962 16.5747 1.63961C13.0083 1.63955 9.4419 1.63955 5.87551 1.63961C5.82158 1.63961 5.76755 1.63815 5.71374 1.64069C5.4317 1.65395 5.2112 1.82086 5.19644 2.08555C5.17487 2.47253 5.19089 2.86139 5.19089 3.27832Z" fill="white"/>
</g>
<defs>
<clipPath id="clip0_2097_3516">
<rect width="19" height="18" fill="white"/>
</clipPath>
</defs>
</svg>
