<svg width="19" height="19" viewBox="0 0 19 19" fill="none" xmlns="http://www.w3.org/2000/svg">
<rect width="19" height="19" rx="1.26667" fill="#5E5E5E"/>
<path d="M14.0157 5.06667C14.573 5.06667 15.0077 5.27845 15.3198 5.70202C15.6431 6.13673 15.8047 6.74422 15.8047 7.52448L5.58888 7.52448C5.02041 7.52448 4.58012 7.30712 4.26802 6.8724C3.95591 6.44884 3.79986 5.84692 3.79986 5.06667L14.0157 5.06667Z" fill="white"/>
<path d="M14.0157 8.79115C14.573 8.79115 15.0077 9.00294 15.3198 9.42651C15.6431 9.86122 15.8047 10.4687 15.8047 11.249L5.58888 11.249C5.02041 11.249 4.58012 11.0316 4.26802 10.5969C3.95591 10.1733 3.79986 9.57141 3.79986 8.79115L14.0157 8.79115Z" fill="white"/>
<path d="M14.0157 12.5156C14.573 12.5156 15.0077 12.7274 15.3198 13.151C15.6431 13.5857 15.8047 14.1932 15.8047 14.9734L5.58888 14.9734C5.02041 14.9734 4.58012 14.7561 4.26802 14.3214C3.95591 13.8978 3.79986 13.2959 3.79986 12.5156L14.0157 12.5156Z" fill="white"/>
</svg>
