<svg width="49" height="26" viewBox="0 0 49 26" fill="none" xmlns="http://www.w3.org/2000/svg">
<mask id="path-1-inside-1_2124_1026" fill="white">
<path fill-rule="evenodd" clip-rule="evenodd" d="M24.1965 25.8371C22.1249 25.8371 22.7313 23.1849 24.1044 21.6336C26.2322 19.2298 27.5313 16.0225 27.5313 12.5C27.5313 8.85577 26.1409 5.5488 23.8808 3.12C22.8658 2.02922 22.7066 0.160645 24.1965 0.160645H45.2994C46.9563 0.160645 48.2994 1.50379 48.2994 3.16064V22.8371C48.2994 24.4939 46.9563 25.8371 45.2994 25.8371H24.1965Z"/>
</mask>
<path fill-rule="evenodd" clip-rule="evenodd" d="M24.1965 25.8371C22.1249 25.8371 22.7313 23.1849 24.1044 21.6336C26.2322 19.2298 27.5313 16.0225 27.5313 12.5C27.5313 8.85577 26.1409 5.5488 23.8808 3.12C22.8658 2.02922 22.7066 0.160645 24.1965 0.160645H45.2994C46.9563 0.160645 48.2994 1.50379 48.2994 3.16064V22.8371C48.2994 24.4939 46.9563 25.8371 45.2994 25.8371H24.1965Z" fill="black"/>
<path d="M27.2313 12.5C27.2313 15.9477 25.96 19.0847 23.8798 21.4348L24.329 21.8325C26.5044 19.3749 27.8313 16.0972 27.8313 12.5H27.2313ZM23.6612 3.32437C25.8706 5.69875 27.2313 8.9331 27.2313 12.5H27.8313C27.8313 8.77844 26.4111 5.39884 24.1004 2.91564L23.6612 3.32437ZM24.1965 0.460645H45.2994V-0.139355H24.1965V0.460645ZM45.2994 0.460645C46.7906 0.460645 47.9994 1.66948 47.9994 3.16064H48.5994C48.5994 1.33811 47.122 -0.139355 45.2994 -0.139355V0.460645ZM47.9994 3.16064V22.8371H48.5994V3.16064H47.9994ZM47.9994 22.8371C47.9994 24.3282 46.7906 25.5371 45.2994 25.5371V26.1371C47.122 26.1371 48.5994 24.6596 48.5994 22.8371H47.9994ZM45.2994 25.5371H24.1965V26.1371H45.2994V25.5371ZM24.1004 2.91564C23.6378 2.41847 23.3825 1.75295 23.3991 1.241C23.4073 0.988772 23.4798 0.798451 23.5956 0.673941C23.7066 0.554504 23.8899 0.460645 24.1965 0.460645V-0.139355C23.7582 -0.139355 23.4026 0.000357345 23.1562 0.265366C22.9145 0.525301 22.8108 0.870298 22.7995 1.22156C22.7769 1.91659 23.1088 2.73075 23.6612 3.32437L24.1004 2.91564ZM23.8798 21.4348C23.1605 22.2473 22.6298 23.3578 22.5595 24.2946C22.5243 24.7646 22.6027 25.2296 22.8786 25.583C23.1626 25.9468 23.6119 26.1371 24.1965 26.1371V25.5371C23.7454 25.5371 23.4936 25.3958 23.3515 25.2138C23.2013 25.0214 23.1288 24.7265 23.1578 24.3395C23.2161 23.5624 23.6752 22.5711 24.329 21.8325L23.8798 21.4348Z" fill="white" mask="url(#path-1-inside-1_2124_1026)"/>
<path d="M33.5369 9.78054C33.5369 9.5568 33.5315 9.34914 33.5379 9.14177C33.555 8.58912 33.9658 8.14674 34.5711 8.02917C34.6743 8.01003 34.7795 8.00069 34.8848 8.00133C36.9811 7.99977 39.0773 7.99958 41.1735 8.00077C41.8409 8.00129 42.3582 8.36231 42.4967 8.92153C42.5197 9.02002 42.5307 9.12041 42.5296 9.22098C42.5314 11.0739 42.5318 12.9269 42.5305 14.7798C42.5301 15.4086 42.0878 15.8938 41.4165 15.9801C41.1791 16.0107 40.9336 15.9923 40.6918 15.996C40.6422 15.9968 40.5926 15.9961 40.528 15.9961C40.528 16.1981 40.5258 16.3878 40.5286 16.5775C40.5382 16.8328 40.4516 17.0837 40.2825 17.2903C40.0141 17.6153 39.6461 17.775 39.1963 17.7754C37.0884 17.7776 34.9804 17.7775 32.8725 17.775C32.0985 17.7734 31.5356 17.27 31.5342 16.5813C31.5303 14.7111 31.5303 12.8408 31.5342 10.9705C31.5357 10.2802 32.0982 9.78725 32.8744 9.78081C33.0885 9.77904 33.3025 9.78054 33.5369 9.78054ZM36.0284 16.8863C37.0707 16.8863 38.1131 16.8863 39.1554 16.8862C39.4186 16.8861 39.5322 16.7853 39.5323 16.5493C39.5327 14.6997 39.5327 12.85 39.5322 11.0004C39.5322 10.7674 39.4161 10.6657 39.1514 10.6657C37.0706 10.6653 34.9898 10.6653 32.9091 10.6657C32.6462 10.6657 32.5343 10.7678 32.5343 11.0041C32.5341 12.8503 32.5341 14.6964 32.5343 16.5426C32.5343 16.7906 32.643 16.8862 32.9248 16.8862C33.9593 16.8864 34.9938 16.8864 36.0284 16.8863ZM34.5365 9.7805H34.6897C36.1729 9.7805 37.6561 9.78105 39.1393 9.78215C39.2795 9.77972 39.4195 9.79276 39.5561 9.82098C40.1534 9.95813 40.5269 10.4096 40.5276 10.9872C40.5291 12.3161 40.5292 13.6449 40.5281 14.9737C40.5281 15.017 40.5281 15.0603 40.5281 15.1111C40.7431 15.1111 40.9378 15.1113 41.1325 15.1111C41.4213 15.1107 41.5295 15.0153 41.5295 14.7607C41.5295 12.9219 41.5295 11.083 41.5295 9.24419C41.5295 8.98195 41.4253 8.89034 41.1271 8.89034C39.0624 8.89031 36.9976 8.89031 34.9329 8.89034C34.9016 8.89034 34.8704 8.88955 34.8392 8.89092C34.6759 8.89813 34.5483 8.9888 34.5397 9.13258C34.5272 9.34279 34.5365 9.55402 34.5365 9.7805Z" fill="white"/>
<g clip-path="url(#clip0_2124_1026)">
<path d="M13.6975 0C10.2685 0 6.97696 1.3633 4.55426 3.78762C2.12907 6.21291 0.766319 9.50205 0.765625 12.9319C0.765625 16.3602 2.12953 19.6518 4.55426 22.0761C6.97696 24.5004 10.2685 25.8637 13.6975 25.8637C17.1264 25.8637 20.418 24.5004 22.8407 22.0761C25.2654 19.6518 26.6293 16.3602 26.6293 12.9319C26.6293 9.5035 25.2654 6.21194 22.8407 3.78762C20.418 1.3633 17.1264 0 13.6975 0Z" fill="white"/>
<path d="M6.6137 12.7952C10.3841 11.1528 12.8978 10.0701 14.1546 9.54687C17.7472 8.05304 18.4928 7.7936 18.9798 7.78481C19.0869 7.78309 19.3253 7.80956 19.4809 7.93534C19.6102 8.04142 19.6466 8.18489 19.6648 8.28561C19.6809 8.38624 19.7032 8.61558 19.685 8.7946C19.491 10.8395 18.6484 15.8016 18.22 18.092C18.0402 19.0611 17.6826 19.386 17.337 19.4177C16.5854 19.4868 16.0156 18.9215 15.2882 18.4448C14.1506 17.6986 13.508 17.2343 12.4027 16.5062C11.1257 15.6649 11.9542 15.2023 12.6816 14.4466C12.8715 14.2488 16.1813 11.2391 16.2439 10.9661C16.252 10.932 16.2601 10.8047 16.1833 10.7376C16.1085 10.6703 15.9974 10.6934 15.9166 10.7115C15.8014 10.7374 13.9849 11.9393 10.4609 14.3169C9.94568 14.6713 9.47892 14.8441 9.05863 14.835C8.59794 14.8251 7.70887 14.5739 7.04813 14.3593C6.23989 14.0961 5.59532 13.9568 5.6519 13.5097C5.68019 13.2769 6.00146 13.0387 6.6137 12.7952Z" fill="url(#paint0_linear_2124_1026)"/>
</g>
<defs>
<linearGradient id="paint0_linear_2124_1026" x1="707.816" y1="7.78473" x2="707.816" y2="1171.66" gradientUnits="userSpaceOnUse">
<stop stop-color="#2AABEE"/>
<stop offset="1" stop-color="#229ED9"/>
</linearGradient>
<clipPath id="clip0_2124_1026">
<rect width="25.8637" height="25.8637" fill="white" transform="translate(0.765625)"/>
</clipPath>
</defs>
</svg>
