<svg width="15" height="13" viewBox="0 0 15 13" fill="none" xmlns="http://www.w3.org/2000/svg">
<path d="M1.84808 5.79519C5.61852 4.15285 8.13215 3.07007 9.38897 2.54687C12.9816 1.05304 13.7272 0.793595 14.2142 0.784806C14.3213 0.783088 14.5597 0.809558 14.7153 0.93534C14.8446 1.04142 14.881 1.18489 14.8992 1.28561C14.9153 1.38624 14.9375 1.61558 14.9194 1.7946C14.7254 3.83945 13.8828 8.80165 13.4544 11.092C13.2746 12.0611 12.9169 12.386 12.5714 12.4177C11.8198 12.4868 11.2499 11.9215 10.5225 11.4448C9.38493 10.6986 8.74238 10.2343 7.63711 9.50623C6.36009 8.66485 7.18853 8.20234 7.91595 7.44663C8.10589 7.24882 11.4156 4.23913 11.4783 3.96614C11.4864 3.932 11.4944 3.8047 11.4177 3.73761C11.3429 3.67033 11.2318 3.69336 11.1509 3.71155C11.0358 3.73741 9.21924 4.93927 5.69531 7.31691C5.18005 7.67132 4.71329 7.84408 4.29301 7.83499C3.83231 7.82509 2.94325 7.57393 2.28251 7.35934C1.47427 7.09606 0.829696 6.95684 0.886273 6.50968C0.914561 6.27691 1.23584 6.03868 1.84808 5.79519Z" fill="url(#paint0_linear_2121_4075)"/>
<defs>
<linearGradient id="paint0_linear_2121_4075" x1="703.051" y1="0.784729" x2="703.051" y2="1164.66" gradientUnits="userSpaceOnUse">
<stop stop-color="#2AABEE"/>
<stop offset="1" stop-color="#229ED9"/>
</linearGradient>
</defs>
</svg>
