<svg width="14" height="15" viewBox="0 0 14 15" fill="none" xmlns="http://www.w3.org/2000/svg">
<g clip-path="url(#clip0_2097_3514)">
<path d="M0.96875 14.8884C2.67477 12.8034 4.34543 10.7617 6.02123 8.71363C4.34103 6.14296 2.66956 3.58562 0.979718 1.00018C1.04138 0.988903 1.10358 0.98109 1.16604 0.976781C2.32471 0.975635 3.4834 0.979067 4.64203 0.971999C4.78982 0.971097 4.86413 1.03775 4.93983 1.15398C5.94174 2.69232 6.94569 4.22919 7.9517 5.76459C8.01793 5.86587 8.08549 5.96618 8.16363 6.08379C8.21828 6.02165 8.26705 5.96951 8.31232 5.91421C9.60359 4.33684 10.8937 2.75845 12.1827 1.17902C12.3028 1.03134 12.4224 0.958895 12.6117 0.971267C12.8869 0.989253 13.1639 0.975882 13.4967 0.975882C11.8702 2.96368 10.2809 4.90607 8.67445 6.86943C10.4102 9.52515 12.1467 12.1821 13.9006 14.8656C13.8393 14.8762 13.7776 14.8835 13.7156 14.8875C12.5569 14.8886 11.3982 14.885 10.2396 14.8925C10.0928 14.8934 10.0182 14.8325 9.94155 14.7148C8.86138 13.0554 7.77883 11.3977 6.69389 9.74173C6.64454 9.66625 6.59422 9.59147 6.53272 9.49886C6.47422 9.56598 6.42452 9.62001 6.37795 9.67688C5.02434 11.3301 3.67213 12.9845 2.32134 14.6402C2.17564 14.8196 2.03353 14.9145 1.80242 14.8937C1.54384 14.8705 1.28191 14.8884 0.96875 14.8884ZM12.3402 14.0312C12.2913 13.9465 12.2678 13.8999 12.2393 13.857C9.61546 9.91166 6.98974 5.96768 4.36214 2.02509C4.31155 1.94928 4.18833 1.89 4.09726 1.88727C3.63575 1.87346 3.17366 1.88032 2.71178 1.88173C2.65933 1.88189 2.6069 1.89333 2.53626 1.9017C2.59684 1.99502 2.6413 2.06496 2.68713 2.13389C3.96727 4.05944 5.2475 5.98492 6.52784 7.91032C7.84614 9.89241 9.16555 11.8737 10.4861 13.8541C10.5353 13.9279 10.6224 14.0215 10.6938 14.0235C11.2273 14.0377 11.7614 14.0312 12.3402 14.0312Z" fill="black"/>
</g>
<defs>
<clipPath id="clip0_2097_3514">
<rect width="12.9319" height="13.9266" fill="white" transform="translate(0.96875 0.96994)"/>
</clipPath>
</defs>
</svg>
