<svg width="48" height="26" viewBox="0 0 48 26" fill="none" xmlns="http://www.w3.org/2000/svg">
<mask id="path-1-inside-1_2124_931" fill="white">
<path fill-rule="evenodd" clip-rule="evenodd" d="M23.6653 25.8371C21.5936 25.8371 22.2 23.1849 23.5732 21.6336C25.701 19.2298 27.0001 16.0225 27.0001 12.5C27.0001 8.85577 25.6096 5.5488 23.3495 3.12C22.3345 2.02922 22.1753 0.160645 23.6653 0.160645H44.7682C46.425 0.160645 47.7682 1.50379 47.7682 3.16064V22.8371C47.7682 24.4939 46.425 25.8371 44.7682 25.8371H23.6653Z"/>
</mask>
<path fill-rule="evenodd" clip-rule="evenodd" d="M23.6653 25.8371C21.5936 25.8371 22.2 23.1849 23.5732 21.6336C25.701 19.2298 27.0001 16.0225 27.0001 12.5C27.0001 8.85577 25.6096 5.5488 23.3495 3.12C22.3345 2.02922 22.1753 0.160645 23.6653 0.160645H44.7682C46.425 0.160645 47.7682 1.50379 47.7682 3.16064V22.8371C47.7682 24.4939 46.425 25.8371 44.7682 25.8371H23.6653Z" fill="black"/>
<path d="M26.7001 12.5C26.7001 15.9477 25.4288 19.0847 23.3485 21.4348L23.7978 21.8325C25.9732 19.3749 27.3001 16.0972 27.3001 12.5H26.7001ZM23.1299 3.32437C25.3393 5.69875 26.7001 8.9331 26.7001 12.5H27.3001C27.3001 8.77844 25.8799 5.39884 23.5692 2.91564L23.1299 3.32437ZM23.6653 0.460645H44.7682V-0.139355H23.6653V0.460645ZM44.7682 0.460645C46.2594 0.460645 47.4682 1.66948 47.4682 3.16064H48.0682C48.0682 1.33811 46.5907 -0.139355 44.7682 -0.139355V0.460645ZM47.4682 3.16064V22.8371H48.0682V3.16064H47.4682ZM47.4682 22.8371C47.4682 24.3282 46.2593 25.5371 44.7682 25.5371V26.1371C46.5907 26.1371 48.0682 24.6596 48.0682 22.8371H47.4682ZM44.7682 25.5371H23.6653V26.1371H44.7682V25.5371ZM23.5692 2.91564C23.1065 2.41847 22.8513 1.75295 22.8679 1.241C22.8761 0.988772 22.9486 0.798451 23.0643 0.673941C23.1754 0.554504 23.3586 0.460645 23.6653 0.460645V-0.139355C23.227 -0.139355 22.8714 0.000357345 22.6249 0.265366C22.3832 0.525301 22.2796 0.870298 22.2682 1.22156C22.2457 1.91659 22.5775 2.73075 23.1299 3.32437L23.5692 2.91564ZM23.3485 21.4348C22.6292 22.2473 22.0985 23.3578 22.0283 24.2946C21.993 24.7646 22.0715 25.2296 22.3473 25.583C22.6313 25.9468 23.0806 26.1371 23.6653 26.1371V25.5371C23.2141 25.5371 22.9623 25.3958 22.8203 25.2138C22.6701 25.0214 22.5975 24.7265 22.6266 24.3395C22.6849 23.5624 23.1439 22.5711 23.7978 21.8325L23.3485 21.4348Z" fill="white" mask="url(#path-1-inside-1_2124_931)"/>
<path d="M33.0057 9.78054C33.0057 9.5568 33.0003 9.34914 33.0067 9.14177C33.0238 8.58912 33.4346 8.14674 34.0399 8.02917C34.143 8.01003 34.2482 8.00069 34.3536 8.00133C36.4498 7.99977 38.546 7.99958 40.6423 8.00077C41.3096 8.00129 41.8269 8.36231 41.9655 8.92153C41.9884 9.02002 41.9994 9.12041 41.9983 9.22098C42.0002 11.0739 42.0005 12.9269 41.9993 14.7798C41.9988 15.4086 41.5566 15.8938 40.8853 15.9801C40.6478 16.0107 40.4023 15.9923 40.1605 15.996C40.1109 15.9968 40.0613 15.9961 39.9968 15.9961C39.9968 16.1981 39.9946 16.3878 39.9973 16.5775C40.007 16.8328 39.9204 17.0837 39.7513 17.2903C39.4828 17.6153 39.1149 17.775 38.6651 17.7754C36.5571 17.7776 34.4492 17.7775 32.3413 17.775C31.5673 17.7734 31.0043 17.27 31.0029 16.5813C30.999 14.7111 30.999 12.8408 31.003 10.9705C31.0045 10.2802 31.567 9.78725 32.3431 9.78081C32.5572 9.77904 32.7713 9.78054 33.0057 9.78054ZM35.4971 16.8863C36.5395 16.8863 37.5818 16.8863 38.6242 16.8862C38.8873 16.8861 39.001 16.7853 39.001 16.5493C39.0014 14.6997 39.0014 12.85 39.001 11.0004C39.0009 10.7674 38.8849 10.6657 38.6201 10.6657C36.5394 10.6653 34.4586 10.6653 32.3778 10.6657C32.1149 10.6657 32.003 10.7678 32.003 11.0041C32.0029 12.8503 32.0029 14.6964 32.003 16.5426C32.003 16.7906 32.1117 16.8862 32.3935 16.8862C33.4281 16.8864 34.4626 16.8864 35.4971 16.8863ZM34.0053 9.7805H34.1585C35.6417 9.7805 37.1248 9.78105 38.608 9.78215C38.7482 9.77972 38.8882 9.79276 39.0248 9.82098C39.6221 9.95813 39.9957 10.4096 39.9963 10.9872C39.9978 12.3161 39.998 13.6449 39.9968 14.9737C39.9968 15.017 39.9968 15.0603 39.9968 15.1111C40.2119 15.1111 40.4066 15.1113 40.6013 15.1111C40.8901 15.1107 40.9982 15.0153 40.9982 14.7607C40.9983 12.9219 40.9983 11.083 40.9982 9.24419C40.9982 8.98195 40.894 8.89034 40.5959 8.89034C38.5311 8.89031 36.4664 8.89031 34.4016 8.89034C34.3704 8.89034 34.3391 8.88955 34.308 8.89092C34.1447 8.89813 34.017 8.9888 34.0085 9.13258C33.996 9.34279 34.0053 9.55402 34.0053 9.7805Z" fill="white"/>
<g clip-path="url(#clip0_2124_931)">
<path d="M12.9319 -6.10352e-05C9.5029 -6.10352e-05 6.21133 1.36324 3.78863 3.78756C1.36345 6.21285 0.000693973 9.50199 0 12.9318C0 16.3602 1.36391 19.6517 3.78863 22.076C6.21133 24.5004 9.5029 25.8637 12.9319 25.8637C16.3608 25.8637 19.6524 24.5004 22.0751 22.076C24.4998 19.6517 25.8637 16.3602 25.8637 12.9318C25.8637 9.50344 24.4998 6.21188 22.0751 3.78756C19.6524 1.36324 16.3608 -6.10352e-05 12.9319 -6.10352e-05Z" fill="white"/>
<g clip-path="url(#clip1_2124_931)">
<path d="M5.96875 19.8877C7.67477 17.8027 9.34543 15.761 11.0212 13.713C9.34103 11.1423 7.66956 8.58495 5.97972 5.99951C6.04138 5.98823 6.10358 5.98042 6.16604 5.97611C7.32471 5.97496 8.4834 5.9784 9.64203 5.97133C9.78982 5.97043 9.86413 6.03708 9.93983 6.15331C10.9417 7.69165 11.9457 9.22852 12.9517 10.7639C13.0179 10.8652 13.0855 10.9655 13.1636 11.0831C13.2183 11.021 13.267 10.9688 13.3123 10.9135C14.6036 9.33617 15.8937 7.75777 17.1827 6.17835C17.3028 6.03067 17.4224 5.95822 17.6117 5.9706C17.8869 5.98858 18.1639 5.97521 18.4967 5.97521C16.8702 7.96301 15.2809 9.90539 13.6745 11.8688C15.4102 14.5245 17.1467 17.1814 18.9006 19.8649C18.8393 19.8755 18.7776 19.8828 18.7156 19.8869C17.5569 19.8879 16.3982 19.8844 15.2396 19.8918C15.0928 19.8928 15.0182 19.8318 14.9416 19.7141C13.8614 18.0547 12.7788 16.397 11.6939 14.7411C11.6445 14.6656 11.5942 14.5908 11.5327 14.4982C11.4742 14.5653 11.4245 14.6193 11.378 14.6762C10.0243 16.3294 8.67213 17.9838 7.32134 19.6395C7.17564 19.819 7.03353 19.9138 6.80242 19.893C6.54384 19.8698 6.28191 19.8877 5.96875 19.8877ZM17.3402 19.0306C17.2913 18.9458 17.2678 18.8993 17.2393 18.8564C14.6155 14.911 11.9897 10.967 9.36214 7.02442C9.31155 6.9486 9.18833 6.88933 9.09726 6.8866C8.63575 6.87279 8.17366 6.87965 7.71178 6.88106C7.65933 6.88122 7.6069 6.89266 7.53626 6.90103C7.59684 6.99435 7.6413 7.06429 7.68713 7.13322C8.96727 9.05877 10.2475 10.9842 11.5278 12.9096C12.8461 14.8917 14.1656 16.873 15.4861 18.8535C15.5353 18.9272 15.6224 19.0209 15.6938 19.0228C16.2273 19.0371 16.7614 19.0306 17.3402 19.0306Z" fill="black"/>
</g>
</g>
<defs>
<clipPath id="clip0_2124_931">
<rect width="25.8637" height="25.8637" fill="white"/>
</clipPath>
<clipPath id="clip1_2124_931">
<rect width="12.9319" height="13.9266" fill="white" transform="translate(5.96875 5.9693)"/>
</clipPath>
</defs>
</svg>
