<svg width="14" height="14" viewBox="0 0 14 14" fill="none" xmlns="http://www.w3.org/2000/svg">
<mask id="mask0_894_128" style="mask-type:luminance" maskUnits="userSpaceOnUse" x="0" y="2" width="14" height="9">
<path d="M13.2247 2.88007H0.243164V10.4634H13.2247V2.88007Z" fill="white"/>
</mask>
<g mask="url(#mask0_894_128)">
<path d="M8.8722 6.16129C8.7847 6.21963 8.65345 6.26338 8.49303 6.26338C8.24512 6.26338 8.01178 6.23421 7.77845 6.16129C7.72012 6.14671 7.67637 6.13213 7.6472 6.13213C7.60345 6.13213 7.58887 6.16129 7.58887 6.21963V6.36546C7.58887 6.40921 7.60345 6.43838 7.61803 6.46754C7.63262 6.48213 7.66178 6.51129 7.70553 6.52588C7.93887 6.62796 8.20137 6.67171 8.49303 6.67171C8.79928 6.67171 9.03262 6.59879 9.2222 6.45296C9.41178 6.30713 9.49928 6.11754 9.49928 5.86963C9.49928 5.69463 9.45553 5.56338 9.36803 5.44671C9.28053 5.34463 9.1347 5.24254 8.93053 5.16962L8.5222 5.00921C8.36178 4.95088 8.24512 4.89254 8.20137 4.83421C8.14303 4.77587 8.11387 4.71754 8.11387 4.61546C8.11387 4.39671 8.27428 4.28004 8.6097 4.28004C8.79928 4.28004 8.98887 4.30921 9.16387 4.36754C9.2222 4.38212 9.26595 4.39671 9.28053 4.39671C9.32428 4.39671 9.35345 4.36754 9.35345 4.30921V4.16337C9.35345 4.11962 9.33887 4.09046 9.32428 4.06129C9.3097 4.03212 9.28053 4.01754 9.23678 4.00296C9.01803 3.93004 8.79928 3.88629 8.58053 3.88629C8.30345 3.88629 8.07012 3.95921 7.89512 4.09046C7.72012 4.22171 7.63262 4.41129 7.63262 4.63004C7.63262 4.96546 7.8222 5.21338 8.20137 5.35921L8.63887 5.51963C8.7847 5.57796 8.8722 5.62171 8.93053 5.68004C8.98887 5.73838 9.00345 5.79671 9.00345 5.88421C9.00345 6.00088 8.9597 6.10296 8.8722 6.16129Z" fill="black"/>
<path d="M6.58223 4.06149V6.00108C6.33431 6.16149 6.08639 6.249 5.83848 6.249C5.67806 6.249 5.56139 6.20525 5.48848 6.11775C5.41556 6.03025 5.38639 5.89899 5.38639 5.70941V4.06149C5.38639 3.98858 5.35723 3.95941 5.28431 3.95941H4.97806C4.90514 3.95941 4.87598 3.98858 4.87598 4.06149V5.86983C4.87598 6.11774 4.93431 6.32191 5.06556 6.45316C5.19681 6.58441 5.38639 6.65733 5.63431 6.65733C5.96973 6.65733 6.30514 6.54066 6.62598 6.30733L6.65514 6.48233C6.65514 6.52608 6.66973 6.54066 6.69889 6.55524C6.71348 6.56983 6.74264 6.56983 6.78639 6.56983H7.00514C7.07806 6.56983 7.10723 6.54066 7.10723 6.46775V4.06149C7.10723 3.98858 7.07806 3.95941 7.00514 3.95941H6.69889C6.61139 3.95941 6.58223 4.00316 6.58223 4.06149Z" fill="black"/>
<path d="M3.81172 6.58421H4.11797C4.19089 6.58421 4.22006 6.55504 4.22006 6.48212V4.65921C4.22006 4.41129 4.16172 4.22171 4.03047 4.09046C3.89922 3.95921 3.72422 3.88629 3.47631 3.88629C3.14089 3.88629 2.79089 4.00296 2.45547 4.25087C2.33881 4.00296 2.12006 3.88629 1.79922 3.88629C1.47839 3.88629 1.15755 4.00296 0.836719 4.22171L0.807552 4.06129C0.807552 4.01754 0.792969 4.00296 0.763802 3.98837C0.749219 3.97379 0.720052 3.97379 0.690885 3.97379H0.457552C0.384635 3.97379 0.355469 4.00296 0.355469 4.07587V6.49671C0.355469 6.56962 0.384635 6.59879 0.457552 6.59879H0.763802C0.836719 6.59879 0.865885 6.56962 0.865885 6.49671V4.52796C1.1138 4.38212 1.36172 4.29462 1.62422 4.29462C1.77006 4.29462 1.87214 4.33837 1.93047 4.42587C1.98881 4.51337 2.03256 4.63004 2.03256 4.80504V6.48212C2.03256 6.55504 2.06172 6.58421 2.13464 6.58421H2.44089C2.51381 6.58421 2.54297 6.55504 2.54297 6.48212V4.68837V4.60087C2.54297 4.57171 2.54297 4.54254 2.54297 4.52796C2.80547 4.36754 3.05339 4.29462 3.30131 4.29462C3.44714 4.29462 3.54922 4.33837 3.60756 4.42587C3.66589 4.51337 3.70964 4.63004 3.70964 4.80504V6.48212C3.70964 6.55504 3.73881 6.58421 3.81172 6.58421Z" fill="black"/>
<path d="M11.759 8.52366C10.1694 9.19449 8.43401 9.52991 6.85901 9.52991C4.52568 9.52991 2.26526 8.88824 0.442339 7.82366C0.413172 7.80908 0.384006 7.79449 0.354839 7.79449C0.252756 7.79449 0.194422 7.91116 0.296506 8.01324C1.98818 9.54449 4.23401 10.4632 6.71318 10.4632C8.49234 10.4632 10.5486 9.90908 11.9632 8.85908C12.2111 8.68408 12.0069 8.42158 11.759 8.52366Z" fill="#F8A13F"/>
<path d="M11.7155 4.5423C11.8467 4.39647 12.0509 4.32355 12.3426 4.32355C12.4884 4.32355 12.6342 4.33813 12.7655 4.38188C12.8092 4.39647 12.8238 4.39647 12.853 4.39647C12.8967 4.39647 12.9259 4.3673 12.9259 4.29438V4.14855C12.9259 4.1048 12.9113 4.06105 12.8967 4.04647C12.8822 4.03188 12.853 4.00272 12.8238 3.98813C12.6342 3.94438 12.4447 3.90063 12.2697 3.90063C11.8613 3.90063 11.5551 4.0173 11.3217 4.26522C11.103 4.49855 10.9863 4.84855 10.9863 5.28605C10.9863 5.72355 11.0884 6.05897 11.3072 6.2923C11.5259 6.52564 11.8322 6.6423 12.2405 6.6423C12.4592 6.6423 12.6634 6.61314 12.8238 6.54022C12.8676 6.52564 12.8967 6.51105 12.9113 6.48188C12.9259 6.4673 12.9259 6.42355 12.9259 6.3798V6.23397C12.9259 6.16105 12.8967 6.13188 12.853 6.13188C12.8384 6.13188 12.8092 6.13188 12.7801 6.14647C12.6197 6.19022 12.4592 6.21938 12.3134 6.21938C12.0363 6.21938 11.8322 6.14647 11.7009 6.00063C11.5697 5.8548 11.5113 5.62147 11.5113 5.31522V5.2423C11.5259 4.92147 11.5842 4.68813 11.7155 4.5423Z" fill="black"/>
<path d="M12.3723 9.89467C13.1306 9.253 13.3348 7.92592 13.1744 7.72175C13.1015 7.63425 12.7515 7.54675 12.314 7.54675C11.8473 7.54675 11.2931 7.64884 10.8702 7.9405C10.739 8.028 10.7681 8.14467 10.8994 8.13009C11.3515 8.07175 12.3723 7.95509 12.5619 8.18842C12.7369 8.42175 12.3577 9.38425 12.1827 9.80717C12.139 9.93842 12.241 9.98217 12.3723 9.89467Z" fill="#F8A13F"/>
<path d="M10.3449 3.95941H10.0386C9.96569 3.95941 9.93652 3.98858 9.93652 4.06149V6.48233C9.93652 6.55524 9.96569 6.58441 10.0386 6.58441H10.3449C10.4178 6.58441 10.4469 6.55524 10.4469 6.48233V4.06149C10.4469 4.00316 10.4178 3.95941 10.3449 3.95941Z" fill="black"/>
<path d="M10.432 2.96757C10.3737 2.90923 10.2862 2.88007 10.1841 2.88007C10.082 2.88007 10.0091 2.90923 9.95078 2.96757C9.89245 3.0259 9.86328 3.09882 9.86328 3.18632C9.86328 3.27382 9.89245 3.36132 9.95078 3.40507C10.0091 3.4634 10.082 3.49257 10.1841 3.49257C10.2862 3.49257 10.3591 3.4634 10.4174 3.40507C10.4758 3.34673 10.5049 3.27382 10.5049 3.18632C10.5049 3.09882 10.4904 3.01132 10.432 2.96757Z" fill="black"/>
</g>
</svg>
