<svg width="14" height="14" viewBox="0 0 14 14" fill="none" xmlns="http://www.w3.org/2000/svg">
<path d="M5.71582 8.58588C5.71582 7.92963 6.2627 7.49213 7.08301 7.49213C7.90332 7.49213 8.4502 7.92963 8.4502 8.58588C8.4502 9.95306 8.17676 12.6874 7.08301 12.6874C5.98926 12.6874 5.71582 9.95306 5.71582 8.58588Z" fill="black"/>
<path fill-rule="evenodd" clip-rule="evenodd" d="M2.29785 6.12494C2.29809 5.26899 2.52793 4.42877 2.96339 3.69187C3.39885 2.95497 4.024 2.34836 4.77367 1.93527C5.52335 1.52219 6.3701 1.31775 7.22569 1.34327C8.08122 1.36879 8.91433 1.62333 9.63801 2.08036C10.3617 2.5374 10.9496 3.18019 11.3404 3.94173C11.7312 4.70328 11.9105 5.5557 11.8597 6.41013C11.8089 7.26457 11.5299 8.08975 11.0517 8.7997C10.5735 9.5096 9.91363 10.0782 9.1409 10.4463C9.09633 10.7701 9.03519 11.0914 8.9577 11.4088C11.1315 10.6378 12.6885 8.56345 12.6885 6.12494C12.6885 3.02963 10.1783 0.51947 7.08301 0.51947C3.9877 0.51947 1.47754 3.02963 1.47754 6.12494C1.47754 8.56345 3.03449 10.6383 5.20832 11.4094L5.19191 11.341C5.12214 11.0456 5.06648 10.7471 5.02512 10.4463C4.20861 10.0574 3.51904 9.44502 3.03635 8.68016C2.55365 7.91535 2.29759 7.02936 2.29785 6.12494Z" fill="black"/>
<path fill-rule="evenodd" clip-rule="evenodd" d="M4.21192 6.12496C4.21194 5.65804 4.32583 5.19819 4.54373 4.78524C4.76163 4.3723 5.07695 4.01872 5.46235 3.75516C5.84776 3.49161 6.29163 3.32602 6.75549 3.27276C7.21934 3.2195 7.68922 3.28016 8.12431 3.44951C8.55946 3.61885 8.9467 3.89176 9.25252 4.24457C9.55833 4.59738 9.77347 5.01945 9.87934 5.4742C9.98522 5.92896 9.97855 6.40266 9.85999 6.85427C9.74142 7.30588 9.51447 7.72172 9.19887 8.06582C9.2459 8.23043 9.27051 8.40488 9.27051 8.5859C9.27051 8.7434 9.26723 8.91894 9.25957 9.10707C9.88859 8.64786 10.3563 8.00145 10.5957 7.26033C10.8351 6.5192 10.834 5.72131 10.5924 4.9809C10.3509 4.24046 9.88142 3.59539 9.25104 3.13796C8.62071 2.68054 7.86181 2.4342 7.08301 2.4342C6.3042 2.4342 5.54531 2.68054 4.91496 3.13796C4.28461 3.59539 3.81509 4.24046 3.57358 4.9809C3.33206 5.72131 3.33092 6.5192 3.57033 7.26033C3.80973 8.00145 4.27741 8.64786 4.90645 9.10707C4.89879 8.91894 4.89551 8.7434 4.89551 8.5859C4.89551 8.40488 4.92012 8.23043 4.96715 8.06582C4.48049 7.53672 4.21086 6.84383 4.21192 6.12496Z" fill="black"/>
<path d="M5.85254 5.71484C5.85254 6.04116 5.98218 6.35414 6.21293 6.58492C6.44371 6.81565 6.75669 6.94531 7.08301 6.94531C7.40933 6.94531 7.7223 6.81565 7.95309 6.58492C8.18381 6.35414 8.31348 6.04116 8.31348 5.71484C8.31348 5.3885 8.18381 5.07553 7.95309 4.84477C7.7223 4.61401 7.40933 4.48438 7.08301 4.48438C6.75669 4.48438 6.44371 4.61401 6.21293 4.84477C5.98218 5.07553 5.85254 5.3885 5.85254 5.71484Z" fill="black"/>
</svg>
