<svg width="14" height="14" viewBox="0 0 14 14" fill="none" xmlns="http://www.w3.org/2000/svg">
<g clip-path="url(#clip0_894_109)">
<path d="M7.23438 13.2344C10.8587 13.2344 13.7969 10.2962 13.7969 6.67188C13.7969 3.04751 10.8587 0.109375 7.23438 0.109375C3.61001 0.109375 0.671875 3.04751 0.671875 6.67188C0.671875 10.2962 3.61001 13.2344 7.23438 13.2344Z" fill="#12C64B"/>
<path d="M9.60472 9.09727C9.55274 9.1861 9.46763 9.25067 9.36808 9.27682C9.26853 9.30297 9.16268 9.28854 9.07375 9.23672C8.05284 8.64013 6.87383 8.54467 6.06395 8.56555C5.53788 8.57902 5.0147 8.64801 4.50312 8.77138C4.40788 8.78824 4.30977 8.76896 4.22799 8.71733C4.1462 8.66569 4.08661 8.5854 4.06088 8.49216C4.03515 8.39893 4.04511 8.29944 4.08884 8.21316C4.13256 8.12689 4.20689 8.06002 4.2973 8.02564C4.8609 7.88555 5.43795 7.80654 6.01846 7.78999C6.57403 7.76947 7.13017 7.80973 7.67699 7.91005C8.30651 8.024 8.91185 8.24495 9.46676 8.56332C9.51109 8.58911 9.54987 8.62344 9.58084 8.66433C9.61182 8.70521 9.63437 8.75183 9.6472 8.80149C9.66004 8.85115 9.66289 8.90286 9.65559 8.95363C9.6483 9.0044 9.63101 9.05322 9.60472 9.09727Z" fill="white"/>
<path d="M10.327 7.59801C10.2865 7.66752 10.2285 7.72518 10.1588 7.76522C10.089 7.80527 10.01 7.8263 9.92954 7.82621C9.84794 7.82634 9.76781 7.80444 9.69762 7.76282C8.48878 7.05661 7.09275 6.94251 6.13299 6.97234C5.50987 6.98809 4.89019 7.06983 4.2843 7.21619C4.1684 7.24348 4.04644 7.22477 3.94404 7.164C3.84165 7.10323 3.7668 7.00513 3.73522 6.89033C3.70365 6.77552 3.71781 6.65295 3.77473 6.54836C3.83165 6.44378 3.92689 6.36533 4.04044 6.32951C4.70812 6.16428 5.39172 6.07177 6.07929 6.05359C6.73755 6.02825 7.39659 6.07602 8.04432 6.19602C8.78934 6.33109 9.50569 6.59291 10.1622 6.9701C10.2671 7.03171 10.3433 7.13237 10.3742 7.25004C10.4051 7.36771 10.3881 7.49282 10.327 7.59801Z" fill="white"/>
<path d="M11.2611 5.95499C11.2238 6.01905 11.1742 6.07512 11.1152 6.11997C11.0562 6.16482 10.9889 6.19757 10.9171 6.21635C10.8454 6.23512 10.7707 6.23956 10.6973 6.22939C10.6239 6.21922 10.5532 6.19465 10.4893 6.15708C7.61518 4.47768 3.88723 5.47623 3.85218 5.48592C3.77973 5.50887 3.7034 5.51695 3.62775 5.50969C3.5521 5.50242 3.4787 5.47996 3.41194 5.44364C3.34519 5.40733 3.28645 5.35791 3.23925 5.29834C3.19206 5.23878 3.15737 5.1703 3.13728 5.09701C3.11718 5.02372 3.1121 4.94713 3.12232 4.87182C3.13254 4.79652 3.15786 4.72405 3.19676 4.65877C3.23566 4.59348 3.28735 4.53673 3.34871 4.4919C3.41008 4.44707 3.47986 4.4151 3.55388 4.39789C4.37089 4.19652 5.20722 4.08376 6.04838 4.06156C6.8555 4.03148 7.66349 4.09 8.45786 4.23606C9.37141 4.40032 10.2501 4.71963 11.056 5.18017C11.1206 5.21736 11.1771 5.26697 11.2224 5.32613C11.2677 5.3853 11.3009 5.45284 11.3199 5.52487C11.339 5.5969 11.3436 5.67199 11.3335 5.74581C11.3234 5.81963 11.2988 5.89072 11.2611 5.95499Z" fill="white"/>
</g>
<defs>
<clipPath id="clip0_894_109">
<rect width="13.125" height="13.125" fill="white" transform="translate(0.671875 0.109375)"/>
</clipPath>
</defs>
</svg>
