<svg width="14" height="14" viewBox="0 0 14 14" fill="none" xmlns="http://www.w3.org/2000/svg">
<g clip-path="url(#clip0_894_144)">
<path d="M13.3175 3.70339C13.1662 3.14113 12.7229 2.69793 12.1607 2.54652C11.1336 2.26544 7.02526 2.26544 7.02526 2.26544C7.02526 2.26544 2.91701 2.26544 1.88992 2.53581C1.33857 2.68711 0.884461 3.14123 0.733156 3.70339C0.462891 4.73037 0.462891 6.86025 0.462891 6.86025C0.462891 6.86025 0.462891 9.00085 0.733156 10.0171C0.884561 10.5793 1.32776 11.0226 1.89002 11.174C2.92782 11.4551 7.02536 11.4551 7.02536 11.4551C7.02536 11.4551 11.1336 11.4551 12.1607 11.1847C12.723 11.0334 13.1662 10.5901 13.3176 10.0279C13.5878 9.00085 13.5878 6.87107 13.5878 6.87107C13.5878 6.87107 13.5987 4.73037 13.3175 3.70339Z" fill="#FF0000"/>
<path d="M5.71777 8.8279L9.13409 6.86024L5.71777 4.89258V8.8279Z" fill="white"/>
</g>
<defs>
<clipPath id="clip0_894_144">
<rect width="13.125" height="13.125" fill="white" transform="translate(0.463867 0.291504)"/>
</clipPath>
</defs>
</svg>
