<svg width="13" height="15" viewBox="0 0 13 15" fill="none" xmlns="http://www.w3.org/2000/svg">
<path d="M11.326 6.80872C11.4626 6.88937 11.5758 7.0042 11.6544 7.14191C11.7331 7.27961 11.7744 7.43543 11.7744 7.59398C11.7744 7.75253 11.7331 7.90835 11.6544 8.04605C11.5758 8.18376 11.4626 8.29859 11.326 8.37923L1.92153 13.9335C1.78296 14.0154 1.62516 14.0592 1.46418 14.0604C1.30319 14.0617 1.14474 14.0203 1.00491 13.9406C0.86508 13.8608 0.748848 13.7455 0.668015 13.6064C0.58718 13.4672 0.544622 13.3091 0.54466 13.1482V2.03883C0.544622 1.87791 0.58718 1.71984 0.668015 1.58068C0.748848 1.44152 0.86508 1.32621 1.00491 1.24646C1.14474 1.16671 1.30319 1.12537 1.46418 1.12661C1.62516 1.12786 1.78296 1.17166 1.92153 1.25357L11.326 6.80872Z" fill="black"/>
</svg>
