<svg width="23" height="23" viewBox="0 0 23 23" fill="none" xmlns="http://www.w3.org/2000/svg">
<path fill-rule="evenodd" clip-rule="evenodd" d="M15.4177 18.5338C14.2581 19.0632 12.9516 19.3608 11.5696 19.3608C6.77956 19.3608 2.89648 15.7858 2.89648 11.3758C2.89648 6.96577 6.77956 3.39075 11.5696 3.39075C16.3596 3.39075 20.2427 6.96577 20.2427 11.3758C20.2427 12.6766 19.9048 13.9048 19.3055 14.99L20.0986 18.6031C20.2664 19.3674 19.5572 20.0246 18.8425 19.7672L15.4177 18.5338ZM7.23303 9.8786C6.4347 9.8786 5.78752 10.5489 5.78752 11.3758V11.4602C5.78752 12.2871 6.4347 12.9574 7.23303 12.9574C8.03137 12.9574 8.67855 12.2871 8.67855 11.4602V11.3758C8.67855 10.5489 8.03137 9.8786 7.23303 9.8786ZM11.5692 9.8786C10.7708 9.8786 10.1237 10.5489 10.1237 11.3758V11.4602C10.1237 12.2871 10.7708 12.9574 11.5692 12.9574C12.3675 12.9574 13.0147 12.2871 13.0147 11.4602V11.3758C13.0147 10.5489 12.3675 9.8786 11.5692 9.8786ZM14.4598 11.3758C14.4598 10.5489 15.107 9.8786 15.9053 9.8786C16.7036 9.8786 17.3508 10.5489 17.3508 11.3758V11.4602C17.3508 12.2871 16.7036 12.9574 15.9053 12.9574C15.107 12.9574 14.4598 12.2871 14.4598 11.4602V11.3758Z" fill="black"/>
</svg>
