<svg width="23" height="23" viewBox="0 0 23 23" fill="none" xmlns="http://www.w3.org/2000/svg">
<path fill-rule="evenodd" clip-rule="evenodd" d="M3.75668 6.31806C4.57846 5.49652 5.69289 5.03501 6.85489 5.03501C8.01689 5.03501 9.13132 5.49652 9.95311 6.31806L11.2371 7.60095L12.5211 6.31806C12.9253 5.89951 13.4089 5.56567 13.9435 5.336C14.4782 5.10633 15.0532 4.98545 15.6351 4.98039C16.2169 4.97533 16.794 5.08621 17.3325 5.30655C17.8711 5.52689 18.3604 5.85228 18.7718 6.26374C19.1833 6.6752 19.5087 7.16448 19.729 7.70303C19.9493 8.24159 20.0602 8.81863 20.0552 9.4005C20.0501 9.98236 19.9292 10.5574 19.6996 11.092C19.4699 11.6267 19.136 12.1102 18.7175 12.5145L11.2371 19.996L3.75668 12.5145C2.93515 11.6927 2.47363 10.5783 2.47363 9.41627C2.47363 8.25427 2.93515 7.13984 3.75668 6.31806Z" fill="#121212"/>
</svg>
