<svg width="115" height="18" viewBox="0 0 115 18" fill="none" xmlns="http://www.w3.org/2000/svg">
<path d="M6.1898 3.74295C5.36577 3.74295 4.71421 4.0815 4.27345 4.73981C3.81353 5.39812 3.58357 6.31975 3.58357 7.48589C3.58357 9.91222 4.52258 11.1348 6.4006 11.1348C6.9755 11.1348 7.51208 11.0408 8.06782 10.9091C8.58524 10.7586 9.14098 10.5705 9.67755 10.3448V13.2414C8.6044 13.6928 7.37794 13.9185 6.03649 13.9185C4.08182 13.9185 2.60623 13.373 1.59057 12.2633C0.574904 11.1536 0 9.55486 0 7.46708C0 6.15047 0.268289 5.00313 0.766539 4.00627C1.26479 3.0094 1.993 2.25705 2.91285 1.7116C3.83269 1.16615 4.9825 0.902819 6.22813 0.902819C7.62706 0.902819 8.93018 1.18495 10.2141 1.78683L9.14098 4.47649C8.68105 4.25078 8.1828 4.0815 7.72288 3.93103C7.22463 3.79937 6.70722 3.74295 6.1898 3.74295ZM21.4631 8.84013C21.4631 10.4389 21.0223 11.6991 20.16 12.5831C19.2785 13.4671 18.0712 13.9185 16.4998 13.9185C14.9858 13.9185 13.7977 13.4671 12.897 12.5455C11.9963 11.6238 11.5556 10.4013 11.5556 8.82132C11.5556 7.22257 11.9963 6 12.8587 5.09718C13.7402 4.21317 14.9858 3.76176 16.5572 3.76176C17.5537 3.76176 18.3969 3.96865 19.1443 4.36363C19.9108 4.75862 20.4858 5.3605 20.8882 6.13166C21.2715 6.92163 21.4631 7.80564 21.4631 8.84013ZM15.005 8.84013C15.005 9.66771 15.12 10.326 15.3499 10.7586C15.5799 11.1912 15.9632 11.4169 16.5189 11.4169C17.0363 11.4169 17.4196 11.1912 17.6496 10.7586C17.8795 10.3072 17.9753 9.66771 17.9753 8.84013C17.9753 8.01254 17.8604 7.39185 17.6496 6.95925C17.4196 6.52665 17.0363 6.33856 16.5189 6.33856C16.0015 6.33856 15.6182 6.54546 15.3883 6.95925C15.12 7.35423 15.005 7.97492 15.005 8.84013ZM26.8864 13.7492H23.4561V3.96865H26.8864V13.7492ZM23.3603 1.52351C23.3603 1.01568 23.5136 0.639499 23.801 0.376176C24.0885 0.112853 24.5676 0 25.2 0C25.8324 0 26.3114 0.112853 26.5989 0.376176C26.8864 0.639499 27.0397 0.996864 27.0397 1.48589C27.0397 2.48276 26.4264 2.97179 25.2 2.97179C23.9735 3.0094 23.3603 2.52038 23.3603 1.52351ZM35.5866 13.7492V8.40752C35.5866 7.74921 35.4908 7.26019 35.2991 6.95925C35.1266 6.62069 34.8009 6.45141 34.3984 6.45141C33.8235 6.45141 33.4019 6.67712 33.1528 7.12853C32.8845 7.57994 32.7695 8.3511 32.7695 9.47962V13.768H29.3393V3.98746H31.9263L32.3671 5.19122H32.5779C32.8654 4.73981 33.2678 4.38245 33.8044 4.15674C34.3218 3.93104 34.9158 3.81818 35.6057 3.81818C36.7172 3.81818 37.5604 4.13793 38.1736 4.75862C38.7869 5.37931 39.1126 6.28213 39.1126 7.41066V13.7868H35.6249L35.5866 13.7492ZM49.0777 10.7586C49.0777 11.8119 48.7327 12.5831 48.0045 13.1285C47.2763 13.674 46.2223 13.9373 44.8617 13.9373C44.1335 13.9373 43.5011 13.8997 42.9453 13.8245C42.3896 13.7304 41.8339 13.5987 41.2781 13.3918V10.6834C41.7955 10.9091 42.3896 11.116 43.022 11.2476C43.6544 11.3981 44.2101 11.4734 44.7467 11.4734C45.5132 11.4734 45.8582 11.3041 45.8582 10.9655C45.8582 10.7962 45.7432 10.6458 45.5324 10.5141C45.3216 10.3824 44.7084 10.1191 43.731 9.70533C42.8304 9.32916 42.1788 8.93417 41.8147 8.44514C41.4698 7.95611 41.259 7.39185 41.259 6.6395C41.259 5.71787 41.6039 5.00314 42.3321 4.53292C43.0603 4.02508 44.0568 3.76176 45.3599 3.76176C46.0307 3.76176 46.6439 3.8558 47.1996 3.98746C47.7745 4.13793 48.3878 4.32602 49.001 4.58934L48.062 6.75235C47.6021 6.54545 47.123 6.37617 46.6056 6.24451C46.0882 6.09404 45.6666 6.01881 45.3599 6.01881C44.8042 6.01881 44.5167 6.16928 44.5167 6.4138C44.5167 6.58307 44.6126 6.73354 44.8042 6.8464C44.9958 6.95925 45.5707 7.18495 46.5289 7.56113C47.2188 7.84326 47.7554 8.12539 48.0812 8.38872C48.4261 8.65204 48.6944 8.99059 48.8477 9.36677C48.9818 9.78056 49.0777 10.2132 49.0777 10.7586ZM56.9538 13.9185C56.4556 13.9185 55.9957 13.8245 55.5932 13.6928C55.1908 13.5235 54.8075 13.2414 54.4051 12.8088H54.2518C54.3668 13.4859 54.4051 13.9185 54.4051 14.0878V18H50.9748V3.96865H53.7727L54.271 5.22884H54.4243C55.0567 4.2884 55.9382 3.79937 57.0688 3.79937C58.1803 3.79937 59.0427 4.25078 59.6559 5.13479C60.2883 6.01881 60.5949 7.279 60.5949 8.82132C60.5949 10.4013 60.2691 11.6426 59.5984 12.5643C58.9468 13.4671 58.0653 13.9185 56.9538 13.9185ZM55.804 6.4326C55.3058 6.4326 54.9225 6.60188 54.7309 6.97806C54.5201 7.31662 54.4051 7.86207 54.4051 8.55799V8.82132C54.4051 9.6489 54.5201 10.2696 54.75 10.6458C54.98 11.0219 55.3249 11.21 55.8232 11.21C56.264 11.21 56.5897 11.0408 56.7814 10.6646C56.9922 10.2884 57.0688 9.66771 57.0688 8.80251C57.0688 7.97492 56.973 7.37304 56.7814 6.99686C56.5897 6.62069 56.264 6.4326 55.804 6.4326ZM67.3788 13.9185C65.7115 13.9185 64.4468 13.4859 63.5077 12.6395C62.6071 11.7743 62.1471 10.5329 62.1471 8.91536C62.1471 7.26019 62.5879 6 63.4311 5.11598C64.2743 4.23197 65.5007 3.78057 67.0722 3.78057C68.5861 3.78057 69.7167 4.15674 70.5407 4.9279C71.3648 5.69906 71.7672 6.78997 71.7672 8.23824V9.76176H65.6157C65.6541 10.3072 65.8457 10.7398 66.229 11.0408C66.6122 11.3605 67.1296 11.4922 67.8004 11.4922C68.4136 11.4922 68.9693 11.4357 69.4676 11.3229C69.985 11.21 70.5216 11.0031 71.1348 10.7586V13.185C70.5791 13.4483 70.0233 13.6364 69.4676 13.7492C68.8735 13.8621 68.1645 13.9185 67.3788 13.9185ZM67.1871 6.09404C66.7847 6.09404 66.4206 6.2069 66.1715 6.47022C65.9032 6.73354 65.7307 7.09091 65.7115 7.63637H68.6819C68.6819 7.14734 68.5286 6.77116 68.2794 6.48903C67.9728 6.24451 67.6087 6.09404 67.1871 6.09404ZM80.1991 13.7492L79.5284 12.4702H79.4709C79.011 13.0345 78.5319 13.4107 78.0528 13.6176C77.5546 13.8245 76.9413 13.9373 76.194 13.9373C75.255 13.9373 74.5076 13.6552 73.9902 13.1097C73.4344 12.5643 73.1661 11.7743 73.1661 10.7586C73.1661 9.72414 73.5494 8.93417 74.2776 8.44514C75.0058 7.9373 76.079 7.63636 77.4779 7.57994L79.1451 7.52351V7.37304C79.1451 6.56426 78.7427 6.16928 77.9187 6.16928C77.1905 6.16928 76.2515 6.39499 75.1591 6.88402L74.1626 4.64577C75.3316 4.04388 76.788 3.76176 78.5511 3.76176C79.835 3.76176 80.8315 4.08151 81.5214 4.7022C82.2113 5.32289 82.5754 6.18809 82.5754 7.2978V13.6928H80.2183L80.1991 13.7492ZM77.6696 11.5298C78.072 11.5298 78.4361 11.3793 78.7427 11.1348C79.0302 10.8715 79.1835 10.5329 79.1835 10.1379V9.36677L78.3978 9.40439C77.2671 9.44201 76.7114 9.8558 76.7114 10.627C76.673 11.2477 76.9988 11.5298 77.6696 11.5298ZM88.267 8.23824C88.6694 7.57994 89.0335 7.09091 89.3401 6.71473L91.5822 3.94984H95.4341L91.9655 8.12539L95.6257 13.7492H91.6972L89.5126 10.232L88.4011 11.0596V13.7116H84.9325V0.282132H88.4011V5.5674C88.4011 6.48903 88.3436 7.37304 88.1903 8.21943H88.267V8.23824ZM101.624 13.9185C99.9567 13.9185 98.6919 13.4859 97.7529 12.6395C96.8522 11.7743 96.3923 10.5329 96.3923 8.91536C96.3923 7.26019 96.833 6 97.6762 5.11598C98.5194 4.23197 99.7459 3.78057 101.317 3.78057C102.831 3.78057 103.962 4.15674 104.786 4.9279C105.61 5.69906 106.012 6.78997 106.012 8.23824V9.76176H99.8417C99.88 10.3072 100.072 10.7398 100.455 11.0408C100.838 11.3605 101.356 11.4922 102.026 11.4922C102.64 11.4922 103.195 11.4357 103.694 11.3229C104.211 11.21 104.748 11.0031 105.361 10.7586V13.185C104.805 13.4483 104.249 13.6364 103.694 13.7492C103.119 13.8621 102.41 13.9185 101.624 13.9185ZM101.413 6.09404C101.011 6.09404 100.647 6.2069 100.397 6.47022C100.129 6.73354 99.9567 7.09091 99.9375 7.63637H102.908C102.908 7.14734 102.755 6.77116 102.505 6.48903C102.199 6.24451 101.854 6.09404 101.413 6.09404ZM113.946 3.78057C114.233 3.78057 114.521 3.81818 114.789 3.83699L115 3.87461L114.674 7.05329C114.387 6.99687 114.004 6.94044 113.505 6.94044C112.739 6.94044 112.202 7.10972 111.876 7.44828C111.531 7.78684 111.359 8.27586 111.359 8.89655V13.6928H107.929V3.91222H110.497L111.014 5.49216H111.186C111.474 4.98432 111.876 4.55172 112.375 4.23198C112.93 3.94984 113.448 3.78057 113.946 3.78057Z" fill="url(#paint0_linear_1161_15806)"/>
<defs>
<linearGradient id="paint0_linear_1161_15806" x1="-0.947193" y1="9.00941" x2="115.414" y2="9.00941" gradientUnits="userSpaceOnUse">
<stop stop-color="#F7102B"/>
<stop offset="1"/>
</linearGradient>
</defs>
</svg>
