<svg width="207" height="50" viewBox="0 0 207 50" fill="none" xmlns="http://www.w3.org/2000/svg">
<g clip-path="url(#clip0_1161_15753)">
<mask id="mask0_1161_15753" style="mask-type:luminance" maskUnits="userSpaceOnUse" x="0" y="0" width="207" height="50">
<path d="M206.557 0.460938H0.15625V49.043H206.557V0.460938Z" fill="white"/>
</mask>
<g mask="url(#mask0_1161_15753)">
<path d="M67.9281 28.6997C68.5475 28.6997 69.009 28.5297 69.3127 28.1896C69.6163 27.8495 69.762 27.3516 69.762 26.6957H74.0008L74.0251 26.7807C74.0616 28.3961 73.5029 29.72 72.3369 30.7402C71.1831 31.7604 69.7013 32.2705 67.9038 32.2705C65.6569 32.2705 63.9079 31.5661 62.6934 30.1693C61.4667 28.7726 60.8594 26.9508 60.8594 24.716V24.4002C60.8594 22.1776 61.4667 20.3558 62.6812 18.959C63.8958 17.5501 65.6204 16.8457 67.8552 16.8457C69.7378 16.8457 71.2438 17.368 72.3733 18.4246C73.5029 19.4813 74.0494 20.9145 74.013 22.7241L73.9887 22.8092H69.7499C69.7499 22.1047 69.592 21.5339 69.2884 21.0845C68.9726 20.6351 68.5111 20.4165 67.8795 20.4165C67.005 20.4165 66.3856 20.7809 66.0334 21.4974C65.6811 22.2262 65.499 23.1857 65.499 24.4002V24.716C65.499 25.967 65.6811 26.9386 66.0334 27.6431C66.3856 28.3475 67.0172 28.6997 67.9159 28.6997H67.9281Z" fill="#211B2E"/>
<path d="M84.3335 21.2059H82.6453C82.1109 21.1938 81.6737 21.2788 81.3457 21.461C81.0057 21.6432 80.7506 21.8982 80.5927 22.2262V31.979H75.9531V17.1129H80.3255L80.4956 19.2991C80.8113 18.5218 81.2243 17.9145 81.7344 17.4894C82.2445 17.0643 82.8518 16.8457 83.5319 16.8457C83.7505 16.8457 83.9813 16.8578 84.1999 16.8943C84.4307 16.9307 84.625 16.9672 84.8072 17.0157L84.3578 21.2181L84.3335 21.2059Z" fill="#211B2E"/>
<path d="M93.1537 25.4325V25.5418H93.2509L95.7043 17.125H100.647L94.7326 34.2016C94.2711 35.2947 93.6881 36.2056 92.9594 36.9222C92.2306 37.6388 91.089 37.991 89.5101 37.991C89.1093 37.991 88.7813 37.9667 88.5263 37.9181C88.2712 37.8695 87.8704 37.7724 87.3117 37.6388L87.8704 34.3352C88.004 34.3595 88.089 34.3838 88.1619 34.3959C88.2226 34.4081 88.3076 34.4202 88.4048 34.4202C89.1335 34.4202 89.6679 34.3109 90.008 34.0923C90.3481 33.8737 90.6031 33.5457 90.761 33.1206L91.1375 32.149L86 17.125H90.9311L93.1416 25.4325H93.1537Z" fill="#211B2E"/>
<path d="M115.62 24.8617C115.62 27.0965 115.122 28.8941 114.114 30.2422C113.106 31.5904 111.685 32.2705 109.851 32.2705C109.135 32.2705 108.503 32.1369 107.944 31.8576C107.386 31.5782 106.912 31.1896 106.499 30.6673V37.6996H101.859V17.1129H106.195L106.365 18.7525C106.79 18.1453 107.276 17.6716 107.847 17.3437C108.418 17.0157 109.074 16.8457 109.827 16.8457C111.673 16.8457 113.094 17.5501 114.102 18.9712C115.11 20.3922 115.62 22.2626 115.62 24.5703V24.8617ZM110.993 24.5703C110.993 23.3193 110.811 22.3112 110.446 21.546C110.082 20.7809 109.499 20.4043 108.685 20.4043C108.163 20.4043 107.726 20.5015 107.361 20.6958C106.997 20.8902 106.718 21.1695 106.499 21.5339V27.7402C106.718 28.056 107.009 28.2989 107.373 28.4568C107.738 28.6147 108.187 28.6876 108.709 28.6876C109.523 28.6876 110.106 28.3475 110.458 27.6795C110.811 27.0115 110.993 26.0641 110.993 24.8617V24.5703Z" fill="#211B2E"/>
<path d="M123.166 13.4219V17.1141H125.68V20.3327H123.166V27.1463C123.166 27.6807 123.275 28.0572 123.494 28.288C123.712 28.5188 124.004 28.6402 124.368 28.6402C124.66 28.6402 124.89 28.6402 125.06 28.6159C125.23 28.6038 125.449 28.5552 125.716 28.5066L126.044 31.9438C125.534 32.0652 125.072 32.1503 124.66 32.1988C124.247 32.2474 123.761 32.2717 123.202 32.2717C121.672 32.2717 120.518 31.8588 119.728 31.045C118.939 30.2313 118.55 28.9438 118.55 27.1706V20.3327H116.461V17.1141H118.55V13.4219H123.178H123.166Z" fill="#211B2E"/>
<path d="M126.836 24.4108C126.836 22.1761 127.468 20.3542 128.731 18.9454C129.994 17.5365 131.755 16.832 134.014 16.832C136.273 16.832 138.046 17.5365 139.322 18.9454C140.585 20.3542 141.216 22.1761 141.216 24.4108V24.7023C141.216 26.9492 140.585 28.7711 139.322 30.1678C138.058 31.5645 136.297 32.269 134.05 32.269C131.803 32.269 129.994 31.5645 128.731 30.1678C127.468 28.7711 126.836 26.9492 126.836 24.7023V24.4108ZM131.476 24.7023C131.476 25.9533 131.67 26.925 132.059 27.6294C132.447 28.3338 133.115 28.6982 134.038 28.6982C134.961 28.6982 135.593 28.346 135.994 27.6294C136.382 26.9128 136.589 25.9412 136.589 24.7023V24.4108C136.589 23.1963 136.394 22.2368 135.994 21.5081C135.605 20.7793 134.937 20.415 134.014 20.415C133.091 20.415 132.447 20.7793 132.059 21.5081C131.67 22.2368 131.476 23.2084 131.476 24.4108V24.7023Z" fill="#211B2E"/>
<path d="M147.536 17.1129L147.718 19.2019C148.204 18.4611 148.799 17.8781 149.515 17.4651C150.232 17.0522 151.021 16.8457 151.908 16.8457C153.365 16.8457 154.507 17.3194 155.321 18.2546C156.135 19.2019 156.548 20.6958 156.548 22.7606V31.979H151.908V22.7484C151.908 21.8982 151.726 21.291 151.374 20.9387C151.021 20.5865 150.499 20.4043 149.819 20.4043C149.394 20.4043 149.005 20.4772 148.677 20.6351C148.337 20.793 148.058 21.0116 147.815 21.2788V31.9669H143.188V17.1129H147.536Z" fill="#211B2E"/>
<path d="M165.862 32.2687C163.676 32.2687 161.927 31.5764 160.627 30.204C159.328 28.8315 158.672 27.1069 158.672 25.0421V24.5199C158.672 22.2608 159.267 20.4147 160.445 18.9815C161.635 17.5483 163.324 16.8318 165.534 16.8439C167.55 16.8439 169.129 17.4512 170.271 18.6536C171.413 19.8681 171.983 21.4956 171.983 23.5725V26.0016H163.494L163.469 26.0866C163.567 26.8518 163.882 27.4712 164.405 27.957C164.927 28.4429 165.619 28.6979 166.494 28.6979C167.368 28.6979 168.072 28.6251 168.607 28.4915C169.141 28.3579 169.797 28.1149 170.611 27.7749L171.704 30.6048C171.048 31.0784 170.21 31.4792 169.178 31.795C168.145 32.1108 167.04 32.2687 165.862 32.2687ZM165.534 20.4147C164.866 20.4147 164.368 20.6576 164.028 21.1313C163.688 21.6049 163.494 22.2487 163.421 23.0381L163.457 23.111H167.453V22.7588C167.453 22.0057 167.295 21.4349 166.992 21.0341C166.676 20.6333 166.19 20.4268 165.534 20.4268V20.4147Z" fill="#211B2E"/>
<path d="M186.695 25.7362H186.78L188.383 17.125H192.67L189.185 31.9911H185.262L182.845 24.1087H182.76L180.331 31.9911H176.42L172.922 17.125H177.209L178.849 25.809H178.934L181.351 17.125H184.278L186.719 25.7362H186.695Z" fill="#211B2E"/>
<path d="M202.086 27.7994C202.086 27.4351 201.88 27.1071 201.467 26.8156C201.054 26.5242 200.289 26.2691 199.196 26.0383C197.459 25.6983 196.159 25.176 195.285 24.4594C194.41 23.7428 193.961 22.7712 193.961 21.5323C193.961 20.2206 194.508 19.1154 195.613 18.2045C196.706 17.2936 198.2 16.832 200.082 16.832C202.062 16.832 203.629 17.2693 204.807 18.1559C205.973 19.0425 206.532 20.1842 206.483 21.5809L206.459 21.6659H201.953C201.953 21.083 201.807 20.6336 201.503 20.3299C201.2 20.0263 200.726 19.8806 200.07 19.8806C199.584 19.8806 199.171 20.0142 198.844 20.2814C198.516 20.5486 198.346 20.8886 198.346 21.3016C198.346 21.7145 198.54 22.0303 198.916 22.3097C199.293 22.589 200.058 22.8319 201.212 23.0505C203.022 23.4028 204.37 23.9372 205.244 24.6537C206.119 25.3582 206.556 26.3663 206.556 27.6658C206.556 28.9654 205.961 30.1071 204.783 30.9694C203.592 31.8317 202.026 32.269 200.082 32.269C198.139 32.269 196.463 31.7589 195.285 30.7265C194.107 29.7063 193.548 28.5525 193.597 27.2893L193.621 27.2043H197.823C197.835 27.9087 198.054 28.4189 198.467 28.7346C198.88 29.0504 199.451 29.1962 200.204 29.1962C200.823 29.1962 201.297 29.0747 201.613 28.8318C201.928 28.5889 202.099 28.2488 202.099 27.7994H202.086Z" fill="#211B2E"/>
<path d="M36.589 24.7539L24.4453 36.8976L36.589 49.0413L48.7327 36.8976L36.589 24.7539Z" fill="#351774"/>
<path d="M36.5879 0.460938H12.2969L24.4424 12.6065L36.5879 24.752L48.7334 12.6065L36.5879 0.460938Z" fill="#DA5991"/>
<path d="M24.4473 36.8975L12.3018 24.752L0.15625 36.8975L12.3018 49.043H36.5928L24.4473 36.8975Z" fill="#591C7E"/>
<path d="M12.3018 0.460938L0.15625 12.6065V36.8975L12.3018 24.752L24.4473 12.6065L12.3018 0.460938Z" fill="#A72E83"/>
</g>
</g>
<defs>
<clipPath id="clip0_1161_15753">
<rect width="206.474" height="48.5821" fill="white" transform="translate(0.15625 0.460938)"/>
</clipPath>
</defs>
</svg>
