<svg width="18" height="16" viewBox="0 0 18 16" fill="none" xmlns="http://www.w3.org/2000/svg">
<path d="M9 16C13.4183 16 17 12.4183 17 8C17 3.58172 13.4183 0 9 0C4.58172 0 1 3.58172 1 8C1 12.4183 4.58172 16 9 16Z" fill="white"/>
<path d="M9.04356 2.91793C5.64699 2.91793 3.8431 5.19816 3.8431 7.68044C3.82672 8.2828 3.96493 8.8793 4.24454 9.41308C4.52415 9.94685 4.93585 10.4001 5.44036 10.7296C5.58939 10.7991 5.66893 10.7689 5.70367 10.6244C5.73019 10.5147 5.86276 9.98444 5.92219 9.7321C5.93331 9.69293 5.93411 9.65154 5.9245 9.61196C5.91488 9.57239 5.89519 9.53598 5.86733 9.50627C5.48757 8.98447 5.28245 8.35598 5.28127 7.71062C5.27961 7.2499 5.37142 6.79364 5.55114 6.36942C5.73086 5.9452 5.99477 5.56185 6.32689 5.24255C6.65901 4.92325 7.05245 4.67463 7.48341 4.51174C7.91437 4.34884 8.37389 4.27506 8.83419 4.29484C9.26497 4.26989 9.69623 4.33489 10.1005 4.48571C10.5048 4.63654 10.8733 4.86988 11.1824 5.17089C11.4916 5.4719 11.7347 5.83398 11.8963 6.23408C12.0579 6.63418 12.1345 7.06355 12.121 7.49485C12.121 9.6233 11.0458 11.099 9.64699 11.099C9.46831 11.1081 9.28997 11.0753 9.12633 11.0029C8.96268 10.9306 8.8183 10.8209 8.70481 10.6826C8.59131 10.5443 8.51188 10.3812 8.4729 10.2066C8.43391 10.032 8.43647 9.85069 8.48036 9.67724C8.77214 8.82403 8.99023 7.94737 9.13224 7.0569C9.14936 6.9168 9.13628 6.77466 9.09387 6.64004C9.05146 6.50542 8.9807 6.38145 8.88637 6.27646C8.79204 6.17147 8.67631 6.08791 8.54698 6.03139C8.41765 5.97486 8.27771 5.9467 8.13659 5.94879C7.34664 5.94879 6.71304 6.76524 6.71304 7.85964C6.70815 8.26143 6.78855 8.65968 6.94893 9.0281C6.94893 9.0281 6.16904 12.3259 6.02641 12.9403C5.90406 13.6853 5.8945 14.4444 5.99807 15.1922C6.17544 15.2617 6.35281 15.3312 6.53659 15.3879C6.95118 14.7459 7.28006 14.0525 7.51487 13.3252C7.6063 12.9595 8.00584 11.4546 8.00584 11.4546C8.20652 11.7444 8.4768 11.979 8.79184 12.137C9.10688 12.295 9.45659 12.3713 9.80882 12.3588C12.186 12.3588 13.8929 10.1764 13.8929 7.46376C13.884 6.84344 13.7502 6.23129 13.4995 5.66383C13.2488 5.09637 12.8863 4.58524 12.4337 4.16096C11.981 3.73668 11.4476 3.40795 10.8651 3.19438C10.2827 2.98081 9.66316 2.88679 9.04356 2.91793Z" fill="#103E63"/>
</svg>
