<svg width="16" height="14" viewBox="0 0 16 14" fill="none" xmlns="http://www.w3.org/2000/svg">
<path d="M0.838867 13.9069H3.86281V4.5144H0.838867V13.9069Z" fill="white"/>
<path d="M12.1245 4.42443C11.5237 4.36479 10.9185 4.4809 10.3825 4.75867C9.84636 5.03644 9.40244 5.46391 9.10458 5.98918V4.51436H5.70801C5.75196 5.29674 5.70801 13.9069 5.70801 13.9069H9.10458V8.82093C9.08162 8.56276 9.10669 8.30258 9.1785 8.05354C9.29823 7.71524 9.52032 7.42263 9.81392 7.21635C10.1075 7.01007 10.4581 6.90036 10.8168 6.90246C11.9967 6.90246 12.5331 7.77177 12.5331 9.04376V13.9099H15.9626V8.68604C15.9636 5.77535 14.2744 4.42443 12.1245 4.42443Z" fill="white"/>
<mask id="mask0_887_5192" style="mask-type:luminance" maskUnits="userSpaceOnUse" x="0" y="0" width="5" height="4">
<path d="M0.446289 0.0799561H4.11786V3.33991H0.446289V0.0799561Z" fill="white"/>
</mask>
<g mask="url(#mask0_887_5192)">
<path d="M2.29456 0.0799154C2.06415 0.0561181 1.83131 0.0803291 1.61072 0.151021C1.39013 0.221713 1.18658 0.337352 1.01292 0.490644C0.839262 0.643936 0.699252 0.831553 0.601726 1.04166C0.504201 1.25177 0.451275 1.47981 0.446289 1.71139C0.449526 1.93949 0.499784 2.16447 0.593922 2.37226C0.688059 2.58004 0.824052 2.76618 0.993397 2.91902C1.16274 3.07186 1.3618 3.18812 1.57812 3.26054C1.79444 3.33295 2.02337 3.35996 2.25061 3.33987H2.27259C2.50288 3.36384 2.73564 3.33974 2.95614 3.26907C3.17663 3.19841 3.38005 3.08274 3.55351 2.92937C3.72697 2.77601 3.8667 2.58829 3.96384 2.37812C4.06099 2.16795 4.11344 1.93989 4.11786 1.7084C4.11381 1.47887 4.06234 1.25266 3.9667 1.04397C3.87106 0.835284 3.73331 0.648621 3.56209 0.495701C3.39088 0.342782 3.1899 0.226909 2.97178 0.155358C2.75365 0.0838065 2.52309 0.0581215 2.29456 0.0799154Z" fill="white"/>
</g>
</svg>
