<svg width="348" height="63" viewBox="0 0 348 63" fill="none" xmlns="http://www.w3.org/2000/svg">
<g filter="url(#filter0_d_321_554)">
<mask id="path-1-outside-1_321_554" maskUnits="userSpaceOnUse" x="7.86328" y="17.1587" width="152" height="34" fill="black">
<rect fill="white" x="7.86328" y="17.1587" width="152" height="34"/>
<path d="M12.2148 42.1587C11.6538 42.1587 11.1655 41.9717 10.7499 41.5977C10.3343 41.2236 10.1266 40.7769 10.1266 40.2574V22.2422C10.1266 21.7227 10.324 21.2759 10.7188 20.9019C11.1343 20.5279 11.633 20.3409 12.2148 20.3409H20.5991C22.5939 20.3409 24.1835 20.9019 25.3678 22.024C26.573 23.1253 27.1756 24.6109 27.1756 26.481C27.1756 27.3745 26.9366 28.2265 26.4587 29.0368C25.9808 29.8264 25.3471 30.4394 24.5575 30.8758V30.9693C25.638 31.3433 26.4899 31.9563 27.1133 32.8082C27.7574 33.6601 28.0795 34.6367 28.0795 35.738C28.0795 36.9848 27.7886 38.0964 27.2068 39.073C26.625 40.0496 25.8146 40.8081 24.7756 41.3483C23.7367 41.8886 22.5523 42.1587 21.2225 42.1587H12.2148ZM20.5368 29.5044C21.2225 29.5044 21.8043 29.2239 22.2822 28.6628C22.7809 28.1018 23.0302 27.4265 23.0302 26.6369C23.0302 25.785 22.8017 25.1096 22.3445 24.611C21.9082 24.1123 21.3056 23.8629 20.5368 23.8629H14.1784V29.5044H20.5368ZM21.1601 38.6367C22.0121 38.6367 22.6874 38.3873 23.1861 37.8886C23.6848 37.3692 23.9341 36.6627 23.9341 35.7692C23.9341 34.8965 23.6848 34.2212 23.1861 33.7433C22.7082 33.2446 22.0328 32.9952 21.1601 32.9952H14.1784V38.6367H21.1601ZM36.0895 42.4392C35.0298 42.4392 34.0532 42.2314 33.1597 41.8158C32.287 41.4003 31.5805 40.8081 31.0402 40.0392C30.5208 39.2497 30.261 38.3146 30.261 37.2341C30.261 36.1536 30.5415 35.2186 31.1026 34.429C31.6636 33.6186 32.422 33.0056 33.3778 32.59C34.3545 32.1537 35.4246 31.9355 36.5882 31.9355C37.544 31.9355 38.3959 32.0913 39.144 32.403C39.9128 32.6939 40.6193 33.1407 41.2634 33.7433L41.4193 33.5874C41.2323 33.4004 40.9102 33.1199 40.453 32.7459V32.1225C40.453 31.2706 40.1518 30.5953 39.5492 30.0966C38.9466 29.5979 38.105 29.3485 37.0245 29.3485C35.0921 29.3485 33.6688 30.055 32.7545 31.468C32.2973 31.3225 31.9129 31.094 31.6013 30.7823C31.2896 30.4498 31.1337 30.0966 31.1337 29.7225C31.1337 29.0992 31.4142 28.5278 31.9753 28.0083C32.5363 27.4888 33.2947 27.0732 34.2506 26.7616C35.2064 26.4499 36.2453 26.294 37.3674 26.294C39.5699 26.294 41.2738 26.8135 42.479 27.8525C43.6842 28.8706 44.2867 30.2628 44.2867 32.029V39.8211C44.2867 40.7353 43.9958 41.4003 43.414 41.8158C42.8322 42.2314 41.918 42.4392 40.6712 42.4392V41.1613C41.0245 40.8081 41.2634 40.5483 41.3881 40.3821L41.2634 40.2263C40.5777 40.9535 39.8401 41.5042 39.0505 41.8782C38.2817 42.2522 37.2947 42.4392 36.0895 42.4392ZM37.0869 39.6029C38.1674 39.6029 39.0089 39.3951 39.6115 38.9795C40.2141 38.5639 40.5154 37.9718 40.5154 37.2029C40.5154 36.4549 40.2037 35.8627 39.5803 35.4263C38.9777 34.99 38.157 34.7718 37.118 34.7718C36.1622 34.7718 35.4038 34.99 34.8428 35.4263C34.3025 35.8419 34.0324 36.4341 34.0324 37.2029C34.0324 37.9925 34.3025 38.5951 34.8428 39.0107C35.383 39.4055 36.131 39.6029 37.0869 39.6029ZM47.7781 22.6785C47.7781 21.8474 48.1002 21.2032 48.7443 20.7461C49.4092 20.2889 50.3962 20.0604 51.7053 20.0604V27.2914C51.4144 27.52 51.1858 27.7278 51.0196 27.9148L51.1443 28.0706C51.7053 27.5304 52.4325 27.1044 53.326 26.7927C54.2403 26.4603 55.0818 26.294 55.8507 26.294C57.7 26.294 59.1753 26.8135 60.2766 27.8525C61.3778 28.8706 61.9285 30.2109 61.9285 31.8732V36.8289C61.9285 37.9094 61.6584 38.8756 61.1181 39.7276C60.5779 40.5795 59.8506 41.2444 58.9363 41.7223C58.0221 42.2002 57.0454 42.4392 56.0065 42.4392C54.9052 42.4392 53.939 42.221 53.1079 41.7847C52.2975 41.3275 51.5598 40.6626 50.8949 39.7899L50.7702 39.9146C50.8534 40.06 50.9572 40.2055 51.0819 40.3509C51.2066 40.4964 51.3001 40.6107 51.3624 40.6938C51.3624 41.2756 51.0819 41.7119 50.5209 42.0029C49.9599 42.2938 49.0456 42.4392 47.7781 42.4392V22.6785ZM54.8533 39.073C55.8922 39.073 56.6818 38.8652 57.2221 38.4497C57.7831 38.0133 58.0636 37.3796 58.0636 36.5484V32.1225C58.0636 31.3329 57.7831 30.7303 57.2221 30.3147C56.661 29.8784 55.8714 29.6602 54.8533 29.6602C53.939 29.6602 53.1702 29.8888 52.5468 30.3459C51.9442 30.803 51.6429 31.3537 51.6429 31.9978V36.7042C51.6429 37.3899 51.9442 37.9614 52.5468 38.4185C53.1494 38.8549 53.9182 39.073 54.8533 39.073ZM66.4949 48.6729C65.6845 48.6729 65.0404 48.3923 64.5624 47.8313C64.1053 47.2703 63.8767 46.4599 63.8767 45.4002C64.5001 45.5041 65.0196 45.556 65.4352 45.556C66.2247 45.556 66.8481 45.3482 67.3052 44.9327C67.7832 44.5171 68.3026 43.6859 68.8637 42.4392L69.3624 41.286L63.3469 26.6057C63.4923 26.5226 63.7417 26.4499 64.0949 26.3875C64.4689 26.3252 64.7702 26.294 64.9988 26.294C65.6014 26.294 66.152 26.4291 66.6507 26.6992C67.1494 26.9486 67.4923 27.3018 67.6793 27.7589L71.0143 36.5172L70.4844 37.9821L70.7649 38.0756L74.7856 27.7589C74.9726 27.281 75.3051 26.9174 75.783 26.6681C76.2817 26.4187 76.8324 26.294 77.4349 26.294C77.6635 26.294 77.9544 26.3252 78.3077 26.3875C78.6817 26.4499 78.9518 26.5226 79.118 26.6057L72.1363 43.5613C71.4091 45.3067 70.6091 46.595 69.7364 47.4261C68.8844 48.2573 67.8039 48.6729 66.4949 48.6729ZM92.2357 42.1587C91.6539 42.1587 91.1552 41.9821 90.7397 41.6288C90.3449 41.2548 90.1475 40.7977 90.1475 40.2574V22.2422C90.1475 21.7019 90.3449 21.2552 90.7397 20.9019C91.1345 20.5279 91.6331 20.3409 92.2357 20.3409H99.1551C101.004 20.3409 102.636 20.6941 104.049 21.4006C105.482 22.1071 106.584 23.1045 107.352 24.3928C108.142 25.6603 108.537 27.1148 108.537 28.7563V33.6809C108.537 35.3224 108.142 36.7874 107.352 38.0756C106.563 39.3639 105.451 40.3717 104.017 41.099C102.604 41.8055 100.984 42.1587 99.1551 42.1587H92.2357ZM98.8434 38.5743C100.651 38.5743 102.023 38.1692 102.958 37.3588C103.893 36.5276 104.36 35.3121 104.36 33.7121V28.694C104.36 27.1356 103.893 25.9512 102.958 25.1408C102.023 24.3304 100.651 23.9252 98.8434 23.9252H94.324V38.5743H98.8434ZM117.39 42.4392C116.039 42.4392 114.813 42.2002 113.712 41.7223C112.631 41.2236 111.779 40.5379 111.156 39.6652C110.533 38.7925 110.221 37.8055 110.221 36.7042V32.3095C110.221 31.1875 110.522 30.1693 111.125 29.255C111.748 28.3408 112.6 27.6239 113.681 27.1044C114.761 26.5642 115.998 26.294 117.39 26.294C118.782 26.294 120.018 26.5642 121.099 27.1044C122.2 27.6239 123.052 28.3408 123.655 29.255C124.278 30.1693 124.59 31.1875 124.59 32.3095V36.7042C124.59 37.8055 124.268 38.7925 123.623 39.6652C123 40.5379 122.138 41.2236 121.036 41.7223C119.956 42.2002 118.74 42.4392 117.39 42.4392ZM117.39 39.1042C118.429 39.1042 119.239 38.8652 119.821 38.3873C120.423 37.9094 120.725 37.2653 120.725 36.4549V32.4965C120.725 31.6446 120.423 30.9589 119.821 30.4394C119.239 29.8992 118.429 29.629 117.39 29.629C116.372 29.629 115.561 29.8992 114.959 30.4394C114.356 30.9589 114.055 31.6446 114.055 32.4965V36.4549C114.055 37.2653 114.356 37.9094 114.959 38.3873C115.561 38.8652 116.372 39.1042 117.39 39.1042ZM133.307 48.6729C132.081 48.6729 130.99 48.4962 130.034 48.143C129.078 47.8105 128.33 47.3534 127.79 46.7716C127.249 46.1898 126.979 45.5456 126.979 44.8392C126.979 44.1327 127.218 43.634 127.696 43.3431C128.195 43.0522 128.891 42.9067 129.784 42.9067C129.868 43.7587 130.2 44.4132 130.782 44.8703C131.364 45.3482 132.205 45.5872 133.307 45.5872C134.532 45.5872 135.395 45.2859 135.893 44.6833C136.413 44.0807 136.673 43.2496 136.673 42.1899V41.1301C136.984 40.9016 137.213 40.6834 137.358 40.4756L137.234 40.3198C136.693 40.86 135.966 41.2964 135.052 41.6288C134.158 41.9613 133.317 42.1275 132.527 42.1275C131.364 42.1275 130.325 41.899 129.41 41.4418C128.496 40.9639 127.769 40.299 127.229 39.4471C126.709 38.5951 126.449 37.6289 126.449 36.5484V31.9043C126.449 30.8654 126.72 29.9199 127.26 29.068C127.821 28.1953 128.548 27.52 129.442 27.0421C130.356 26.5434 131.333 26.294 132.371 26.294C133.514 26.294 134.481 26.5226 135.27 26.9797C136.08 27.4369 136.818 28.0914 137.483 28.9433L137.608 28.8187C137.504 28.6317 137.306 28.3615 137.016 28.0083C137.016 26.8655 138.21 26.294 140.6 26.294V41.6288C140.6 43.0002 140.288 44.2158 139.665 45.2755C139.041 46.3352 138.169 47.1664 137.047 47.769C135.945 48.3716 134.699 48.6729 133.307 48.6729ZM133.525 38.7925C134.439 38.7925 135.208 38.5639 135.831 38.1068C136.455 37.6289 136.766 37.0679 136.766 36.4237V31.9978C136.766 31.3329 136.455 30.7719 135.831 30.3147C135.229 29.8576 134.46 29.629 133.525 29.629C132.507 29.629 131.717 29.8472 131.156 30.2836C130.616 30.7199 130.346 31.3433 130.346 32.1537V36.2679C130.346 37.0575 130.616 37.6808 131.156 38.138C131.696 38.5743 132.486 38.7925 133.525 38.7925ZM150.939 42.4392C149.65 42.4392 148.476 42.1899 147.417 41.6912C146.357 41.1717 145.515 40.4756 144.892 39.6029C144.269 38.7094 143.957 37.712 143.957 36.6107V32.4654C143.957 31.3017 144.279 30.2524 144.923 29.3174C145.567 28.3823 146.419 27.6447 147.479 27.1044C148.56 26.5642 149.723 26.294 150.97 26.294C152.196 26.294 153.318 26.5538 154.336 27.0732C155.375 27.5719 156.196 28.2784 156.798 29.1927C157.401 30.0862 157.702 31.1147 157.702 32.2783V34.0238C157.702 34.4809 157.526 34.8653 157.172 35.177C156.84 35.4887 156.414 35.6445 155.894 35.6445H147.728V36.3302C147.728 37.2237 147.999 37.951 148.539 38.512C149.079 39.073 149.889 39.3535 150.97 39.3535C152.009 39.3535 152.778 39.125 153.276 38.6678C153.796 38.2107 154.056 37.6185 154.056 36.8913C154.43 36.8497 154.689 36.8289 154.835 36.8289C155.604 36.8289 156.206 37.0055 156.643 37.3588C157.079 37.6912 157.297 38.1692 157.297 38.7925C157.297 39.3951 157.017 39.9769 156.456 40.5379C155.894 41.099 155.126 41.5561 154.149 41.9093C153.172 42.2626 152.102 42.4392 150.939 42.4392ZM154.18 32.8705V32.2783C154.18 31.4056 153.879 30.6992 153.276 30.1589C152.674 29.6187 151.895 29.3485 150.939 29.3485C149.983 29.3485 149.204 29.6187 148.601 30.1589C148.019 30.6784 147.728 31.3849 147.728 32.2783V32.8705H154.18Z"/>
</mask>
<path d="M12.2148 42.1587C11.6538 42.1587 11.1655 41.9717 10.7499 41.5977C10.3343 41.2236 10.1266 40.7769 10.1266 40.2574V22.2422C10.1266 21.7227 10.324 21.2759 10.7188 20.9019C11.1343 20.5279 11.633 20.3409 12.2148 20.3409H20.5991C22.5939 20.3409 24.1835 20.9019 25.3678 22.024C26.573 23.1253 27.1756 24.6109 27.1756 26.481C27.1756 27.3745 26.9366 28.2265 26.4587 29.0368C25.9808 29.8264 25.3471 30.4394 24.5575 30.8758V30.9693C25.638 31.3433 26.4899 31.9563 27.1133 32.8082C27.7574 33.6601 28.0795 34.6367 28.0795 35.738C28.0795 36.9848 27.7886 38.0964 27.2068 39.073C26.625 40.0496 25.8146 40.8081 24.7756 41.3483C23.7367 41.8886 22.5523 42.1587 21.2225 42.1587H12.2148ZM20.5368 29.5044C21.2225 29.5044 21.8043 29.2239 22.2822 28.6628C22.7809 28.1018 23.0302 27.4265 23.0302 26.6369C23.0302 25.785 22.8017 25.1096 22.3445 24.611C21.9082 24.1123 21.3056 23.8629 20.5368 23.8629H14.1784V29.5044H20.5368ZM21.1601 38.6367C22.0121 38.6367 22.6874 38.3873 23.1861 37.8886C23.6848 37.3692 23.9341 36.6627 23.9341 35.7692C23.9341 34.8965 23.6848 34.2212 23.1861 33.7433C22.7082 33.2446 22.0328 32.9952 21.1601 32.9952H14.1784V38.6367H21.1601ZM36.0895 42.4392C35.0298 42.4392 34.0532 42.2314 33.1597 41.8158C32.287 41.4003 31.5805 40.8081 31.0402 40.0392C30.5208 39.2497 30.261 38.3146 30.261 37.2341C30.261 36.1536 30.5415 35.2186 31.1026 34.429C31.6636 33.6186 32.422 33.0056 33.3778 32.59C34.3545 32.1537 35.4246 31.9355 36.5882 31.9355C37.544 31.9355 38.3959 32.0913 39.144 32.403C39.9128 32.6939 40.6193 33.1407 41.2634 33.7433L41.4193 33.5874C41.2323 33.4004 40.9102 33.1199 40.453 32.7459V32.1225C40.453 31.2706 40.1518 30.5953 39.5492 30.0966C38.9466 29.5979 38.105 29.3485 37.0245 29.3485C35.0921 29.3485 33.6688 30.055 32.7545 31.468C32.2973 31.3225 31.9129 31.094 31.6013 30.7823C31.2896 30.4498 31.1337 30.0966 31.1337 29.7225C31.1337 29.0992 31.4142 28.5278 31.9753 28.0083C32.5363 27.4888 33.2947 27.0732 34.2506 26.7616C35.2064 26.4499 36.2453 26.294 37.3674 26.294C39.5699 26.294 41.2738 26.8135 42.479 27.8525C43.6842 28.8706 44.2867 30.2628 44.2867 32.029V39.8211C44.2867 40.7353 43.9958 41.4003 43.414 41.8158C42.8322 42.2314 41.918 42.4392 40.6712 42.4392V41.1613C41.0245 40.8081 41.2634 40.5483 41.3881 40.3821L41.2634 40.2263C40.5777 40.9535 39.8401 41.5042 39.0505 41.8782C38.2817 42.2522 37.2947 42.4392 36.0895 42.4392ZM37.0869 39.6029C38.1674 39.6029 39.0089 39.3951 39.6115 38.9795C40.2141 38.5639 40.5154 37.9718 40.5154 37.2029C40.5154 36.4549 40.2037 35.8627 39.5803 35.4263C38.9777 34.99 38.157 34.7718 37.118 34.7718C36.1622 34.7718 35.4038 34.99 34.8428 35.4263C34.3025 35.8419 34.0324 36.4341 34.0324 37.2029C34.0324 37.9925 34.3025 38.5951 34.8428 39.0107C35.383 39.4055 36.131 39.6029 37.0869 39.6029ZM47.7781 22.6785C47.7781 21.8474 48.1002 21.2032 48.7443 20.7461C49.4092 20.2889 50.3962 20.0604 51.7053 20.0604V27.2914C51.4144 27.52 51.1858 27.7278 51.0196 27.9148L51.1443 28.0706C51.7053 27.5304 52.4325 27.1044 53.326 26.7927C54.2403 26.4603 55.0818 26.294 55.8507 26.294C57.7 26.294 59.1753 26.8135 60.2766 27.8525C61.3778 28.8706 61.9285 30.2109 61.9285 31.8732V36.8289C61.9285 37.9094 61.6584 38.8756 61.1181 39.7276C60.5779 40.5795 59.8506 41.2444 58.9363 41.7223C58.0221 42.2002 57.0454 42.4392 56.0065 42.4392C54.9052 42.4392 53.939 42.221 53.1079 41.7847C52.2975 41.3275 51.5598 40.6626 50.8949 39.7899L50.7702 39.9146C50.8534 40.06 50.9572 40.2055 51.0819 40.3509C51.2066 40.4964 51.3001 40.6107 51.3624 40.6938C51.3624 41.2756 51.0819 41.7119 50.5209 42.0029C49.9599 42.2938 49.0456 42.4392 47.7781 42.4392V22.6785ZM54.8533 39.073C55.8922 39.073 56.6818 38.8652 57.2221 38.4497C57.7831 38.0133 58.0636 37.3796 58.0636 36.5484V32.1225C58.0636 31.3329 57.7831 30.7303 57.2221 30.3147C56.661 29.8784 55.8714 29.6602 54.8533 29.6602C53.939 29.6602 53.1702 29.8888 52.5468 30.3459C51.9442 30.803 51.6429 31.3537 51.6429 31.9978V36.7042C51.6429 37.3899 51.9442 37.9614 52.5468 38.4185C53.1494 38.8549 53.9182 39.073 54.8533 39.073ZM66.4949 48.6729C65.6845 48.6729 65.0404 48.3923 64.5624 47.8313C64.1053 47.2703 63.8767 46.4599 63.8767 45.4002C64.5001 45.5041 65.0196 45.556 65.4352 45.556C66.2247 45.556 66.8481 45.3482 67.3052 44.9327C67.7832 44.5171 68.3026 43.6859 68.8637 42.4392L69.3624 41.286L63.3469 26.6057C63.4923 26.5226 63.7417 26.4499 64.0949 26.3875C64.4689 26.3252 64.7702 26.294 64.9988 26.294C65.6014 26.294 66.152 26.4291 66.6507 26.6992C67.1494 26.9486 67.4923 27.3018 67.6793 27.7589L71.0143 36.5172L70.4844 37.9821L70.7649 38.0756L74.7856 27.7589C74.9726 27.281 75.3051 26.9174 75.783 26.6681C76.2817 26.4187 76.8324 26.294 77.4349 26.294C77.6635 26.294 77.9544 26.3252 78.3077 26.3875C78.6817 26.4499 78.9518 26.5226 79.118 26.6057L72.1363 43.5613C71.4091 45.3067 70.6091 46.595 69.7364 47.4261C68.8844 48.2573 67.8039 48.6729 66.4949 48.6729ZM92.2357 42.1587C91.6539 42.1587 91.1552 41.9821 90.7397 41.6288C90.3449 41.2548 90.1475 40.7977 90.1475 40.2574V22.2422C90.1475 21.7019 90.3449 21.2552 90.7397 20.9019C91.1345 20.5279 91.6331 20.3409 92.2357 20.3409H99.1551C101.004 20.3409 102.636 20.6941 104.049 21.4006C105.482 22.1071 106.584 23.1045 107.352 24.3928C108.142 25.6603 108.537 27.1148 108.537 28.7563V33.6809C108.537 35.3224 108.142 36.7874 107.352 38.0756C106.563 39.3639 105.451 40.3717 104.017 41.099C102.604 41.8055 100.984 42.1587 99.1551 42.1587H92.2357ZM98.8434 38.5743C100.651 38.5743 102.023 38.1692 102.958 37.3588C103.893 36.5276 104.36 35.3121 104.36 33.7121V28.694C104.36 27.1356 103.893 25.9512 102.958 25.1408C102.023 24.3304 100.651 23.9252 98.8434 23.9252H94.324V38.5743H98.8434ZM117.39 42.4392C116.039 42.4392 114.813 42.2002 113.712 41.7223C112.631 41.2236 111.779 40.5379 111.156 39.6652C110.533 38.7925 110.221 37.8055 110.221 36.7042V32.3095C110.221 31.1875 110.522 30.1693 111.125 29.255C111.748 28.3408 112.6 27.6239 113.681 27.1044C114.761 26.5642 115.998 26.294 117.39 26.294C118.782 26.294 120.018 26.5642 121.099 27.1044C122.2 27.6239 123.052 28.3408 123.655 29.255C124.278 30.1693 124.59 31.1875 124.59 32.3095V36.7042C124.59 37.8055 124.268 38.7925 123.623 39.6652C123 40.5379 122.138 41.2236 121.036 41.7223C119.956 42.2002 118.74 42.4392 117.39 42.4392ZM117.39 39.1042C118.429 39.1042 119.239 38.8652 119.821 38.3873C120.423 37.9094 120.725 37.2653 120.725 36.4549V32.4965C120.725 31.6446 120.423 30.9589 119.821 30.4394C119.239 29.8992 118.429 29.629 117.39 29.629C116.372 29.629 115.561 29.8992 114.959 30.4394C114.356 30.9589 114.055 31.6446 114.055 32.4965V36.4549C114.055 37.2653 114.356 37.9094 114.959 38.3873C115.561 38.8652 116.372 39.1042 117.39 39.1042ZM133.307 48.6729C132.081 48.6729 130.99 48.4962 130.034 48.143C129.078 47.8105 128.33 47.3534 127.79 46.7716C127.249 46.1898 126.979 45.5456 126.979 44.8392C126.979 44.1327 127.218 43.634 127.696 43.3431C128.195 43.0522 128.891 42.9067 129.784 42.9067C129.868 43.7587 130.2 44.4132 130.782 44.8703C131.364 45.3482 132.205 45.5872 133.307 45.5872C134.532 45.5872 135.395 45.2859 135.893 44.6833C136.413 44.0807 136.673 43.2496 136.673 42.1899V41.1301C136.984 40.9016 137.213 40.6834 137.358 40.4756L137.234 40.3198C136.693 40.86 135.966 41.2964 135.052 41.6288C134.158 41.9613 133.317 42.1275 132.527 42.1275C131.364 42.1275 130.325 41.899 129.41 41.4418C128.496 40.9639 127.769 40.299 127.229 39.4471C126.709 38.5951 126.449 37.6289 126.449 36.5484V31.9043C126.449 30.8654 126.72 29.9199 127.26 29.068C127.821 28.1953 128.548 27.52 129.442 27.0421C130.356 26.5434 131.333 26.294 132.371 26.294C133.514 26.294 134.481 26.5226 135.27 26.9797C136.08 27.4369 136.818 28.0914 137.483 28.9433L137.608 28.8187C137.504 28.6317 137.306 28.3615 137.016 28.0083C137.016 26.8655 138.21 26.294 140.6 26.294V41.6288C140.6 43.0002 140.288 44.2158 139.665 45.2755C139.041 46.3352 138.169 47.1664 137.047 47.769C135.945 48.3716 134.699 48.6729 133.307 48.6729ZM133.525 38.7925C134.439 38.7925 135.208 38.5639 135.831 38.1068C136.455 37.6289 136.766 37.0679 136.766 36.4237V31.9978C136.766 31.3329 136.455 30.7719 135.831 30.3147C135.229 29.8576 134.46 29.629 133.525 29.629C132.507 29.629 131.717 29.8472 131.156 30.2836C130.616 30.7199 130.346 31.3433 130.346 32.1537V36.2679C130.346 37.0575 130.616 37.6808 131.156 38.138C131.696 38.5743 132.486 38.7925 133.525 38.7925ZM150.939 42.4392C149.65 42.4392 148.476 42.1899 147.417 41.6912C146.357 41.1717 145.515 40.4756 144.892 39.6029C144.269 38.7094 143.957 37.712 143.957 36.6107V32.4654C143.957 31.3017 144.279 30.2524 144.923 29.3174C145.567 28.3823 146.419 27.6447 147.479 27.1044C148.56 26.5642 149.723 26.294 150.97 26.294C152.196 26.294 153.318 26.5538 154.336 27.0732C155.375 27.5719 156.196 28.2784 156.798 29.1927C157.401 30.0862 157.702 31.1147 157.702 32.2783V34.0238C157.702 34.4809 157.526 34.8653 157.172 35.177C156.84 35.4887 156.414 35.6445 155.894 35.6445H147.728V36.3302C147.728 37.2237 147.999 37.951 148.539 38.512C149.079 39.073 149.889 39.3535 150.97 39.3535C152.009 39.3535 152.778 39.125 153.276 38.6678C153.796 38.2107 154.056 37.6185 154.056 36.8913C154.43 36.8497 154.689 36.8289 154.835 36.8289C155.604 36.8289 156.206 37.0055 156.643 37.3588C157.079 37.6912 157.297 38.1692 157.297 38.7925C157.297 39.3951 157.017 39.9769 156.456 40.5379C155.894 41.099 155.126 41.5561 154.149 41.9093C153.172 42.2626 152.102 42.4392 150.939 42.4392ZM154.18 32.8705V32.2783C154.18 31.4056 153.879 30.6992 153.276 30.1589C152.674 29.6187 151.895 29.3485 150.939 29.3485C149.983 29.3485 149.204 29.6187 148.601 30.1589C148.019 30.6784 147.728 31.3849 147.728 32.2783V32.8705H154.18Z" fill="#F2B60F"/>
<path d="M10.7499 41.5977L9.31196 43.1954H9.31196L10.7499 41.5977ZM10.7188 20.9019L9.28079 19.3042L9.26037 19.3226L9.24042 19.3415L10.7188 20.9019ZM25.3678 22.024L23.8895 23.5844L23.9036 23.5977L23.9178 23.6108L25.3678 22.024ZM26.4587 29.0368L28.2977 30.1499L28.304 30.1394L28.3103 30.1288L26.4587 29.0368ZM24.5575 30.8758L23.5178 28.9944L22.4079 29.6077V30.8758H24.5575ZM24.5575 30.9693H22.4079V32.4999L23.8543 33.0006L24.5575 30.9693ZM27.1133 32.8082L25.3785 34.0775L25.3885 34.0912L25.3987 34.1046L27.1133 32.8082ZM22.2822 28.6628L20.6756 27.2348L20.6606 27.2517L20.6459 27.2689L22.2822 28.6628ZM22.3445 24.611L20.7268 26.0264L20.7432 26.0451L20.76 26.0634L22.3445 24.611ZM14.1784 23.8629V21.7134H12.0289V23.8629H14.1784ZM14.1784 29.5044H12.0289V31.6539H14.1784V29.5044ZM23.1861 37.8886L24.706 39.4086L24.7215 39.3931L24.7367 39.3773L23.1861 37.8886ZM23.1861 33.7433L21.6341 35.2305L21.6658 35.2636L21.6988 35.2952L23.1861 33.7433ZM14.1784 32.9952V30.8457H12.0289V32.9952H14.1784ZM14.1784 38.6367H12.0289V40.7862H14.1784V38.6367ZM12.2148 40.0092C12.1944 40.0092 12.1852 40.0075 12.1848 40.0074C12.1848 40.0074 12.1895 40.0083 12.1966 40.0111C12.1999 40.0123 12.2028 40.0136 12.2052 40.0148C12.2063 40.0154 12.2072 40.0159 12.2079 40.0162C12.2085 40.0166 12.2088 40.0168 12.2088 40.0168C12.2088 40.0168 12.2084 40.0165 12.2076 40.016C12.2068 40.0154 12.2055 40.0145 12.2038 40.0132C12.2005 40.0107 12.1951 40.0064 12.1879 39.9999L9.31196 43.1954C10.1237 43.926 11.1248 44.3082 12.2148 44.3082V40.0092ZM12.1879 39.9999C12.1664 39.9806 12.1979 40.0034 12.2314 40.0756C12.2668 40.1515 12.2761 40.2214 12.2761 40.2574H7.97702C7.97702 41.4367 8.4823 42.4487 9.31196 43.1954L12.1879 39.9999ZM12.2761 40.2574V22.2422H7.97702V40.2574H12.2761ZM12.2761 22.2422C12.2761 22.2623 12.2706 22.3188 12.2408 22.3863C12.2119 22.4516 12.183 22.4757 12.1971 22.4624L9.24042 19.3415C8.43971 20.1 7.97702 21.102 7.97702 22.2422H12.2761ZM12.1567 22.4997C12.1675 22.49 12.1721 22.4875 12.1703 22.4886C12.1683 22.4898 12.1641 22.492 12.1592 22.4938C12.1544 22.4956 12.1541 22.4951 12.1606 22.494C12.1675 22.4928 12.1848 22.4904 12.2148 22.4904V18.1914C11.1257 18.1914 10.1083 18.5594 9.28079 19.3042L12.1567 22.4997ZM12.2148 22.4904H20.5991V18.1914H12.2148V22.4904ZM20.5991 22.4904C22.1731 22.4904 23.1892 22.921 23.8895 23.5844L26.8462 20.4635C25.1777 18.8828 23.0146 18.1914 20.5991 18.1914V22.4904ZM23.9178 23.6108C24.6106 24.2438 25.0261 25.1179 25.0261 26.481H29.3251C29.3251 24.104 28.5354 22.0067 26.8179 20.4372L23.9178 23.6108ZM25.0261 26.481C25.0261 26.9698 24.9008 27.4471 24.6072 27.9449L28.3103 30.1288C28.9725 29.0058 29.3251 27.7792 29.3251 26.481H25.0261ZM24.6198 27.9238C24.3318 28.3996 23.9705 28.7442 23.5178 28.9944L25.5972 32.7571C26.7236 32.1346 27.6298 31.2533 28.2977 30.1499L24.6198 27.9238ZM22.4079 30.8758V30.9693H26.707V30.8758H22.4079ZM23.8543 33.0006C24.5575 33.244 25.0352 33.6083 25.3785 34.0775L28.848 31.5389C27.9446 30.3043 26.7184 29.4426 25.2606 28.938L23.8543 33.0006ZM25.3987 34.1046C25.7513 34.571 25.9299 35.089 25.9299 35.738H30.229C30.229 34.1844 29.7635 32.7493 28.8279 31.5118L25.3987 34.1046ZM25.9299 35.738C25.9299 36.6361 25.7248 37.3607 25.3601 37.9729L29.0534 40.1732C29.8524 38.8322 30.229 37.3334 30.229 35.738H25.9299ZM25.3601 37.9729C24.9891 38.5956 24.4797 39.0794 23.784 39.4412L25.7673 43.2554C27.1495 42.5367 28.2608 41.5037 29.0534 40.1732L25.3601 37.9729ZM23.784 39.4412C23.0907 39.8017 22.2543 40.0092 21.2225 40.0092V44.3082C22.8503 44.3082 24.3828 43.9754 25.7673 43.2554L23.784 39.4412ZM21.2225 40.0092H12.2148V44.3082H21.2225V40.0092ZM20.5368 31.6539C21.9039 31.6539 23.0669 31.0565 23.9185 30.0567L20.6459 27.2689C20.6087 27.3125 20.5818 27.3363 20.5675 27.3477C20.5538 27.3586 20.5493 27.3599 20.5539 27.3577C20.5587 27.3554 20.5642 27.3537 20.5671 27.353C20.5695 27.3525 20.5607 27.3548 20.5368 27.3548V31.6539ZM23.8888 30.0909C24.7566 29.1146 25.1798 27.9231 25.1798 26.6369H20.8807C20.8807 26.9299 20.8052 27.089 20.6756 27.2348L23.8888 30.0909ZM25.1798 26.6369C25.1798 25.3922 24.837 24.1489 23.9291 23.1585L20.76 26.0634C20.7664 26.0704 20.8807 26.1777 20.8807 26.6369H25.1798ZM23.9622 23.1955C23.0506 22.1536 21.8156 21.7134 20.5368 21.7134V26.0124C20.613 26.0124 20.6653 26.0186 20.6977 26.0245C20.7294 26.0303 20.7429 26.0359 20.7434 26.0361C20.744 26.0364 20.7425 26.0358 20.7396 26.0341C20.7367 26.0325 20.7334 26.0304 20.7301 26.0281C20.7227 26.0228 20.7216 26.0205 20.7268 26.0264L23.9622 23.1955ZM20.5368 21.7134H14.1784V26.0124H20.5368V21.7134ZM12.0289 23.8629V29.5044H16.328V23.8629H12.0289ZM14.1784 31.6539H20.5368V27.3548H14.1784V31.6539ZM21.1601 40.7862C22.4555 40.7862 23.7227 40.3919 24.706 39.4086L21.6661 36.3687C21.652 36.3828 21.5686 36.4871 21.1601 36.4871V40.7862ZM24.7367 39.3773C25.7071 38.3664 26.0836 37.077 26.0836 35.7692H21.7846C21.7846 36.2484 21.6624 36.3719 21.6354 36.4L24.7367 39.3773ZM26.0836 35.7692C26.0836 34.4741 25.7002 33.1754 24.6733 32.1913L21.6988 35.2952C21.7028 35.299 21.7139 35.3076 21.7306 35.3527C21.7508 35.4074 21.7846 35.5346 21.7846 35.7692H26.0836ZM24.738 32.256C23.7539 31.2291 22.4552 30.8457 21.1601 30.8457V35.1448C21.3947 35.1448 21.5219 35.1785 21.5766 35.1987C21.6218 35.2154 21.6303 35.2265 21.6341 35.2305L24.738 32.256ZM21.1601 30.8457H14.1784V35.1448H21.1601V30.8457ZM12.0289 32.9952V38.6367H16.328V32.9952H12.0289ZM14.1784 40.7862H21.1601V36.4871H14.1784V40.7862ZM33.1597 41.8158L32.2355 43.7566L32.2443 43.7608L32.2531 43.7649L33.1597 41.8158ZM31.0402 40.0392L29.2445 41.2207L29.2626 41.2482L29.2815 41.2751L31.0402 40.0392ZM31.1026 34.429L32.8548 35.674L32.8624 35.6633L32.8699 35.6525L31.1026 34.429ZM33.3778 32.59L34.2349 34.5613L34.2449 34.557L34.2547 34.5526L33.3778 32.59ZM39.144 32.403L38.3172 34.3872L38.35 34.4009L38.3833 34.4135L39.144 32.403ZM41.2634 33.7433L39.795 35.313L41.3132 36.7333L42.7834 35.2632L41.2634 33.7433ZM41.4193 33.5874L42.9392 35.1074L44.4592 33.5874L42.9392 32.0675L41.4193 33.5874ZM40.453 32.7459H38.3035V33.7645L39.0919 34.4095L40.453 32.7459ZM39.5492 30.0966L40.9196 28.4406L39.5492 30.0966ZM32.7545 31.468L32.1027 33.5163L33.6673 34.0141L34.5592 32.6357L32.7545 31.468ZM31.6013 30.7823L30.0331 32.2524L30.0568 32.2777L30.0813 32.3022L31.6013 30.7823ZM42.479 27.8525L41.0755 29.4805L41.0836 29.4875L41.0918 29.4945L42.479 27.8525ZM43.414 41.8158L42.1646 40.0667L43.414 41.8158ZM40.6712 42.4392H38.5217V44.5887H40.6712V42.4392ZM40.6712 41.1613L39.1513 39.6414L38.5217 40.2709V41.1613H40.6712ZM41.3881 40.3821L43.1077 41.6718L44.1069 40.3396L43.0666 39.0393L41.3881 40.3821ZM41.2634 40.2263L42.9419 38.8835L41.3965 36.9517L39.6994 38.7516L41.2634 40.2263ZM39.0505 41.8782L38.1303 39.9356L38.1202 39.9403L38.1101 39.9452L39.0505 41.8782ZM39.6115 38.9795L40.8319 40.7491L39.6115 38.9795ZM39.5803 35.4263L38.3196 37.1673L38.3336 37.1774L38.3477 37.1873L39.5803 35.4263ZM34.8428 35.4263L36.1534 37.1301L36.1624 37.1231L34.8428 35.4263ZM34.8428 39.0107L33.5322 40.7145L33.5531 40.7306L33.5745 40.7462L34.8428 39.0107ZM36.0895 40.2897C35.3189 40.2897 34.6547 40.1405 34.0662 39.8668L32.2531 43.7649C33.4516 44.3223 34.7406 44.5887 36.0895 44.5887V40.2897ZM34.0838 39.8751C33.5354 39.6139 33.1201 39.2604 32.799 38.8034L29.2815 41.2751C30.0409 42.3558 31.0386 43.1866 32.2355 43.7566L34.0838 39.8751ZM32.836 38.8578C32.5791 38.4674 32.4106 37.9565 32.4106 37.2341H28.1115C28.1115 38.6727 28.4624 40.0319 29.2445 41.2207L32.836 38.8578ZM32.4106 37.2341C32.4106 36.5459 32.5818 36.0583 32.8548 35.674L29.3503 33.1839C28.5013 34.3788 28.1115 35.7613 28.1115 37.2341H32.4106ZM32.8699 35.6525C33.1897 35.1905 33.6242 34.8268 34.2349 34.5613L32.5208 30.6188C31.2199 31.1844 30.1374 32.0467 29.3352 33.2054L32.8699 35.6525ZM34.2547 34.5526C34.9319 34.25 35.6999 34.085 36.5882 34.085V29.786C35.1492 29.786 33.777 30.0574 32.501 30.6275L34.2547 34.5526ZM36.5882 34.085C37.3103 34.085 37.8738 34.2024 38.3172 34.3872L39.9707 30.4188C38.9181 29.9802 37.7777 29.786 36.5882 29.786V34.085ZM38.3833 34.4135C38.871 34.598 39.3406 34.8879 39.795 35.313L42.7319 32.1735C41.898 31.3934 40.9546 30.7899 39.9047 30.3926L38.3833 34.4135ZM42.7834 35.2632L42.9392 35.1074L39.8993 32.0675L39.7435 32.2233L42.7834 35.2632ZM42.9392 32.0675C42.6705 31.7987 42.2763 31.4603 41.8142 31.0822L39.0919 34.4095C39.544 34.7795 39.794 35.0021 39.8993 35.1074L42.9392 32.0675ZM42.6026 32.7459V32.1225H38.3035V32.7459H42.6026ZM42.6026 32.1225C42.6026 30.695 42.0636 29.3873 40.9196 28.4406L38.1787 31.7526C38.2402 31.8034 38.256 31.8348 38.2641 31.8529C38.2744 31.8761 38.3035 31.9527 38.3035 32.1225H42.6026ZM40.9196 28.4406C39.8073 27.52 38.4159 27.199 37.0245 27.199V31.4981C37.7941 31.4981 38.0859 31.6758 38.1787 31.7526L40.9196 28.4406ZM37.0245 27.199C34.4896 27.199 32.3244 28.1759 30.9498 30.3002L34.5592 32.6357C35.0131 31.9341 35.6946 31.4981 37.0245 31.4981V27.199ZM33.4062 29.4196C33.247 29.369 33.1689 29.31 33.1212 29.2623L30.0813 32.3022C30.657 32.8779 31.3477 33.2761 32.1027 33.5163L33.4062 29.4196ZM33.1694 29.3121C33.1503 29.2917 33.1814 29.3191 33.2173 29.4004C33.256 29.4881 33.2833 29.6011 33.2833 29.7225H28.9842C28.9842 30.7567 29.4339 31.6133 30.0331 32.2524L33.1694 29.3121ZM33.2833 29.7225C33.2833 29.7295 33.2823 29.7418 33.279 29.7561C33.2757 29.7701 33.2722 29.7766 33.2737 29.7737C33.2768 29.7674 33.3109 29.701 33.4357 29.5855L30.5149 26.431C29.6216 27.2582 28.9842 28.3686 28.9842 29.7225H33.2833ZM33.4357 29.5855C33.709 29.3325 34.1676 29.0496 34.917 28.8052L33.5842 24.7179C32.4219 25.0969 31.3636 25.6452 30.5149 26.431L33.4357 29.5855ZM34.917 28.8052C35.6342 28.5713 36.4457 28.4436 37.3674 28.4436V24.1445C36.045 24.1445 34.7786 24.3285 33.5842 24.7179L34.917 28.8052ZM37.3674 28.4436C39.2522 28.4436 40.3878 28.8877 41.0755 29.4805L43.8825 26.2244C42.1598 24.7393 39.8877 24.1445 37.3674 24.1445V28.4436ZM41.0918 29.4945C41.7521 30.0523 42.1372 30.8107 42.1372 32.029H46.4363C46.4363 29.7149 45.6162 27.6889 43.8662 26.2105L41.0918 29.4945ZM42.1372 32.029V39.8211H46.4363V32.029H42.1372ZM42.1372 39.8211C42.1372 40.0561 42.0993 40.1439 42.0993 40.1439C42.0992 40.1439 42.1011 40.1398 42.1054 40.1325C42.1098 40.1252 42.1159 40.1164 42.1236 40.1068C42.1404 40.086 42.1565 40.0725 42.1646 40.0667L44.6634 43.565C45.9648 42.6354 46.4363 41.2147 46.4363 39.8211H42.1372ZM42.1646 40.0667C42.1659 40.0658 42.077 40.1279 41.8156 40.1873C41.5563 40.2462 41.1833 40.2897 40.6712 40.2897V44.5887C42.0703 44.5887 43.5338 44.3719 44.6634 43.565L42.1646 40.0667ZM42.8208 42.4392V41.1613H38.5217V42.4392H42.8208ZM42.1912 42.6813C42.5445 42.3279 42.8819 41.9729 43.1077 41.6718L39.6685 39.0924C39.6687 39.0921 39.6328 39.1383 39.5335 39.2462C39.4405 39.3472 39.3147 39.4779 39.1513 39.6414L42.1912 42.6813ZM43.0666 39.0393L42.9419 38.8835L39.5849 41.5691L39.7096 41.7249L43.0666 39.0393ZM39.6994 38.7516C39.1712 39.3119 38.6458 39.6914 38.1303 39.9356L39.9707 43.8208C41.0344 43.3169 41.9843 42.5951 42.8274 41.7009L39.6994 38.7516ZM38.1101 39.9452C37.729 40.1307 37.0937 40.2897 36.0895 40.2897V44.5887C37.4956 44.5887 38.8343 44.3737 39.9908 43.8111L38.1101 39.9452ZM37.0869 41.7524C38.4066 41.7524 39.7369 41.5042 40.8319 40.7491L38.3911 37.21C38.2809 37.286 37.9281 37.4534 37.0869 37.4534V41.7524ZM40.8319 40.7491C42.0501 39.9089 42.6649 38.6363 42.6649 37.2029H38.3658C38.3658 37.2547 38.3608 37.279 38.3602 37.2818C38.3598 37.2833 38.3604 37.2804 38.3627 37.274C38.365 37.2676 38.3685 37.259 38.3736 37.249C38.3787 37.239 38.3845 37.2292 38.3908 37.2201C38.397 37.211 38.4026 37.2041 38.4068 37.1995C38.4155 37.1897 38.4137 37.1945 38.3911 37.21L40.8319 40.7491ZM42.6649 37.2029C42.6649 35.7392 41.9992 34.4957 40.813 33.6654L38.3477 37.1873C38.3851 37.2135 38.3988 37.2287 38.3989 37.2288C38.399 37.2289 38.3966 37.2263 38.3927 37.2206C38.3887 37.215 38.3841 37.2076 38.3795 37.1989C38.3748 37.1901 38.3711 37.1815 38.3682 37.1737C38.3653 37.1659 38.3638 37.1604 38.3633 37.158C38.362 37.1527 38.3658 37.1657 38.3658 37.2029H42.6649ZM40.8411 33.6853C39.7519 32.8967 38.4352 32.6223 37.118 32.6223V36.9213C37.8788 36.9213 38.2036 37.0833 38.3196 37.1673L40.8411 33.6853ZM37.118 32.6223C35.8481 32.6223 34.5731 32.9129 33.5231 33.7296L36.1624 37.1231C36.2345 37.067 36.4763 36.9213 37.118 36.9213V32.6223ZM33.5322 33.7226C32.3902 34.601 31.8828 35.8641 31.8828 37.2029H36.1819C36.1819 37.1363 36.1878 37.0963 36.1914 37.0779C36.1949 37.0603 36.1966 37.0613 36.1907 37.0742C36.1845 37.0878 36.1749 37.1038 36.1633 37.1182C36.1521 37.1321 36.1462 37.1356 36.1534 37.1301L33.5322 33.7226ZM31.8828 37.2029C31.8828 38.5403 32.3748 39.8242 33.5322 40.7145L36.1534 37.3069C36.1498 37.3042 36.1578 37.31 36.1701 37.3253C36.1825 37.341 36.1915 37.3567 36.1964 37.3678C36.2072 37.3918 36.1819 37.353 36.1819 37.2029H31.8828ZM33.5745 40.7462C34.6105 41.5033 35.8637 41.7524 37.0869 41.7524V37.4534C36.3984 37.4534 36.1555 37.3077 36.111 37.2752L33.5745 40.7462ZM48.7443 20.7461L47.5265 18.9748L47.5133 18.9839L47.5003 18.9931L48.7443 20.7461ZM51.7053 20.0604H53.8548V17.9108H51.7053V20.0604ZM51.7053 27.2914L53.0333 28.9816L53.8548 28.3362V27.2914H51.7053ZM51.0196 27.9148L49.413 26.4867L48.2085 27.8418L49.3411 29.2576L51.0196 27.9148ZM51.1443 28.0706L49.4658 29.4134L50.9378 31.2535L52.6353 29.619L51.1443 28.0706ZM53.326 26.7927L54.034 28.8223L54.0474 28.8177L54.0606 28.8129L53.326 26.7927ZM60.2766 27.8525L58.8015 29.416L58.8094 29.4234L58.8173 29.4308L60.2766 27.8525ZM58.9363 41.7223L57.9405 39.8174L58.9363 41.7223ZM53.1079 41.7847L52.0517 43.6569L52.08 43.6728L52.1087 43.6879L53.1079 41.7847ZM50.8949 39.7899L52.6047 38.4872L51.1141 36.5308L49.375 38.2699L50.8949 39.7899ZM50.7702 39.9146L49.2503 38.3946L48.0893 39.5556L48.9039 40.981L50.7702 39.9146ZM51.0819 40.3509L49.4499 41.7498L51.0819 40.3509ZM51.3624 40.6938H53.512V39.9773L53.0821 39.4041L51.3624 40.6938ZM50.5209 42.0028L49.5314 40.0946L50.5209 42.0028ZM47.7781 42.4392H45.6285V44.5887H47.7781V42.4392ZM57.2221 38.4497L58.5327 40.1535L58.5418 40.1464L57.2221 38.4497ZM57.2221 30.3147L55.9024 32.0115L55.9223 32.027L55.9426 32.042L57.2221 30.3147ZM52.5468 30.3459L51.2757 28.6125L51.2616 28.6228L51.2477 28.6334L52.5468 30.3459ZM52.5468 38.4185L51.2477 40.131L51.2667 40.1455L51.2861 40.1595L52.5468 38.4185ZM49.9276 22.6785C49.9276 22.6096 49.9343 22.5683 49.9385 22.5487C49.9426 22.5302 49.9453 22.5272 49.9422 22.5333C49.939 22.5398 49.9359 22.5433 49.9374 22.5416C49.9395 22.5392 49.9533 22.5239 49.9883 22.499L47.5003 18.9931C46.2539 19.8776 45.6285 21.1938 45.6285 22.6785H49.9276ZM49.9621 22.5174C50.1084 22.4168 50.5843 22.2099 51.7053 22.2099V17.9108C50.2081 17.9108 48.71 18.1611 47.5265 18.9748L49.9621 22.5174ZM49.5557 20.0604V27.2914H53.8548V20.0604H49.5557ZM50.3773 25.6012C50.0287 25.8751 49.6939 26.1707 49.413 26.4867L52.6262 29.3429C52.6777 29.2848 52.8001 29.1649 53.0333 28.9816L50.3773 25.6012ZM49.3411 29.2576L49.4658 29.4134L52.8228 26.7278L52.6981 26.572L49.3411 29.2576ZM52.6353 29.619C52.9303 29.3348 53.3715 29.0534 54.034 28.8223L52.618 24.7631C51.4936 25.1554 50.4802 25.7259 49.6532 26.5223L52.6353 29.619ZM54.0606 28.8129C54.7992 28.5443 55.3889 28.4436 55.8507 28.4436V24.1445C54.7748 24.1445 53.6814 24.3763 52.5914 24.7726L54.0606 28.8129ZM55.8507 28.4436C57.2797 28.4436 58.1835 28.833 58.8015 29.416L61.7516 26.2889C60.1671 24.794 58.1203 24.1445 55.8507 24.1445V28.4436ZM58.8173 29.4308C59.4282 29.9956 59.7789 30.7381 59.7789 31.8732H64.078C64.078 29.6836 63.3274 27.7456 61.7358 26.2741L58.8173 29.4308ZM59.7789 31.8732V36.8289H64.078V31.8732H59.7789ZM59.7789 36.8289C59.7789 37.532 59.6091 38.0934 59.3028 38.5764L62.9334 40.8787C63.7076 39.6579 64.078 38.2868 64.078 36.8289H59.7789ZM59.3028 38.5764C58.9695 39.102 58.5281 39.5102 57.9405 39.8174L59.9321 43.6273C61.1731 42.9786 62.1862 42.057 62.9334 40.8787L59.3028 38.5764ZM57.9405 39.8174C57.3359 40.1334 56.7012 40.2897 56.0065 40.2897V44.5887C57.3897 44.5887 58.7082 44.2671 59.9321 43.6273L57.9405 39.8174ZM56.0065 40.2897C55.193 40.2897 54.5807 40.1302 54.107 39.8815L52.1087 43.6879C53.2973 44.3119 54.6174 44.5887 56.0065 44.5887V40.2897ZM54.164 39.9125C53.6493 39.6221 53.1239 39.1687 52.6047 38.4872L49.1851 41.0926C49.9957 42.1566 50.9457 43.0329 52.0517 43.6569L54.164 39.9125ZM49.375 38.2699L49.2503 38.3946L52.2902 41.4345L52.4149 41.3099L49.375 38.2699ZM48.9039 40.981C49.0632 41.2598 49.2491 41.5156 49.4499 41.7498L52.714 38.952C52.6654 38.8954 52.6435 38.8602 52.6366 38.8481L48.9039 40.981ZM49.4499 41.7498C49.5649 41.884 49.6226 41.9566 49.6428 41.9835L53.0821 39.4041C52.9776 39.2647 52.8483 39.1087 52.714 38.952L49.4499 41.7498ZM49.2129 40.6938C49.2129 40.6242 49.2349 40.4646 49.3439 40.295C49.4467 40.1351 49.551 40.0844 49.5314 40.0946L51.5104 43.9111C52.0518 43.6304 52.5769 43.216 52.9602 42.6198C53.3497 42.0138 53.512 41.3452 53.512 40.6938H49.2129ZM49.5314 40.0946C49.5354 40.0925 49.5046 40.1087 49.4242 40.1325C49.3448 40.156 49.2312 40.1827 49.0767 40.2073C48.7635 40.2571 48.3369 40.2897 47.7781 40.2897V44.5887C49.11 44.5887 50.4662 44.4525 51.5104 43.9111L49.5314 40.0946ZM49.9276 42.4392V22.6785H45.6285V42.4392H49.9276ZM54.8533 41.2226C56.1308 41.2226 57.4651 40.9746 58.5327 40.1534L55.9115 36.7459C55.8985 36.7559 55.6536 36.9235 54.8533 36.9235V41.2226ZM58.5418 40.1464C59.7187 39.231 60.2132 37.9164 60.2132 36.5484H55.9141C55.9141 36.723 55.8849 36.7832 55.8876 36.7771C55.8887 36.7747 55.893 36.7662 55.9006 36.7566C55.908 36.7472 55.9109 36.7463 55.9024 36.7529L58.5418 40.1464ZM60.2132 36.5484V32.1225H55.9141V36.5484H60.2132ZM60.2132 32.1225C60.2132 30.7541 59.6872 29.4657 58.5015 28.5875L55.9426 32.042C55.951 32.0482 55.9452 32.0452 55.9334 32.0309C55.9213 32.0163 55.9111 31.9997 55.9045 31.9855C55.8982 31.972 55.9 31.9712 55.9038 31.99C55.9078 32.0097 55.9141 32.0521 55.9141 32.1225H60.2132ZM58.5418 28.618C57.4707 27.785 56.1485 27.5107 54.8533 27.5107V31.8097C55.5943 31.8097 55.8514 31.9718 55.9024 32.0115L58.5418 28.618ZM54.8533 27.5107C53.5679 27.5107 52.3316 27.8382 51.2757 28.6125L53.818 32.0793C54.0088 31.9394 54.3101 31.8097 54.8533 31.8097V27.5107ZM51.2477 28.6334C50.2148 29.417 49.4934 30.5591 49.4934 31.9978H53.7925C53.7925 32.0059 53.7913 32.0277 53.7837 32.0579C53.7761 32.0883 53.765 32.1146 53.7546 32.1335C53.7332 32.1726 53.7374 32.1408 53.846 32.0584L51.2477 28.6334ZM49.4934 31.9978V36.7042H53.7925V31.9978H49.4934ZM49.4934 36.7042C49.4934 38.1383 50.1729 39.3157 51.2477 40.131L53.846 36.706C53.7983 36.6698 53.7747 36.6451 53.766 36.6353C53.758 36.6262 53.7622 36.6291 53.7703 36.6445C53.7742 36.6518 53.7781 36.6603 53.7817 36.6698C53.7852 36.6793 53.7879 36.6883 53.7898 36.6961C53.7938 36.7127 53.7925 36.7171 53.7925 36.7042H49.4934ZM51.2861 40.1595C52.3402 40.9228 53.5828 41.2226 54.8533 41.2226V36.9235C54.2537 36.9235 53.9586 36.7869 53.8076 36.6775L51.2861 40.1595ZM64.5624 47.8313L62.896 49.1891L62.9109 49.2073L62.9261 49.2252L64.5624 47.8313ZM63.8767 45.4002L64.2301 43.2799L61.7272 42.8628V45.4002H63.8767ZM67.3052 44.9327L65.8948 43.3106L65.8769 43.3262L65.8593 43.3421L67.3052 44.9327ZM68.8637 42.4392L70.8239 43.3213L70.8304 43.3069L70.8366 43.2924L68.8637 42.4392ZM69.3624 41.286L71.3353 42.1392L71.6946 41.3084L71.3514 40.4709L69.3624 41.286ZM63.3469 26.6057L62.2804 24.7394L60.6426 25.6753L61.3579 27.4208L63.3469 26.6057ZM64.0949 26.3875L63.7415 24.2673L63.7314 24.2689L63.7214 24.2707L64.0949 26.3875ZM66.6507 26.6992L65.6269 28.5893L65.6579 28.6061L65.6894 28.6218L66.6507 26.6992ZM67.6793 27.7589L69.6881 26.994L69.6787 26.9694L69.6688 26.9451L67.6793 27.7589ZM71.0143 36.5172L73.0356 37.2484L73.3071 36.498L73.0231 35.7523L71.0143 36.5172ZM70.4844 37.9821L68.463 37.251L67.7132 39.3242L69.8047 40.0214L70.4844 37.9821ZM70.7649 38.0756L70.0852 40.1149L72.0252 40.7615L72.7677 38.8562L70.7649 38.0756ZM74.7856 27.7589L72.7839 26.9757L72.7828 26.9784L74.7856 27.7589ZM75.783 26.6681L74.8217 24.7455L74.8051 24.7537L74.7887 24.7623L75.783 26.6681ZM78.3076 26.3875L77.9341 28.5044L77.9442 28.5061L77.9543 28.5078L78.3076 26.3875ZM79.118 26.6057L81.1057 27.4242L81.8664 25.5766L80.0793 24.6831L79.118 26.6057ZM72.1363 43.5613L74.1205 44.388L74.124 44.3797L72.1363 43.5613ZM69.7364 47.4261L68.2539 45.8696L68.2446 45.8785L68.2353 45.8875L69.7364 47.4261ZM66.4949 46.5233C66.34 46.5233 66.2751 46.4973 66.2622 46.4917C66.254 46.4881 66.2482 46.4847 66.2418 46.4799C66.235 46.4748 66.2203 46.4628 66.1988 46.4374L62.9261 49.2252C63.8562 50.3171 65.1255 50.8224 66.4949 50.8224V46.5233ZM66.2288 46.4735C66.2006 46.4389 66.0263 46.1879 66.0263 45.4002H61.7272C61.7272 46.732 62.01 48.1017 62.896 49.1891L66.2288 46.4735ZM63.5234 47.5205C64.21 47.6349 64.8571 47.7056 65.4352 47.7056V43.4065C65.1821 43.4065 64.7902 43.3732 64.2301 43.2799L63.5234 47.5205ZM65.4352 47.7056C66.6058 47.7056 67.7977 47.39 68.7512 46.5232L65.8593 43.3421C65.8593 43.3422 65.8594 43.342 65.8596 43.3419C65.8597 43.3418 65.859 43.3424 65.8571 43.3435C65.8537 43.3455 65.8412 43.3523 65.8151 43.361C65.7617 43.3788 65.644 43.4065 65.4352 43.4065V47.7056ZM68.7157 46.5547C69.5734 45.8089 70.2496 44.5974 70.8239 43.3213L66.9035 41.5571C66.6486 42.1235 66.423 42.5504 66.2305 42.8584C66.1352 43.0108 66.0555 43.1221 65.993 43.2003C65.9622 43.2388 65.9378 43.2664 65.9202 43.2851C65.9025 43.3039 65.8939 43.3114 65.8948 43.3106L68.7157 46.5547ZM70.8366 43.2924L71.3353 42.1392L67.3894 40.4328L66.8907 41.586L70.8366 43.2924ZM71.3514 40.4709L65.3359 25.7907L61.3579 27.4208L67.3733 42.101L71.3514 40.4709ZM64.4133 28.472C64.3758 28.4935 64.3441 28.5094 64.3201 28.5206C64.2961 28.5319 64.2772 28.5398 64.2647 28.5447C64.2408 28.5541 64.2325 28.556 64.2449 28.5524C64.2564 28.549 64.2806 28.5425 64.3196 28.5337C64.3583 28.5251 64.4075 28.5151 64.4685 28.5044L63.7214 24.2707C63.3379 24.3384 62.7711 24.459 62.2804 24.7394L64.4133 28.472ZM64.4483 28.5078C64.7709 28.4541 64.9403 28.4436 64.9988 28.4436V24.1445C64.6002 24.1445 64.167 24.1963 63.7415 24.2673L64.4483 28.5078ZM64.9988 28.4436C65.2669 28.4436 65.4623 28.5001 65.6269 28.5893L67.6745 24.8092C66.8418 24.3581 65.9359 24.1445 64.9988 24.1445V28.4436ZM65.6894 28.6218C65.7206 28.6374 65.7376 28.6488 65.7441 28.6534C65.7503 28.6579 65.7475 28.6566 65.7394 28.6483C65.7311 28.6398 65.7208 28.6274 65.7107 28.6119C65.7006 28.5964 65.6938 28.5826 65.6898 28.5728L69.6688 26.9451C69.2591 25.9435 68.5123 25.2267 67.612 24.7766L65.6894 28.6218ZM65.6704 28.5239L69.0054 37.2822L73.0231 35.7523L69.6881 26.994L65.6704 28.5239ZM68.9929 35.7861L68.463 37.251L72.5058 38.7133L73.0356 37.2484L68.9929 35.7861ZM69.8047 40.0214L70.0852 40.1149L71.4447 36.0364L71.1642 35.9429L69.8047 40.0214ZM72.7677 38.8562L76.7884 28.5395L72.7828 26.9784L68.7621 37.2951L72.7677 38.8562ZM76.7874 28.5422C76.7889 28.5384 76.7877 28.5423 76.7823 28.551C76.7768 28.5599 76.7697 28.5695 76.7617 28.5782C76.7537 28.5869 76.7485 28.5909 76.7486 28.5908C76.749 28.5905 76.7574 28.5842 76.7773 28.5738L74.7887 24.7623C73.8757 25.2387 73.1703 25.9883 72.7839 26.9757L76.7874 28.5422ZM76.7443 28.5907C76.9209 28.5024 77.1385 28.4436 77.4349 28.4436V24.1445C76.5262 24.1445 75.6426 24.335 74.8217 24.7455L76.7443 28.5907ZM77.4349 28.4436C77.4886 28.4436 77.6431 28.453 77.9341 28.5044L78.6812 24.2707C78.2657 24.1974 77.8384 24.1445 77.4349 24.1445V28.4436ZM77.9543 28.5078C78.0946 28.5312 78.1835 28.5514 78.2319 28.5645C78.255 28.5707 78.2601 28.5729 78.2509 28.5696C78.2429 28.5668 78.2086 28.5543 78.1567 28.5283L80.0793 24.6831C79.611 24.449 79.0744 24.3361 78.661 24.2673L77.9543 28.5078ZM77.1304 25.7873L70.1487 42.7428L74.124 44.3797L81.1057 27.4242L77.1304 25.7873ZM70.1521 42.7345C69.4814 44.3443 68.8227 45.3279 68.2539 45.8696L71.2188 48.9827C72.3955 47.8621 73.3368 46.269 74.1205 44.388L70.1521 42.7345ZM68.2353 45.8875C67.8267 46.2862 67.3043 46.5233 66.4949 46.5233V50.8224C68.3035 50.8224 69.9422 50.2284 71.2374 48.9647L68.2353 45.8875ZM90.7397 41.6288L89.2613 43.1893L89.3034 43.2291L89.3475 43.2666L90.7397 41.6288ZM90.7397 20.9019L92.173 22.5038L92.1958 22.4834L92.218 22.4624L90.7397 20.9019ZM104.049 21.4006L103.087 23.3233L103.098 23.3288L104.049 21.4006ZM107.352 24.3928L105.507 25.4943L105.517 25.5119L105.528 25.5293L107.352 24.3928ZM107.352 38.0756L105.52 36.9524V36.9524L107.352 38.0756ZM104.017 41.099L104.979 43.0216L104.99 43.016L104.017 41.099ZM102.958 37.3588L104.365 38.9832L104.376 38.9743L104.386 38.9654L102.958 37.3588ZM102.958 25.1408L101.55 26.7652V26.7652L102.958 25.1408ZM94.324 23.9252V21.7757H92.1745V23.9252H94.324ZM94.324 38.5743H92.1745V40.7239H94.324V38.5743ZM92.2357 40.0092C92.1992 40.0092 92.1752 40.0064 92.1617 40.0042C92.1485 40.002 92.143 40 92.143 40C92.1427 39.9999 92.1431 40 92.1437 40.0003C92.1444 40.0006 92.1448 40.0009 92.1448 40.0009C92.1447 40.0009 92.1438 40.0003 92.1419 39.9989C92.1399 39.9976 92.1366 39.9951 92.1318 39.991L89.3475 43.2666C90.1789 43.9733 91.1807 44.3082 92.2357 44.3082V40.0092ZM92.218 40.0684C92.2122 40.0629 92.242 40.0909 92.2689 40.1533C92.296 40.216 92.297 40.2596 92.297 40.2574H87.9979C87.9979 41.3924 88.4413 42.4124 89.2613 43.1893L92.218 40.0684ZM92.297 40.2574V22.2422H87.9979V40.2574H92.297ZM92.297 22.2422C92.297 22.2393 92.2962 22.2926 92.2617 22.3707C92.2267 22.4498 92.1837 22.4942 92.173 22.5038L89.3064 19.3C88.4456 20.0702 87.9979 21.1042 87.9979 22.2422H92.297ZM92.218 22.4624C92.217 22.4634 92.2103 22.4693 92.1983 22.4769C92.1862 22.4845 92.1741 22.4902 92.1645 22.4938C92.1552 22.4973 92.1537 22.4968 92.1631 22.4952C92.173 22.4935 92.1963 22.4904 92.2357 22.4904V18.1914C91.1478 18.1914 90.1 18.547 89.2613 19.3415L92.218 22.4624ZM92.2357 22.4904H99.1551V18.1914H92.2357V22.4904ZM99.1551 22.4904C100.727 22.4904 102.02 22.7895 103.087 23.3232L105.01 19.478C103.251 18.5988 101.281 18.1914 99.1551 18.1914V22.4904ZM103.098 23.3288C104.186 23.8645 104.964 24.5859 105.507 25.4943L109.198 23.2912C108.203 21.6231 106.779 20.3497 104.999 19.4725L103.098 23.3288ZM105.528 25.5293C106.084 26.4224 106.387 27.4753 106.387 28.7563H110.686C110.686 26.7543 110.2 24.8981 109.177 23.2562L105.528 25.5293ZM106.387 28.7563V33.6809H110.686V28.7563H106.387ZM106.387 33.6809C106.387 34.9615 106.084 36.0312 105.52 36.9524L109.185 39.1989C110.2 37.5436 110.686 35.6834 110.686 33.6809H106.387ZM105.52 36.9524C104.951 37.8797 104.148 38.6226 103.045 39.182L104.99 43.016C106.755 42.1208 108.174 40.8482 109.185 39.1989L105.52 36.9524ZM103.056 39.1764C101.985 39.7117 100.703 40.0092 99.1551 40.0092V44.3082C101.265 44.3082 103.223 43.8992 104.979 43.0216L103.056 39.1764ZM99.1551 40.0092H92.2357V44.3082H99.1551V40.0092ZM98.8434 40.7239C100.935 40.7239 102.893 40.2588 104.365 38.9832L101.55 35.7344C101.152 36.0795 100.367 36.4248 98.8434 36.4248V40.7239ZM104.386 38.9654C105.901 37.6188 106.51 35.7431 106.51 33.7121H102.211C102.211 34.881 101.885 35.4365 101.53 35.7522L104.386 38.9654ZM106.51 33.7121V28.694H102.211V33.7121H106.51ZM106.51 28.694C106.51 26.6866 105.889 24.8369 104.365 23.5164L101.55 26.7652C101.896 27.0654 102.211 27.5845 102.211 28.694H106.51ZM104.365 23.5164C102.893 22.2408 100.935 21.7757 98.8434 21.7757V26.0748C100.367 26.0748 101.152 26.4201 101.55 26.7652L104.365 23.5164ZM98.8434 21.7757H94.324V26.0748H98.8434V21.7757ZM92.1745 23.9252V38.5743H96.4735V23.9252H92.1745ZM94.324 40.7239H98.8434V36.4248H94.324V40.7239ZM113.712 41.7223L112.811 43.674L112.834 43.6844L112.856 43.6942L113.712 41.7223ZM111.125 29.255L109.349 28.0441L109.339 28.058L109.33 28.0721L111.125 29.255ZM113.681 27.1044L114.612 29.0417L114.627 29.0345L114.642 29.027L113.681 27.1044ZM121.099 27.1044L120.137 29.027L120.159 29.038L120.182 29.0485L121.099 27.1044ZM123.655 29.255L121.86 30.4379L121.869 30.452L121.879 30.4659L123.655 29.255ZM123.623 39.6652L121.894 38.3887L121.884 38.4022L121.874 38.4158L123.623 39.6652ZM121.036 41.7223L121.906 43.6882L121.915 43.6844L121.923 43.6805L121.036 41.7223ZM119.821 38.3873L118.485 36.7032L118.471 36.7146L118.456 36.7263L119.821 38.3873ZM119.821 30.4394L118.358 32.0146L118.387 32.0416L118.417 32.0675L119.821 30.4394ZM114.959 30.4394L116.362 32.0675L116.378 32.0539L116.394 32.0399L114.959 30.4394ZM117.39 40.2897C116.297 40.2897 115.367 40.0974 114.568 39.7505L112.856 43.6942C114.259 44.3031 115.782 44.5887 117.39 44.5887V40.2897ZM114.613 39.7706C113.833 39.4109 113.288 38.9524 112.905 38.4158L109.407 40.9146C110.27 42.1235 111.43 43.0364 112.811 43.674L114.613 39.7706ZM112.905 38.4158C112.55 37.918 112.371 37.3704 112.371 36.7042H108.072C108.072 38.2407 108.516 39.667 109.407 40.9146L112.905 38.4158ZM112.371 36.7042V32.3095H108.072V36.7042H112.371ZM112.371 32.3095C112.371 31.597 112.555 30.992 112.92 30.4379L109.33 28.0721C108.49 29.3466 108.072 30.778 108.072 32.3095H112.371ZM112.901 30.4659C113.294 29.8896 113.843 29.4116 114.612 29.0417L112.749 25.1671C111.358 25.8362 110.203 26.7919 109.349 28.0441L112.901 30.4659ZM114.642 29.027C115.382 28.6572 116.28 28.4436 117.39 28.4436V24.1445C115.715 24.1445 114.141 24.4711 112.719 25.1818L114.642 29.027ZM117.39 28.4436C118.499 28.4436 119.398 28.6572 120.137 29.027L122.06 25.1818C120.639 24.4711 119.065 24.1445 117.39 24.1445V28.4436ZM120.182 29.0485C120.967 29.419 121.498 29.8892 121.86 30.4379L125.449 28.0721C124.606 26.7923 123.433 25.8287 122.016 25.1603L120.182 29.0485ZM121.879 30.4659C122.255 31.018 122.44 31.613 122.44 32.3095H126.739C126.739 30.7619 126.301 29.3206 125.431 28.0441L121.879 30.4659ZM122.44 32.3095V36.7042H126.739V32.3095H122.44ZM122.44 36.7042C122.44 37.3536 122.261 37.8917 121.894 38.3887L125.353 40.9417C126.274 39.6933 126.739 38.2574 126.739 36.7042H122.44ZM121.874 38.4158C121.498 38.9428 120.951 39.4014 120.15 39.7642L121.923 43.6805C123.325 43.0459 124.502 42.1331 125.373 40.9146L121.874 38.4158ZM120.167 39.7565C119.397 40.0971 118.484 40.2897 117.39 40.2897V44.5887C118.997 44.5887 120.515 44.3034 121.906 43.6882L120.167 39.7565ZM117.39 41.2537C118.739 41.2537 120.095 40.9436 121.185 40.0483L118.456 36.7263C118.383 36.7869 118.119 36.9547 117.39 36.9547V41.2537ZM121.157 40.0715C122.304 39.1612 122.874 37.8807 122.874 36.4549H118.575C118.575 36.5242 118.569 36.5694 118.563 36.5955C118.558 36.6207 118.553 36.6322 118.552 36.6351C118.55 36.6377 118.548 36.6416 118.542 36.6493C118.536 36.6574 118.519 36.6761 118.485 36.7032L121.157 40.0715ZM122.874 36.4549V32.4965H118.575V36.4549H122.874ZM122.874 32.4965C122.874 31.0695 122.337 29.7708 121.224 28.8113L118.417 32.0675C118.51 32.1469 118.575 32.2197 118.575 32.4965H122.874ZM121.284 28.8643C120.194 27.8523 118.799 27.4795 117.39 27.4795V31.7786C118.058 31.7786 118.284 31.946 118.358 32.0146L121.284 28.8643ZM117.39 27.4795C115.984 27.4795 114.615 27.8608 113.524 28.8389L116.394 32.0399C116.508 31.9376 116.759 31.7786 117.39 31.7786V27.4795ZM113.555 28.8113C112.442 29.7708 111.905 31.0695 111.905 32.4965H116.204C116.204 32.2197 116.27 32.1469 116.362 32.0675L113.555 28.8113ZM111.905 32.4965V36.4549H116.204V32.4965H111.905ZM111.905 36.4549C111.905 37.8807 112.475 39.1612 113.623 40.0715L116.294 36.7032C116.26 36.6761 116.244 36.6574 116.237 36.6493C116.231 36.6417 116.229 36.6377 116.228 36.6351C116.226 36.6322 116.221 36.6207 116.216 36.5955C116.211 36.5694 116.204 36.5242 116.204 36.4549H111.905ZM113.623 40.0715C114.713 40.9359 116.044 41.2537 117.39 41.2537V36.9547C116.699 36.9547 116.41 36.7946 116.294 36.7032L113.623 40.0715ZM130.034 48.143L130.779 46.1267L130.76 46.1196L130.74 46.1128L130.034 48.143ZM127.79 46.7716L129.365 45.3089L127.79 46.7716ZM127.696 43.3431L126.613 41.4864L126.596 41.4965L126.579 41.507L127.696 43.3431ZM129.785 42.9067L131.924 42.698L131.735 40.7572H129.785V42.9067ZM130.782 44.8703L132.146 43.2093L132.128 43.1945L132.11 43.1801L130.782 44.8703ZM135.893 44.6833L134.265 43.2798L134.251 43.2962L134.237 43.3128L135.893 44.6833ZM136.673 41.1301L135.402 39.3967L134.523 40.0409V41.1301H136.673ZM137.358 40.4756L139.119 41.7083L140.042 40.3897L139.037 39.1328L137.358 40.4756ZM137.234 40.3198L138.912 38.977L137.412 37.1016L135.714 38.7998L137.234 40.3198ZM135.052 41.6288L134.317 39.6087L134.31 39.6114L134.302 39.6142L135.052 41.6288ZM129.41 41.4418L128.415 43.3468L128.432 43.3558L128.449 43.3644L129.41 41.4418ZM127.229 39.4471L125.393 40.5661L125.403 40.5823L125.413 40.5982L127.229 39.4471ZM127.26 29.068L125.452 27.9056L125.445 27.9168L127.26 29.068ZM129.442 27.0421L130.455 28.9375L130.463 28.9334L130.471 28.9291L129.442 27.0421ZM135.27 26.9797L134.193 28.84L134.204 28.846L134.214 28.8519L135.27 26.9797ZM137.483 28.9433L135.789 30.2659L137.284 32.1821L139.003 30.4633L137.483 28.9433ZM137.608 28.8187L139.128 30.3386L140.274 29.1921L139.487 27.7748L137.608 28.8187ZM137.016 28.0083H134.866V28.7795L135.356 29.3748L137.016 28.0083ZM140.6 26.294H142.749V24.1445H140.6V26.294ZM139.665 45.2755L137.812 44.1857L139.665 45.2755ZM137.047 47.769L136.03 45.8753L136.022 45.8792L136.015 45.8833L137.047 47.769ZM135.831 38.1068L137.102 39.8402L137.121 39.8267L137.139 39.8127L135.831 38.1068ZM135.831 30.3147L134.532 32.0273L134.546 32.0378L134.56 32.0481L135.831 30.3147ZM131.156 30.2836L129.836 28.5868L129.821 28.599L129.805 28.6114L131.156 30.2836ZM131.156 38.138L129.767 39.7789L129.786 39.7948L129.805 39.8102L131.156 38.138ZM133.307 46.5233C132.285 46.5233 131.453 46.376 130.779 46.1267L129.289 50.1593C130.526 50.6165 131.876 50.8224 133.307 50.8224V46.5233ZM130.74 46.1128C130.027 45.8648 129.609 45.5724 129.365 45.3089L126.215 48.2342C127.05 49.1345 128.129 49.7563 129.328 50.1732L130.74 46.1128ZM129.365 45.3089C129.144 45.0716 129.129 44.9347 129.129 44.8392H124.83C124.83 46.1566 125.354 47.308 126.215 48.2343L129.365 45.3089ZM129.129 44.8392C129.129 44.7211 129.15 44.7547 129.097 44.8641C129.07 44.9204 129.03 44.9839 128.974 45.0451C128.919 45.1062 128.862 45.1502 128.814 45.1792L126.579 41.507C125.288 42.2928 124.83 43.609 124.83 44.8392H129.129ZM128.779 45.1998C128.816 45.1781 129.081 45.0563 129.785 45.0563V40.7572C128.701 40.7572 127.573 40.9262 126.613 41.4864L128.779 45.1998ZM127.645 43.1154C127.775 44.4514 128.337 45.6834 129.454 46.5606L132.11 43.1801C132.063 43.143 131.96 43.0659 131.924 42.698L127.645 43.1154ZM129.417 46.5313C130.527 47.4426 131.931 47.7367 133.307 47.7367V43.4377C132.479 43.4377 132.2 43.2539 132.146 43.2093L129.417 46.5313ZM133.307 47.7367C134.809 47.7367 136.457 47.3743 137.549 46.0538L134.237 43.3128C134.277 43.2649 134.288 43.2886 134.164 43.332C134.023 43.381 133.755 43.4377 133.307 43.4377V47.7367ZM137.522 46.0868C138.475 44.9804 138.822 43.5918 138.822 42.1899H134.523C134.523 42.9074 134.351 43.1811 134.265 43.2798L137.522 46.0868ZM138.822 42.1899V41.1301H134.523V42.1899H138.822ZM137.944 42.8635C138.357 42.5609 138.788 42.1817 139.119 41.7083L135.597 39.2429C135.623 39.2063 135.629 39.2063 135.594 39.2402C135.559 39.273 135.498 39.3257 135.402 39.3967L137.944 42.8635ZM139.037 39.1328L138.912 38.977L135.555 41.6626L135.68 41.8184L139.037 39.1328ZM135.714 38.7998C135.448 39.0659 135.014 39.3552 134.317 39.6087L135.787 43.649C136.918 43.2375 137.939 42.6541 138.754 41.8397L135.714 38.7998ZM134.302 39.6142C133.6 39.8754 133.014 39.978 132.527 39.978V44.2771C133.62 44.2771 134.717 44.0471 135.802 43.6434L134.302 39.6142ZM132.527 39.978C131.651 39.978 130.949 39.8077 130.372 39.5192L128.449 43.3644C129.701 43.9903 131.076 44.2771 132.527 44.2771V39.978ZM130.406 39.5368C129.819 39.2297 129.377 38.8214 129.044 38.2959L125.413 40.5982C126.161 41.7765 127.174 42.6981 128.415 43.3468L130.406 39.5368ZM129.064 38.328C128.767 37.841 128.599 37.268 128.599 36.5484H124.3C124.3 37.9898 124.651 39.3493 125.393 40.5661L129.064 38.328ZM128.599 36.5484V31.9043H124.3V36.5484H128.599ZM128.599 31.9043C128.599 31.2602 128.76 30.7162 129.075 30.2192L125.445 27.9168C124.679 29.1237 124.3 30.4706 124.3 31.9043H128.599ZM129.068 30.2304C129.436 29.658 129.893 29.2385 130.455 28.9375L128.428 25.1466C127.203 25.8015 126.206 26.7326 125.452 27.9056L129.068 30.2304ZM130.471 28.9291C131.07 28.6022 131.693 28.4436 132.371 28.4436V24.1445C130.972 24.1445 129.642 24.4845 128.412 25.155L130.471 28.9291ZM132.371 28.4436C133.23 28.4436 133.804 28.6146 134.193 28.84L136.347 25.1195C135.157 24.4306 133.798 24.1445 132.371 24.1445V28.4436ZM134.214 28.8519C134.741 29.1491 135.27 29.6018 135.789 30.2659L139.178 27.6208C138.366 26.581 137.42 25.7246 136.326 25.1075L134.214 28.8519ZM139.003 30.4633L139.128 30.3386L136.088 27.2987L135.963 27.4234L139.003 30.4633ZM139.487 27.7748C139.282 27.4057 138.977 27.0089 138.675 26.6418L135.356 29.3748C135.484 29.5301 135.579 29.6521 135.646 29.7441C135.718 29.8425 135.737 29.8772 135.729 29.8626L139.487 27.7748ZM139.165 28.0083C139.165 28.1189 139.129 28.3072 139.003 28.4874C138.89 28.6494 138.788 28.6864 138.839 28.6618C138.897 28.6342 139.056 28.5739 139.37 28.5239C139.678 28.4749 140.083 28.4436 140.6 28.4436V24.1445C139.302 24.1445 138.019 24.2887 136.984 24.7834C136.438 25.0445 135.888 25.4387 135.476 26.0292C135.052 26.638 134.866 27.3263 134.866 28.0083H139.165ZM138.45 26.294V41.6288H142.749V26.294H138.45ZM138.45 41.6288C138.45 42.6623 138.219 43.4933 137.812 44.1857L141.518 46.3654C142.357 44.9383 142.749 43.3381 142.749 41.6288H138.45ZM137.812 44.1857C137.396 44.8934 136.818 45.452 136.03 45.8753L138.064 49.6627C139.52 48.8808 140.687 47.7771 141.518 46.3654L137.812 44.1857ZM136.015 45.8833C135.263 46.2945 134.378 46.5233 133.307 46.5233V50.8224C135.019 50.8224 136.627 50.4487 138.079 49.6547L136.015 45.8833ZM133.525 40.9421C134.81 40.9421 136.046 40.6145 137.102 39.8402L134.56 36.3734C134.369 36.5134 134.068 36.643 133.525 36.643V40.9421ZM137.139 39.8127C138.163 39.0274 138.916 37.8845 138.916 36.4237H134.617C134.617 36.4095 134.619 36.3842 134.627 36.353C134.635 36.3218 134.646 36.2978 134.653 36.2837C134.669 36.2559 134.652 36.3021 134.523 36.4009L137.139 39.8127ZM138.916 36.4237V31.9978H134.617V36.4237H138.916ZM138.916 31.9978C138.916 30.5305 138.175 29.3684 137.102 28.5813L134.56 32.0481C134.616 32.0892 134.645 32.1181 134.657 32.131C134.668 32.1432 134.664 32.1407 134.653 32.1223C134.643 32.103 134.632 32.0772 134.624 32.0483C134.617 32.0197 134.617 32.0011 134.617 31.9978H138.916ZM137.13 28.6022C136.073 27.8001 134.816 27.4795 133.525 27.4795V31.7786C134.104 31.7786 134.384 31.9151 134.532 32.0273L137.13 28.6022ZM133.525 27.4795C132.229 27.4795 130.907 27.7538 129.836 28.5868L132.476 31.9803C132.527 31.9406 132.784 31.7786 133.525 31.7786V27.4795ZM129.805 28.6114C128.672 29.5264 128.196 30.8151 128.196 32.1537H132.495C132.495 31.9868 132.523 31.9281 132.52 31.933C132.52 31.9348 132.516 31.9425 132.509 31.9516C132.502 31.9606 132.499 31.9618 132.507 31.9558L129.805 28.6114ZM128.196 32.1537V36.2679H132.495V32.1537H128.196ZM128.196 36.2679C128.196 37.6075 128.685 38.863 129.767 39.7789L132.544 36.4971C132.535 36.4893 132.529 36.4835 132.526 36.48C132.523 36.4765 132.521 36.4746 132.521 36.4742C132.521 36.4739 132.521 36.4741 132.521 36.4746C132.521 36.4751 132.521 36.4747 132.52 36.4729C132.52 36.4712 132.495 36.4159 132.495 36.2679H128.196ZM129.805 39.8102C130.877 40.6759 132.228 40.9421 133.525 40.9421V36.643C132.743 36.643 132.515 36.4727 132.507 36.4658L129.805 39.8102ZM147.417 41.6912L146.471 43.6213L146.486 43.6288L146.501 43.6361L147.417 41.6912ZM144.892 39.6029L143.129 40.8328L143.136 40.8426L143.143 40.8523L144.892 39.6029ZM144.923 29.3174L143.153 28.0979L144.923 29.3174ZM147.479 27.1044L146.518 25.1818L146.51 25.1856L146.503 25.1894L147.479 27.1044ZM154.336 27.0732L153.359 28.988L153.382 28.9998L153.406 29.0111L154.336 27.0732ZM156.798 29.1927L155.004 30.3756L155.01 30.3851L155.016 30.3946L156.798 29.1927ZM157.172 35.177L155.75 33.5652L155.726 33.5867L155.702 33.6088L157.172 35.177ZM147.728 35.6445V33.495H145.579V35.6445H147.728ZM148.539 38.512L146.99 40.003V40.003L148.539 38.512ZM153.276 38.6678L151.856 37.0542L151.84 37.0686L151.824 37.0833L153.276 38.6678ZM154.056 36.8913L153.818 34.7549L151.906 34.9673V36.8913H154.056ZM156.643 37.3588L155.29 39.0295L155.315 39.0494L155.34 39.0686L156.643 37.3588ZM156.456 40.5379L157.975 42.0579L156.456 40.5379ZM154.149 41.9093L154.88 43.9307L154.149 41.9093ZM154.18 32.8705V35.0201H156.33V32.8705H154.18ZM153.276 30.1589L154.711 28.5584L153.276 30.1589ZM148.601 30.1589L150.033 31.7623L150.036 31.7594L148.601 30.1589ZM147.728 32.8705H145.579V35.0201H147.728V32.8705ZM150.939 40.2897C149.935 40.2897 149.078 40.0972 148.332 39.7462L146.501 43.6361C147.875 44.2825 149.366 44.5887 150.939 44.5887V40.2897ZM148.363 39.7611C147.59 39.3823 147.037 38.9079 146.641 38.3535L143.143 40.8523C143.994 42.0433 145.124 42.9611 146.471 43.6213L148.363 39.7611ZM146.655 38.373C146.286 37.8444 146.107 37.2773 146.107 36.6107H141.808C141.808 38.1468 142.251 39.5744 143.129 40.8328L146.655 38.373ZM146.107 36.6107V32.4654H141.808V36.6107H146.107ZM146.107 32.4654C146.107 31.7258 146.303 31.1038 146.693 30.5368L143.153 28.0979C142.255 29.401 141.808 30.8777 141.808 32.4654H146.107ZM146.693 30.5368C147.125 29.9102 147.698 29.4054 148.455 29.0194L146.503 25.1894C145.14 25.8839 144.01 26.8545 143.153 28.0979L146.693 30.5368ZM148.44 29.027C149.213 28.6409 150.046 28.4436 150.97 28.4436V24.1445C149.401 24.1445 147.906 24.4875 146.518 25.1818L148.44 29.027ZM150.97 28.4436C151.881 28.4436 152.665 28.6339 153.359 28.988L155.313 25.1585C153.971 24.4736 152.51 24.1445 150.97 24.1445V28.4436ZM153.406 29.0111C154.113 29.3504 154.627 29.8041 155.004 30.3756L158.593 28.0098C157.765 26.7528 156.637 25.7935 155.266 25.1354L153.406 29.0111ZM155.016 30.3946C155.36 30.9044 155.553 31.5072 155.553 32.2783H159.852C159.852 30.7222 159.442 29.2679 158.581 27.9908L155.016 30.3946ZM155.553 32.2783V34.0238H159.852V32.2783H155.553ZM155.553 34.0238C155.553 33.9679 155.565 33.8689 155.617 33.7575C155.667 33.6477 155.728 33.5852 155.75 33.5652L158.595 36.7888C159.394 36.0833 159.852 35.1188 159.852 34.0238H155.553ZM155.702 33.6088C155.722 33.5906 155.747 33.5705 155.778 33.5517C155.808 33.5329 155.838 33.5188 155.865 33.509C155.92 33.4887 155.938 33.495 155.895 33.495V37.7941C156.878 37.7941 157.855 37.4831 158.643 36.7452L155.702 33.6088ZM155.895 33.495H147.728V37.7941H155.895V33.495ZM145.579 35.6445V36.3302H149.878V35.6445H145.579ZM145.579 36.3302C145.579 37.6915 146.007 38.9821 146.99 40.003L150.087 37.021C149.99 36.9199 149.878 36.756 149.878 36.3302H145.579ZM146.99 40.003C148.073 41.1267 149.537 41.5031 150.97 41.5031V37.204C150.61 37.204 150.384 37.1565 150.255 37.1119C150.137 37.0711 150.099 37.0334 150.087 37.021L146.99 40.003ZM150.97 41.5031C152.268 41.5031 153.668 41.2252 154.729 40.2524L151.824 37.0833C151.888 37.0248 151.749 37.204 150.97 37.204V41.5031ZM154.696 40.2815C155.706 39.3932 156.205 38.2004 156.205 36.8913H151.906C151.906 36.9947 151.889 37.0256 151.892 37.0175C151.893 37.0159 151.894 37.0154 151.892 37.0182C151.889 37.0213 151.88 37.0337 151.856 37.0542L154.696 40.2815ZM154.293 39.0276C154.467 39.0083 154.602 38.9952 154.702 38.9872C154.812 38.9784 154.847 38.9785 154.835 38.9785V34.6794C154.555 34.6794 154.186 34.714 153.818 34.7549L154.293 39.0276ZM154.835 38.9785C155.292 38.9785 155.356 39.0833 155.29 39.0295L157.995 35.6881C157.056 34.9278 155.915 34.6794 154.835 34.6794V38.9785ZM155.34 39.0686C155.319 39.0528 155.289 39.0258 155.257 38.986C155.224 38.9459 155.198 38.9022 155.178 38.8592C155.138 38.7706 155.148 38.7321 155.148 38.7925H159.447C159.447 37.6026 158.993 36.4473 157.945 35.649L155.34 39.0686ZM155.148 38.7925C155.148 38.7477 155.161 38.7262 155.15 38.7473C155.136 38.7775 155.083 38.8706 154.936 39.018L157.975 42.0579C158.807 41.2262 159.447 40.1286 159.447 38.7925H155.148ZM154.936 39.018C154.655 39.2983 154.186 39.6102 153.418 39.888L154.88 43.9307C156.066 43.502 157.134 42.8996 157.975 42.0579L154.936 39.018ZM153.418 39.888C152.702 40.1468 151.883 40.2897 150.939 40.2897V44.5887C152.322 44.5887 153.643 44.3783 154.88 43.9307L153.418 39.888ZM156.33 32.8705V32.2783H152.031V32.8705H156.33ZM156.33 32.2783C156.33 30.8487 155.807 29.541 154.711 28.5584L151.841 31.7594C151.951 31.8573 152.031 31.9626 152.031 32.2783H156.33ZM154.711 28.5584C153.645 27.6023 152.323 27.199 150.939 27.199V31.4981C151.466 31.4981 151.703 31.635 151.841 31.7594L154.711 28.5584ZM150.939 27.199C149.555 27.199 148.233 27.6023 147.166 28.5584L150.036 31.7594C150.175 31.635 150.411 31.4981 150.939 31.4981V27.199ZM147.169 28.5555C146.062 29.5441 145.579 30.8711 145.579 32.2783H149.878C149.878 31.8986 149.976 31.8126 150.033 31.7623L147.169 28.5555ZM145.579 32.2783V32.8705H149.878V32.2783H145.579ZM147.728 35.0201H154.18V30.721H147.728V35.0201Z" fill="black" mask="url(#path-1-outside-1_321_554)"/>
</g>
<g filter="url(#filter1_d_321_554)">
<mask id="path-3-outside-2_321_554" maskUnits="userSpaceOnUse" x="169.152" y="13.5601" width="37" height="39" fill="black">
<rect fill="white" x="169.152" y="13.5601" width="37" height="39"/>
<path d="M183.725 49.9857C181.518 49.9857 179.516 49.5758 177.719 48.7561C175.953 47.9049 174.55 46.7227 173.51 45.2094C172.47 43.6961 171.949 41.9464 171.949 39.9602C171.949 38.0371 172.438 36.3347 173.415 34.8529C174.424 33.3397 175.953 31.9052 178.002 30.5496C176.899 29.5407 176.079 28.5319 175.543 27.523C175.039 26.4826 174.787 25.3792 174.787 24.2127C174.787 21.7537 175.543 19.7832 177.057 18.3015C178.601 16.7882 180.682 16.0316 183.299 16.0316C184.97 16.0316 186.452 16.3784 187.744 17.072C189.037 17.7655 190.046 18.7429 190.771 20.0039C191.496 21.2335 191.858 22.6364 191.858 24.2127C191.858 25.6314 191.48 26.9082 190.723 28.0432C189.967 29.1466 188.721 30.3919 186.988 31.7791L194.317 38.7307C194.885 37.911 195.311 37.0283 195.594 36.0825C195.878 35.1051 196.02 34.1593 196.02 33.2451C196.02 32.6776 195.973 32.1416 195.878 31.6372C199.85 31.6372 201.837 32.9613 201.837 35.6096C201.837 36.6815 201.553 37.7534 200.985 38.8253C200.449 39.8656 199.582 41.0952 198.384 42.5139L203.444 47.3374C203.129 48.1571 202.609 48.7877 201.884 49.229C201.159 49.6704 200.355 49.8911 199.472 49.8911C198.369 49.8911 197.391 49.5443 196.54 48.8507L194.27 46.77C192.631 47.9049 190.991 48.7246 189.352 49.229C187.713 49.7335 185.837 49.9857 183.725 49.9857ZM183.299 27.9959C184.119 27.3969 184.702 26.7979 185.049 26.1989C185.427 25.5684 185.616 24.9063 185.616 24.2127C185.616 23.3615 185.411 22.6837 185.001 22.1793C184.623 21.6433 184.056 21.3753 183.299 21.3753C182.574 21.3753 182.006 21.6433 181.596 22.1793C181.218 22.7152 181.029 23.393 181.029 24.2127C181.029 24.9378 181.187 25.5841 181.502 26.1516C181.849 26.6876 182.448 27.3023 183.299 27.9959ZM184.008 44.4528C186.373 44.4528 188.469 43.8222 190.298 42.5612L181.928 34.5692C180.761 35.2628 179.847 36.0825 179.185 37.0283C178.554 37.9425 178.239 38.9199 178.239 39.9602C178.239 41.4104 178.759 42.5296 179.799 43.3178C180.871 44.0744 182.274 44.4528 184.008 44.4528Z"/>
</mask>
<path d="M183.725 49.9857C181.518 49.9857 179.516 49.5758 177.719 48.7561C175.953 47.9049 174.55 46.7227 173.51 45.2094C172.47 43.6961 171.949 41.9464 171.949 39.9602C171.949 38.0371 172.438 36.3347 173.415 34.8529C174.424 33.3397 175.953 31.9052 178.002 30.5496C176.899 29.5407 176.079 28.5319 175.543 27.523C175.039 26.4826 174.787 25.3792 174.787 24.2127C174.787 21.7537 175.543 19.7832 177.057 18.3015C178.601 16.7882 180.682 16.0316 183.299 16.0316C184.97 16.0316 186.452 16.3784 187.744 17.072C189.037 17.7655 190.046 18.7429 190.771 20.0039C191.496 21.2335 191.858 22.6364 191.858 24.2127C191.858 25.6314 191.48 26.9082 190.723 28.0432C189.967 29.1466 188.721 30.3919 186.988 31.7791L194.317 38.7307C194.885 37.911 195.311 37.0283 195.594 36.0825C195.878 35.1051 196.02 34.1593 196.02 33.2451C196.02 32.6776 195.973 32.1416 195.878 31.6372C199.85 31.6372 201.837 32.9613 201.837 35.6096C201.837 36.6815 201.553 37.7534 200.985 38.8253C200.449 39.8656 199.582 41.0952 198.384 42.5139L203.444 47.3374C203.129 48.1571 202.609 48.7877 201.884 49.229C201.159 49.6704 200.355 49.8911 199.472 49.8911C198.369 49.8911 197.391 49.5443 196.54 48.8507L194.27 46.77C192.631 47.9049 190.991 48.7246 189.352 49.229C187.713 49.7335 185.837 49.9857 183.725 49.9857ZM183.299 27.9959C184.119 27.3969 184.702 26.7979 185.049 26.1989C185.427 25.5684 185.616 24.9063 185.616 24.2127C185.616 23.3615 185.411 22.6837 185.001 22.1793C184.623 21.6433 184.056 21.3753 183.299 21.3753C182.574 21.3753 182.006 21.6433 181.596 22.1793C181.218 22.7152 181.029 23.393 181.029 24.2127C181.029 24.9378 181.187 25.5841 181.502 26.1516C181.849 26.6876 182.448 27.3023 183.299 27.9959ZM184.008 44.4528C186.373 44.4528 188.469 43.8222 190.298 42.5612L181.928 34.5692C180.761 35.2628 179.847 36.0825 179.185 37.0283C178.554 37.9425 178.239 38.9199 178.239 39.9602C178.239 41.4104 178.759 42.5296 179.799 43.3178C180.871 44.0744 182.274 44.4528 184.008 44.4528Z" fill="white"/>
<path d="M177.719 48.7561L176.785 50.6924L176.806 50.7023L176.827 50.7118L177.719 48.7561ZM173.51 45.2094L175.281 43.9916L173.51 45.2094ZM173.415 34.8529L171.627 33.6606L171.621 33.6694L173.415 34.8529ZM178.002 30.5496L179.188 32.3423L181.486 30.8222L179.453 28.9631L178.002 30.5496ZM175.543 27.523L173.609 28.4608L173.626 28.4965L173.645 28.5315L175.543 27.523ZM177.057 18.3015L178.561 19.8374L178.561 19.837L177.057 18.3015ZM187.744 17.072L186.728 18.966V18.966L187.744 17.072ZM190.771 20.0039L188.907 21.0754L188.913 21.0857L188.919 21.0959L190.771 20.0039ZM190.723 28.0432L192.496 29.2588L192.504 29.2472L192.512 29.2355L190.723 28.0432ZM186.988 31.7791L185.645 30.1006L183.719 31.6414L185.508 33.3388L186.988 31.7791ZM194.317 38.7307L192.838 40.2904L194.658 42.0158L196.085 39.9542L194.317 38.7307ZM195.594 36.0825L197.653 36.7001L197.656 36.691L197.659 36.6818L195.594 36.0825ZM195.878 31.6372V29.4877H193.288L193.765 32.0334L195.878 31.6372ZM200.985 38.8253L199.086 37.8195L199.08 37.8302L199.074 37.8409L200.985 38.8253ZM198.384 42.5139L196.742 41.127L195.436 42.6733L196.901 44.0697L198.384 42.5139ZM203.444 47.3374L205.451 48.1091L205.965 46.7709L204.928 45.7816L203.444 47.3374ZM201.884 49.229L203.001 51.0652L201.884 49.229ZM196.54 48.8507L195.088 50.4352L195.134 50.4776L195.182 50.5171L196.54 48.8507ZM194.27 46.77L195.723 45.1854L194.458 44.0258L193.047 45.0026L194.27 46.77ZM189.352 49.229L189.984 51.2835L189.352 49.229ZM183.299 27.9959L181.941 29.6623L183.227 30.7104L184.567 29.7314L183.299 27.9959ZM185.049 26.1989L183.205 25.093L183.197 25.1074L183.188 25.1219L185.049 26.1989ZM185.001 22.1793L183.245 23.4189L183.287 23.4783L183.333 23.5347L185.001 22.1793ZM181.596 22.1793L179.889 20.8735L179.864 20.9061L179.84 20.9397L181.596 22.1793ZM181.502 26.1516L179.623 27.1955L179.658 27.2587L179.697 27.3193L181.502 26.1516ZM190.298 42.5612L191.518 44.3307L193.693 42.8309L191.782 41.0065L190.298 42.5612ZM181.928 34.5692L183.412 33.0145L182.232 31.8876L180.829 32.7216L181.928 34.5692ZM179.185 37.0283L177.424 35.7956L177.419 35.8017L177.415 35.8079L179.185 37.0283ZM179.799 43.3178L178.501 45.0312L178.53 45.053L178.56 45.0739L179.799 43.3178ZM183.725 47.8361C181.789 47.8361 180.097 47.4781 178.611 46.8004L176.827 50.7118C178.935 51.6735 181.246 52.1352 183.725 52.1352V47.8361ZM178.652 46.8199C177.2 46.1199 176.095 45.1758 175.281 43.9916L171.739 46.4272C173.005 48.2695 174.706 49.69 176.785 50.6924L178.652 46.8199ZM175.281 43.9916C174.507 42.8662 174.099 41.5488 174.099 39.9602H169.8C169.8 42.344 170.432 44.5261 171.739 46.4272L175.281 43.9916ZM174.099 39.9602C174.099 38.4212 174.483 37.1375 175.21 36.0365L171.621 33.6694C170.393 35.5318 169.8 37.653 169.8 39.9602H174.099ZM175.204 36.0453C176.009 34.8381 177.299 33.5922 179.188 32.3423L176.816 28.7568C174.607 30.2182 172.84 31.8412 171.627 33.6606L175.204 36.0453ZM179.453 28.9631C178.478 28.0716 177.833 27.2513 177.442 26.5145L173.645 28.5315C174.326 29.8124 175.32 31.0098 176.552 32.136L179.453 28.9631ZM177.478 26.5852C177.116 25.8398 176.936 25.0573 176.936 24.2127H172.637C172.637 25.7011 172.962 27.1254 173.609 28.4608L177.478 26.5852ZM176.936 24.2127C176.936 22.2306 177.527 20.8492 178.561 19.8374L175.553 16.7656C173.56 18.7173 172.637 21.2767 172.637 24.2127H176.936ZM178.561 19.837C179.622 18.7973 181.119 18.1811 183.299 18.1811V13.882C180.245 13.882 177.581 14.7791 175.552 16.766L178.561 19.837ZM183.299 18.1811C184.665 18.1811 185.789 18.4622 186.728 18.966L188.76 15.1779C187.114 14.2945 185.275 13.882 183.299 13.882V18.1811ZM186.728 18.966C187.67 19.4716 188.384 20.1653 188.907 21.0754L192.634 18.9325C191.707 17.3204 190.404 16.0595 188.76 15.1779L186.728 18.966ZM188.919 21.0959C189.429 21.9608 189.709 22.9793 189.709 24.2127H194.008C194.008 22.2935 193.562 20.5061 192.622 18.912L188.919 21.0959ZM189.709 24.2127C189.709 25.225 189.446 26.0837 188.935 26.8509L192.512 29.2355C193.514 27.7328 194.008 26.0378 194.008 24.2127H189.709ZM188.951 26.8276C188.367 27.6793 187.307 28.7708 185.645 30.1006L188.33 33.4576C190.136 32.0131 191.567 30.614 192.496 29.2588L188.951 26.8276ZM185.508 33.3388L192.838 40.2904L195.797 37.171L188.467 30.2194L185.508 33.3388ZM196.085 39.9542C196.779 38.9509 197.304 37.864 197.653 36.7001L193.535 35.4648C193.317 36.1925 192.99 36.8711 192.55 37.5072L196.085 39.9542ZM197.659 36.6818C197.993 35.5314 198.169 34.3836 198.169 33.2451H193.87C193.87 33.9351 193.763 34.6788 193.53 35.4832L197.659 36.6818ZM198.169 33.2451C198.169 32.5585 198.112 31.889 197.991 31.2411L193.765 32.0334C193.833 32.3943 193.87 32.7967 193.87 33.2451H198.169ZM195.878 33.7868C197.693 33.7868 198.679 34.1016 199.155 34.4188C199.477 34.6335 199.687 34.9116 199.687 35.6096H203.986C203.986 33.6593 203.203 31.9512 201.539 30.8418C200.029 29.8349 198.035 29.4877 195.878 29.4877V33.7868ZM199.687 35.6096C199.687 36.287 199.511 37.0163 199.086 37.8195L202.885 39.831C203.595 38.4905 203.986 37.0759 203.986 35.6096H199.687ZM199.074 37.8409C198.643 38.679 197.889 39.769 196.742 41.127L200.027 43.9007C201.276 42.4214 202.256 41.0522 202.896 39.8097L199.074 37.8409ZM196.901 44.0697L201.961 48.8933L204.928 45.7816L199.868 40.958L196.901 44.0697ZM201.438 46.5658C201.287 46.9587 201.071 47.2075 200.766 47.3929L203.001 51.0652C204.147 50.3678 204.971 49.3555 205.451 48.1091L201.438 46.5658ZM200.766 47.3929C200.392 47.6209 199.977 47.7416 199.472 47.7416V52.0406C200.733 52.0406 201.926 51.7199 203.001 51.0652L200.766 47.3929ZM199.472 47.7416C198.861 47.7416 198.363 47.5637 197.898 47.1843L195.182 50.5171C196.419 51.5249 197.877 52.0406 199.472 52.0406V47.7416ZM197.993 47.2662L195.723 45.1854L192.818 48.3545L195.088 50.4352L197.993 47.2662ZM193.047 45.0026C191.56 46.032 190.118 46.7445 188.72 47.1745L189.984 51.2835C191.865 50.7047 193.702 49.7778 195.494 48.5373L193.047 45.0026ZM188.72 47.1745C187.326 47.6034 185.67 47.8361 183.725 47.8361V52.1352C186.004 52.1352 188.099 51.8636 189.984 51.2835L188.72 47.1745ZM184.567 29.7314C185.525 29.0317 186.36 28.2244 186.909 27.2759L183.188 25.1219C183.044 25.3714 182.712 25.7621 182.031 26.2604L184.567 29.7314ZM186.892 27.3048C187.458 26.3612 187.766 25.3196 187.766 24.2127H183.467C183.467 24.493 183.396 24.7756 183.205 25.093L186.892 27.3048ZM187.766 24.2127C187.766 23.0221 187.476 21.8161 186.67 20.8238L183.333 23.5347C183.347 23.5513 183.467 23.7009 183.467 24.2127H187.766ZM186.757 20.9397C185.91 19.7393 184.631 19.2258 183.299 19.2258V23.5249C183.424 23.5249 183.43 23.5466 183.374 23.52C183.347 23.5073 183.317 23.4886 183.29 23.4654C183.263 23.4425 183.249 23.424 183.245 23.4189L186.757 20.9397ZM183.299 19.2258C181.962 19.2258 180.739 19.7614 179.889 20.8735L183.304 23.485C183.313 23.4732 183.312 23.4768 183.299 23.4876C183.293 23.4927 183.285 23.4986 183.275 23.5045C183.266 23.5105 183.257 23.5157 183.247 23.52C183.228 23.5292 183.217 23.5312 183.221 23.5304C183.226 23.5294 183.25 23.5249 183.299 23.5249V19.2258ZM179.84 20.9397C179.148 21.9199 178.879 23.0608 178.879 24.2127H183.179C183.179 23.7253 183.288 23.5105 183.353 23.4189L179.84 20.9397ZM178.879 24.2127C178.879 25.2596 179.11 26.2727 179.623 27.1955L183.381 25.1077C183.263 24.8956 183.179 24.6161 183.179 24.2127H178.879ZM179.697 27.3193C180.223 28.132 181.022 28.9134 181.941 29.6623L184.657 26.3295C183.873 25.6912 183.474 25.2431 183.307 24.9839L179.697 27.3193ZM184.008 46.6023C186.779 46.6023 189.307 45.8556 191.518 44.3307L189.077 40.7916C187.631 41.7889 185.966 42.3032 184.008 42.3032V46.6023ZM191.782 41.0065L183.412 33.0145L180.443 36.1239L188.813 44.1158L191.782 41.0065ZM180.829 32.7216C179.446 33.5438 178.288 34.5602 177.424 35.7956L180.946 38.2609C181.405 37.6047 182.076 36.9817 183.026 36.4168L180.829 32.7216ZM177.415 35.8079C176.555 37.0555 176.089 38.4539 176.089 39.9602H180.388C180.388 39.3858 180.554 38.8296 180.954 38.2486L177.415 35.8079ZM176.089 39.9602C176.089 41.9975 176.86 43.7875 178.501 45.0312L181.097 41.6044C180.658 41.2718 180.388 40.8234 180.388 39.9602H176.089ZM178.56 45.0739C180.095 46.1574 181.972 46.6023 184.008 46.6023V42.3032C182.577 42.3032 181.648 41.9915 181.039 41.5617L178.56 45.0739Z" fill="black" mask="url(#path-3-outside-2_321_554)"/>
</g>
<g filter="url(#filter2_d_321_554)">
<mask id="path-5-outside-3_321_554" maskUnits="userSpaceOnUse" x="213.756" y="14.1719" width="120" height="39" fill="black">
<rect fill="white" x="213.756" y="14.1719" width="120" height="39"/>
<path d="M217.397 20.5657C217.397 19.7898 217.681 19.1481 218.248 18.6408C218.815 18.1036 219.531 17.835 220.397 17.835H232.842C234.991 17.835 236.886 18.2677 238.527 19.1332C240.198 19.9688 241.482 21.1776 242.377 22.7593C243.302 24.3112 243.765 26.1169 243.765 28.1761C243.765 30.2653 243.317 32.1007 242.422 33.6825C241.527 35.2344 240.258 36.4431 238.617 37.3086C236.975 38.1443 235.05 38.5621 232.842 38.5621H223.396V45.1428C223.396 46.5754 222.874 47.6796 221.829 48.4556C220.814 49.2017 219.337 49.5748 217.397 49.5748V20.5657ZM232.842 33.3691C234.424 33.3691 235.647 32.9065 236.513 31.9813C237.378 31.0561 237.811 29.7728 237.811 28.1314C237.811 26.5198 237.363 25.2663 236.468 24.3709C235.602 23.4756 234.394 23.0279 232.842 23.0279H223.396V33.3691H232.842ZM248.087 20.5657C248.087 19.8196 248.371 19.178 248.938 18.6408C249.534 18.1036 250.251 17.835 251.086 17.835H271.053C271.053 19.6256 270.739 20.9388 270.112 21.7744C269.516 22.5803 268.531 22.9832 267.158 22.9832H254.086V30.7726H265.994C265.994 32.5633 265.68 33.8765 265.054 34.7121C264.457 35.5179 263.472 35.9208 262.099 35.9208H254.086V44.0237H268.098C269.441 44.0237 270.411 44.4415 271.008 45.2771C271.634 46.0829 271.948 47.3812 271.948 49.1719H251.086C250.251 49.1719 249.534 48.9182 248.938 48.4108C248.371 47.8736 248.087 47.217 248.087 46.4411V20.5657ZM276.285 20.5657C276.285 19.7898 276.569 19.1481 277.136 18.6408C277.703 18.1036 278.419 17.835 279.284 17.835H291.73C293.878 17.835 295.774 18.2677 297.415 19.1332C299.086 19.9688 300.37 21.1776 301.265 22.7593C302.19 24.3112 302.653 26.1169 302.653 28.1761C302.653 30.2653 302.205 32.1007 301.31 33.6825C300.414 35.2344 299.146 36.4431 297.505 37.3086C295.863 38.1443 293.938 38.5621 291.73 38.5621H282.284V45.1428C282.284 46.5754 281.762 47.6796 280.717 48.4556C279.702 49.2017 278.225 49.5748 276.285 49.5748V20.5657ZM291.73 33.3691C293.311 33.3691 294.535 32.9065 295.401 31.9813C296.266 31.0561 296.699 29.7728 296.699 28.1314C296.699 26.5198 296.251 25.2663 295.356 24.3709C294.49 23.4756 293.282 23.0279 291.73 23.0279H282.284V33.3691H291.73ZM306.975 20.5657C306.975 19.8196 307.258 19.178 307.825 18.6408C308.422 18.1036 309.139 17.835 309.974 17.835H329.94C329.94 19.6256 329.627 20.9388 329 21.7744C328.403 22.5803 327.419 22.9832 326.046 22.9832H312.974V30.7726H324.882C324.882 32.5633 324.568 33.8765 323.942 34.7121C323.345 35.5179 322.36 35.9208 320.987 35.9208H312.974V44.0237H326.986C328.329 44.0237 329.299 44.4415 329.896 45.2771C330.522 46.0829 330.836 47.3812 330.836 49.1719H309.974C309.139 49.1719 308.422 48.9182 307.825 48.4108C307.258 47.8736 306.975 47.217 306.975 46.4411V20.5657Z"/>
</mask>
<path d="M217.397 20.5657C217.397 19.7898 217.681 19.1481 218.248 18.6408C218.815 18.1036 219.531 17.835 220.397 17.835H232.842C234.991 17.835 236.886 18.2677 238.527 19.1332C240.198 19.9688 241.482 21.1776 242.377 22.7593C243.302 24.3112 243.765 26.1169 243.765 28.1761C243.765 30.2653 243.317 32.1007 242.422 33.6825C241.527 35.2344 240.258 36.4431 238.617 37.3086C236.975 38.1443 235.05 38.5621 232.842 38.5621H223.396V45.1428C223.396 46.5754 222.874 47.6796 221.829 48.4556C220.814 49.2017 219.337 49.5748 217.397 49.5748V20.5657ZM232.842 33.3691C234.424 33.3691 235.647 32.9065 236.513 31.9813C237.378 31.0561 237.811 29.7728 237.811 28.1314C237.811 26.5198 237.363 25.2663 236.468 24.3709C235.602 23.4756 234.394 23.0279 232.842 23.0279H223.396V33.3691H232.842ZM248.087 20.5657C248.087 19.8196 248.371 19.178 248.938 18.6408C249.534 18.1036 250.251 17.835 251.086 17.835H271.053C271.053 19.6256 270.739 20.9388 270.112 21.7744C269.516 22.5803 268.531 22.9832 267.158 22.9832H254.086V30.7726H265.994C265.994 32.5633 265.68 33.8765 265.054 34.7121C264.457 35.5179 263.472 35.9208 262.099 35.9208H254.086V44.0237H268.098C269.441 44.0237 270.411 44.4415 271.008 45.2771C271.634 46.0829 271.948 47.3812 271.948 49.1719H251.086C250.251 49.1719 249.534 48.9182 248.938 48.4108C248.371 47.8736 248.087 47.217 248.087 46.4411V20.5657ZM276.285 20.5657C276.285 19.7898 276.569 19.1481 277.136 18.6408C277.703 18.1036 278.419 17.835 279.284 17.835H291.73C293.878 17.835 295.774 18.2677 297.415 19.1332C299.086 19.9688 300.37 21.1776 301.265 22.7593C302.19 24.3112 302.653 26.1169 302.653 28.1761C302.653 30.2653 302.205 32.1007 301.31 33.6825C300.414 35.2344 299.146 36.4431 297.505 37.3086C295.863 38.1443 293.938 38.5621 291.73 38.5621H282.284V45.1428C282.284 46.5754 281.762 47.6796 280.717 48.4556C279.702 49.2017 278.225 49.5748 276.285 49.5748V20.5657ZM291.73 33.3691C293.311 33.3691 294.535 32.9065 295.401 31.9813C296.266 31.0561 296.699 29.7728 296.699 28.1314C296.699 26.5198 296.251 25.2663 295.356 24.3709C294.49 23.4756 293.282 23.0279 291.73 23.0279H282.284V33.3691H291.73ZM306.975 20.5657C306.975 19.8196 307.258 19.178 307.825 18.6408C308.422 18.1036 309.139 17.835 309.974 17.835H329.94C329.94 19.6256 329.627 20.9388 329 21.7744C328.403 22.5803 327.419 22.9832 326.046 22.9832H312.974V30.7726H324.882C324.882 32.5633 324.568 33.8765 323.942 34.7121C323.345 35.5179 322.36 35.9208 320.987 35.9208H312.974V44.0237H326.986C328.329 44.0237 329.299 44.4415 329.896 45.2771C330.522 46.0829 330.836 47.3812 330.836 49.1719H309.974C309.139 49.1719 308.422 48.9182 307.825 48.4108C307.258 47.8736 306.975 47.217 306.975 46.4411V20.5657Z" fill="#00FF2F"/>
<path d="M218.248 18.6408L220.039 20.6432L220.068 20.6176L220.096 20.5913L218.248 18.6408ZM238.527 19.1332L237.274 21.51L237.3 21.5235L237.326 21.5365L238.527 19.1332ZM242.377 22.7593L240.039 24.0829L240.054 24.1092L240.069 24.1352L242.377 22.7593ZM242.422 33.6825L244.749 35.0252L244.755 35.0156L244.76 35.0061L242.422 33.6825ZM238.617 37.3086L239.836 39.7031L239.853 39.6944L239.87 39.6854L238.617 37.3086ZM223.396 38.5621V35.8752H220.709V38.5621H223.396ZM221.829 48.4556L223.421 50.6203L223.431 50.6125L221.829 48.4556ZM217.397 49.5748H214.71V52.2617H217.397V49.5748ZM236.513 31.9813L238.475 33.8169V33.8169L236.513 31.9813ZM236.468 24.3709L234.536 26.2384L234.552 26.2548L234.568 26.2709L236.468 24.3709ZM223.396 23.0279V20.341H220.709V23.0279H223.396ZM223.396 33.3691H220.709V36.056H223.396V33.3691ZM220.084 20.5657C220.084 20.5358 220.087 20.5274 220.085 20.5359C220.083 20.5451 220.078 20.5642 220.067 20.5885C220.057 20.6129 220.045 20.6324 220.035 20.6451C220.026 20.6573 220.025 20.6561 220.039 20.6432L216.456 16.6384C215.307 17.6668 214.71 19.0426 214.71 20.5657H220.084ZM220.096 20.5913C220.124 20.5644 220.139 20.5578 220.154 20.5522C220.173 20.5449 220.244 20.5219 220.397 20.5219V15.148C218.924 15.148 217.522 15.6274 216.4 16.6902L220.096 20.5913ZM220.397 20.5219H232.842V15.148H220.397V20.5219ZM232.842 20.5219C234.623 20.5219 236.076 20.8782 237.274 21.51L239.78 16.7564C237.696 15.6572 235.358 15.148 232.842 15.148V20.5219ZM237.326 21.5365C238.533 22.1403 239.414 22.9797 240.039 24.0829L244.715 21.4358C243.549 19.3754 241.864 17.7974 239.729 16.7299L237.326 21.5365ZM240.069 24.1352C240.713 25.2155 241.078 26.5322 241.078 28.1761H246.452C246.452 25.7015 245.891 23.407 244.685 21.3834L240.069 24.1352ZM241.078 28.1761C241.078 29.8715 240.718 31.2378 240.084 32.3589L244.76 35.0061C245.916 32.9636 246.452 30.659 246.452 28.1761H241.078ZM240.095 32.3398C239.462 33.4364 238.573 34.2939 237.363 34.9318L239.87 39.6854C241.943 38.5923 243.591 37.0325 244.749 35.0252L240.095 32.3398ZM237.398 34.9141C236.202 35.5229 234.71 35.8752 232.842 35.8752V41.249C235.39 41.249 237.749 40.7656 239.836 39.7031L237.398 34.9141ZM232.842 35.8752H223.396V41.249H232.842V35.8752ZM220.709 38.5621V45.1428H226.083V38.5621H220.709ZM220.709 45.1428C220.709 45.8245 220.513 46.086 220.227 46.2987L223.431 50.6125C225.234 49.2733 226.083 47.3263 226.083 45.1428H220.709ZM220.237 46.2909C219.873 46.5588 219.055 46.8879 217.397 46.8879V52.2617C219.619 52.2617 221.756 51.8446 223.421 50.6203L220.237 46.2909ZM220.084 49.5748V20.5657H214.71V49.5748H220.084ZM232.842 36.056C234.97 36.056 236.981 35.4143 238.475 33.8169L234.55 30.1457C234.314 30.3988 233.877 30.6822 232.842 30.6822V36.056ZM238.475 33.8169C239.931 32.2603 240.498 30.2463 240.498 28.1314H235.124C235.124 29.2994 234.825 29.852 234.55 30.1457L238.475 33.8169ZM240.498 28.1314C240.498 26.0112 239.895 23.9982 238.368 22.471L234.568 26.2709C234.831 26.5343 235.124 27.0283 235.124 28.1314H240.498ZM238.4 22.5035C236.909 20.9616 234.931 20.341 232.842 20.341V25.7148C233.856 25.7148 234.296 25.9896 234.536 26.2384L238.4 22.5035ZM232.842 20.341H223.396V25.7148H232.842V20.341ZM220.709 23.0279V33.3691H226.083V23.0279H220.709ZM223.396 36.056H232.842V30.6822H223.396V36.056ZM248.938 18.6408L247.14 16.6436L247.115 16.6666L247.09 16.6902L248.938 18.6408ZM271.053 17.835H273.739V15.148H271.053V17.835ZM270.112 21.7744L267.963 20.1623L267.958 20.1687L267.953 20.1751L270.112 21.7744ZM254.086 22.9832V20.2962H251.399V22.9832H254.086ZM254.086 30.7726H251.399V33.4595H254.086V30.7726ZM265.994 30.7726H268.681V28.0857H265.994V30.7726ZM265.054 34.7121L262.904 33.1L262.899 33.1064L262.895 33.1128L265.054 34.7121ZM254.086 35.9208V33.2339H251.399V35.9208H254.086ZM254.086 44.0237H251.399V46.7106H254.086V44.0237ZM271.008 45.2771L268.821 46.8389L268.853 46.8835L268.887 46.9268L271.008 45.2771ZM271.948 49.1719V51.8588H274.635V49.1719H271.948ZM248.938 48.4108L247.09 50.3614L247.142 50.4112L247.197 50.4581L248.938 48.4108ZM250.774 20.5657C250.774 20.5502 250.775 20.5509 250.773 20.5636C250.771 20.5695 250.77 20.5771 250.767 20.5857C250.764 20.5943 250.761 20.6028 250.757 20.6109C250.754 20.6189 250.75 20.6253 250.748 20.6299C250.745 20.6344 250.744 20.6363 250.744 20.6354C250.745 20.6339 250.757 20.6186 250.786 20.5913L247.09 16.6902C246.015 17.7081 245.4 19.0438 245.4 20.5657H250.774ZM250.735 20.6379C250.817 20.5642 250.885 20.5219 251.086 20.5219V15.148C249.617 15.148 248.252 15.6429 247.14 16.6436L250.735 20.6379ZM251.086 20.5219H271.053V15.148H251.086V20.5219ZM268.366 17.835C268.366 19.4176 268.069 20.0211 267.963 20.1623L272.262 23.3866C273.409 21.8565 273.739 19.8337 273.739 17.835H268.366ZM267.953 20.1751C267.953 20.1757 267.957 20.1713 267.961 20.1683C267.964 20.166 267.951 20.1769 267.909 20.1941C267.818 20.2312 267.592 20.2962 267.158 20.2962V25.6701C269.044 25.6701 270.996 25.0962 272.271 23.3738L267.953 20.1751ZM267.158 20.2962H254.086V25.6701H267.158V20.2962ZM251.399 22.9832V30.7726H256.773V22.9832H251.399ZM254.086 33.4595H265.994V28.0857H254.086V33.4595ZM263.307 30.7726C263.307 32.3553 263.01 32.9587 262.904 33.1L267.203 36.3243C268.351 34.7942 268.681 32.7713 268.681 30.7726H263.307ZM262.895 33.1128C262.894 33.1134 262.898 33.109 262.902 33.106C262.905 33.1036 262.892 33.1146 262.85 33.1318C262.759 33.1689 262.533 33.2339 262.099 33.2339V38.6078C263.985 38.6078 265.937 38.0339 267.213 36.3115L262.895 33.1128ZM262.099 33.2339H254.086V38.6078H262.099V33.2339ZM251.399 35.9208V44.0237H256.773V35.9208H251.399ZM254.086 46.7106H268.098V41.3367H254.086V46.7106ZM268.098 46.7106C268.499 46.7106 268.698 46.774 268.77 46.8047C268.818 46.8256 268.816 46.8316 268.821 46.8389L273.194 43.7154C271.943 41.9641 270.014 41.3367 268.098 41.3367V46.7106ZM268.887 46.9268C268.959 47.0195 269.261 47.576 269.261 49.1719H274.635C274.635 47.1864 274.31 45.1464 273.129 43.6275L268.887 46.9268ZM271.948 46.485H251.086V51.8588H271.948V46.485ZM251.086 46.485C250.842 46.485 250.755 46.4291 250.678 46.3636L247.197 50.4581C248.314 51.4072 249.659 51.8588 251.086 51.8588V46.485ZM250.786 46.4603C250.761 46.4374 250.753 46.4256 250.754 46.4264C250.754 46.4266 250.756 46.429 250.758 46.4335C250.761 46.4381 250.764 46.4438 250.766 46.4503C250.769 46.4568 250.772 46.4631 250.773 46.4686C250.775 46.4741 250.776 46.4777 250.776 46.479C250.777 46.4821 250.774 46.4708 250.774 46.4411H245.4C245.4 47.9604 245.991 49.3206 247.09 50.3614L250.786 46.4603ZM250.774 46.4411V20.5657H245.4V46.4411H250.774ZM277.136 18.6408L278.927 20.6432L278.956 20.6176L278.983 20.5913L277.136 18.6408ZM297.415 19.1332L296.162 21.51L296.187 21.5235L296.213 21.5365L297.415 19.1332ZM301.265 22.7593L298.927 24.0829L298.942 24.1092L298.957 24.1352L301.265 22.7593ZM301.31 33.6825L303.637 35.0252L303.643 35.0156L303.648 35.0061L301.31 33.6825ZM297.505 37.3086L298.724 39.7031L298.741 39.6944L298.758 39.6854L297.505 37.3086ZM282.284 38.5621V35.8752H279.597V38.5621H282.284ZM280.717 48.4556L282.309 50.6203L282.319 50.6125L280.717 48.4556ZM276.285 49.5748H273.598V52.2617H276.285V49.5748ZM295.401 31.9813L297.363 33.8169L297.363 33.8169L295.401 31.9813ZM295.356 24.3709L293.424 26.2384L293.44 26.2548L293.456 26.2709L295.356 24.3709ZM282.284 23.0279V20.341H279.597V23.0279H282.284ZM282.284 33.3691H279.597V36.056H282.284V33.3691ZM278.972 20.5657C278.972 20.5358 278.975 20.5274 278.973 20.5359C278.971 20.5451 278.966 20.5642 278.955 20.5885C278.945 20.6129 278.932 20.6324 278.923 20.6451C278.914 20.6573 278.913 20.6561 278.927 20.6432L275.344 16.6384C274.194 17.6668 273.598 19.0426 273.598 20.5657H278.972ZM278.983 20.5913C279.012 20.5644 279.027 20.5578 279.042 20.5522C279.061 20.5449 279.132 20.5219 279.284 20.5219V15.148C277.812 15.148 276.409 15.6274 275.288 16.6902L278.983 20.5913ZM279.284 20.5219H291.73V15.148H279.284V20.5219ZM291.73 20.5219C293.511 20.5219 294.964 20.8782 296.162 21.51L298.668 16.7564C296.583 15.6572 294.246 15.148 291.73 15.148V20.5219ZM296.213 21.5365C297.421 22.1403 298.302 22.9797 298.927 24.0829L303.603 21.4358C302.437 19.3754 300.752 17.7974 298.617 16.7299L296.213 21.5365ZM298.957 24.1352C299.601 25.2155 299.966 26.5322 299.966 28.1761H305.34C305.34 25.7015 304.779 23.407 303.573 21.3834L298.957 24.1352ZM299.966 28.1761C299.966 29.8715 299.606 31.2378 298.971 32.3589L303.648 35.0061C304.804 32.9636 305.34 30.659 305.34 28.1761H299.966ZM298.982 32.3398C298.35 33.4364 297.461 34.2939 296.251 34.9318L298.758 39.6854C300.831 38.5923 302.479 37.0325 303.637 35.0252L298.982 32.3398ZM296.286 34.9141C295.09 35.5229 293.598 35.8752 291.73 35.8752V41.249C294.278 41.249 296.636 40.7656 298.724 39.7031L296.286 34.9141ZM291.73 35.8752H282.284V41.249H291.73V35.8752ZM279.597 38.5621V45.1428H284.971V38.5621H279.597ZM279.597 45.1428C279.597 45.8245 279.401 46.086 279.115 46.2987L282.319 50.6125C284.122 49.2733 284.971 47.3263 284.971 45.1428H279.597ZM279.125 46.2909C278.761 46.5588 277.943 46.8879 276.285 46.8879V52.2617C278.507 52.2617 280.644 51.8446 282.309 50.6203L279.125 46.2909ZM278.972 49.5748V20.5657H273.598V49.5748H278.972ZM291.73 36.056C293.858 36.056 295.868 35.4143 297.363 33.8169L293.438 30.1457C293.202 30.3988 292.765 30.6822 291.73 30.6822V36.056ZM297.363 33.8169C298.819 32.2603 299.386 30.2463 299.386 28.1314H294.012C294.012 29.2994 293.713 29.852 293.438 30.1457L297.363 33.8169ZM299.386 28.1314C299.386 26.0112 298.783 23.9982 297.256 22.471L293.456 26.2709C293.719 26.5343 294.012 27.0283 294.012 28.1314H299.386ZM297.288 22.5035C295.797 20.9616 293.819 20.341 291.73 20.341V25.7148C292.744 25.7148 293.183 25.9896 293.424 26.2384L297.288 22.5035ZM291.73 20.341H282.284V25.7148H291.73V20.341ZM279.597 23.0279V33.3691H284.971V23.0279H279.597ZM282.284 36.056H291.73V30.6822H282.284V36.056ZM307.825 18.6408L306.028 16.6436L306.002 16.6666L305.978 16.6902L307.825 18.6408ZM329.94 17.835H332.627V15.148H329.94V17.835ZM329 21.7744L326.851 20.1623L326.846 20.1687L326.841 20.1751L329 21.7744ZM312.974 22.9832V20.2962H310.287V22.9832H312.974ZM312.974 30.7726H310.287V33.4595H312.974V30.7726ZM324.882 30.7726H327.569V28.0857H324.882V30.7726ZM323.942 34.7121L321.792 33.1L321.787 33.1064L321.783 33.1128L323.942 34.7121ZM312.974 35.9208V33.2339H310.287V35.9208H312.974ZM312.974 44.0237H310.287V46.7106H312.974V44.0237ZM329.896 45.2771L327.709 46.8389L327.741 46.8835L327.775 46.9268L329.896 45.2771ZM330.836 49.1719V51.8588H333.523V49.1719H330.836ZM307.825 48.4108L305.978 50.3614L306.03 50.4112L306.085 50.4581L307.825 48.4108ZM309.662 20.5657C309.662 20.5502 309.663 20.5509 309.661 20.5636C309.659 20.5695 309.658 20.5771 309.655 20.5857C309.652 20.5943 309.649 20.6028 309.645 20.6109C309.642 20.6189 309.638 20.6253 309.636 20.6299C309.633 20.6344 309.632 20.6363 309.632 20.6354C309.633 20.6339 309.645 20.6186 309.673 20.5913L305.978 16.6902C304.903 17.7081 304.288 19.0438 304.288 20.5657H309.662ZM309.623 20.6379C309.705 20.5642 309.773 20.5219 309.974 20.5219V15.148C308.504 15.148 307.14 15.6429 306.028 16.6436L309.623 20.6379ZM309.974 20.5219H329.94V15.148H309.974V20.5219ZM327.253 17.835C327.253 19.4176 326.957 20.0211 326.851 20.1623L331.15 23.3866C332.297 21.8565 332.627 19.8337 332.627 17.835H327.253ZM326.841 20.1751C326.841 20.1757 326.845 20.1713 326.848 20.1683C326.852 20.166 326.839 20.1769 326.797 20.1941C326.706 20.2312 326.48 20.2962 326.046 20.2962V25.6701C327.932 25.6701 329.883 25.0962 331.159 23.3738L326.841 20.1751ZM326.046 20.2962H312.974V25.6701H326.046V20.2962ZM310.287 22.9832V30.7726H315.661V22.9832H310.287ZM312.974 33.4595H324.882V28.0857H312.974V33.4595ZM322.195 30.7726C322.195 32.3553 321.898 32.9587 321.792 33.1L326.091 36.3243C327.239 34.7942 327.569 32.7713 327.569 30.7726H322.195ZM321.783 33.1128C321.782 33.1134 321.786 33.109 321.79 33.106C321.793 33.1036 321.78 33.1146 321.738 33.1318C321.647 33.1689 321.421 33.2339 320.987 33.2339V38.6078C322.873 38.6078 324.825 38.0339 326.101 36.3115L321.783 33.1128ZM320.987 33.2339H312.974V38.6078H320.987V33.2339ZM310.287 35.9208V44.0237H315.661V35.9208H310.287ZM312.974 46.7106H326.986V41.3367H312.974V46.7106ZM326.986 46.7106C327.387 46.7106 327.586 46.774 327.657 46.8047C327.706 46.8256 327.704 46.8316 327.709 46.8389L332.082 43.7154C330.831 41.9641 328.902 41.3367 326.986 41.3367V46.7106ZM327.775 46.9268C327.847 47.0195 328.149 47.576 328.149 49.1719H333.523C333.523 47.1864 333.198 45.1464 332.017 43.6275L327.775 46.9268ZM330.836 46.485H309.974V51.8588H330.836V46.485ZM309.974 46.485C309.73 46.485 309.643 46.4291 309.566 46.3636L306.085 50.4581C307.202 51.4072 308.547 51.8588 309.974 51.8588V46.485ZM309.673 46.4603C309.649 46.4374 309.641 46.4256 309.642 46.4264C309.642 46.4266 309.643 46.429 309.646 46.4335C309.649 46.4381 309.651 46.4438 309.654 46.4503C309.657 46.4568 309.659 46.4631 309.661 46.4686C309.663 46.4741 309.664 46.4777 309.664 46.479C309.664 46.4821 309.662 46.4708 309.662 46.4411H304.288C304.288 47.9604 304.879 49.3206 305.978 50.3614L309.673 46.4603ZM309.662 46.4411V20.5657H304.288V46.4411H309.662Z" fill="black" mask="url(#path-5-outside-3_321_554)"/>
</g>
<defs>
<filter id="filter0_d_321_554" x="0.427429" y="6.41099" width="173.997" height="55.0336" filterUnits="userSpaceOnUse" color-interpolation-filters="sRGB">
<feFlood flood-opacity="0" result="BackgroundImageFix"/>
<feColorMatrix in="SourceAlpha" type="matrix" values="0 0 0 0 0 0 0 0 0 0 0 0 0 0 0 0 0 0 127 0" result="hardAlpha"/>
<feOffset dx="3.51114" dy="-0.438892"/>
<feGaussianBlur stdDeviation="6.60533"/>
<feComposite in2="hardAlpha" operator="out"/>
<feColorMatrix type="matrix" values="0 0 0 0 0.945098 0 0 0 0 0.678431 0 0 0 0 0.0117647 0 0 0 1 0"/>
<feBlend mode="normal" in2="BackgroundImageFix" result="effect1_dropShadow_321_554"/>
<feBlend mode="normal" in="SourceGraphic" in2="effect1_dropShadow_321_554" result="shape"/>
</filter>
<filter id="filter1_d_321_554" x="162.25" y="2.38218" width="57.9174" height="60.3754" filterUnits="userSpaceOnUse" color-interpolation-filters="sRGB">
<feFlood flood-opacity="0" result="BackgroundImageFix"/>
<feColorMatrix in="SourceAlpha" type="matrix" values="0 0 0 0 0 0 0 0 0 0 0 0 0 0 0 0 0 0 127 0" result="hardAlpha"/>
<feOffset dx="3.51114" dy="-0.438892"/>
<feGaussianBlur stdDeviation="6.60533"/>
<feComposite in2="hardAlpha" operator="out"/>
<feColorMatrix type="matrix" values="0 0 0 0 0.945098 0 0 0 0 0.678431 0 0 0 0 0.0117647 0 0 0 1 0"/>
<feBlend mode="normal" in2="BackgroundImageFix" result="effect1_dropShadow_321_554"/>
<feBlend mode="normal" in="SourceGraphic" in2="effect1_dropShadow_321_554" result="shape"/>
</filter>
<filter id="filter2_d_321_554" x="207.697" y="4.1854" width="139.861" height="58.1611" filterUnits="userSpaceOnUse" color-interpolation-filters="sRGB">
<feFlood flood-opacity="0" result="BackgroundImageFix"/>
<feColorMatrix in="SourceAlpha" type="matrix" values="0 0 0 0 0 0 0 0 0 0 0 0 0 0 0 0 0 0 127 0" result="hardAlpha"/>
<feOffset dx="3.51114" dy="-0.438892"/>
<feGaussianBlur stdDeviation="6.60533"/>
<feComposite in2="hardAlpha" operator="out"/>
<feColorMatrix type="matrix" values="0 0 0 0 0.454902 0 0 0 0 1 0 0 0 0 0.376471 0 0 0 1 0"/>
<feBlend mode="normal" in2="BackgroundImageFix" result="effect1_dropShadow_321_554"/>
<feBlend mode="normal" in="SourceGraphic" in2="effect1_dropShadow_321_554" result="shape"/>
</filter>
</defs>
</svg>
