<svg width="366" height="207" viewBox="0 0 366 207" fill="none" xmlns="http://www.w3.org/2000/svg">
<rect x="-0.125813" y="0.125643" width="356.734" height="20.7761" rx="10.388" transform="matrix(-1 -0.000675958 -0.000675958 1 365.748 172.451)" fill="#181818" stroke="#4EB52A" stroke-width="0.251456"/>
<g filter="url(#filter0_d_316_289)">
<rect x="10.2676" y="173.476" width="114.929" height="18.0467" rx="9.02335" fill="url(#paint0_linear_316_289)" shape-rendering="crispEdges"/>
<path d="M54.8759 186.999V185.482L58.0591 182.695C58.2978 182.479 58.5009 182.282 58.6685 182.103C58.8361 181.921 58.964 181.739 59.052 181.557C59.1401 181.373 59.1841 181.172 59.1841 180.956C59.1841 180.715 59.1316 180.509 59.0265 180.339C58.9213 180.165 58.7765 180.032 58.5918 179.938C58.4071 179.844 58.1955 179.797 57.9569 179.797C57.7154 179.797 57.5037 179.847 57.3219 179.946C57.1401 180.043 56.998 180.184 56.8958 180.368C56.7963 180.553 56.7466 180.777 56.7466 181.042H54.748C54.748 180.448 54.8816 179.935 55.1486 179.503C55.4157 179.071 55.7907 178.739 56.2736 178.506C56.7594 178.27 57.3233 178.152 57.9654 178.152C58.6273 178.152 59.2026 178.263 59.6912 178.485C60.1799 178.706 60.5577 179.016 60.8248 179.414C61.0946 179.809 61.2296 180.267 61.2296 180.79C61.2296 181.123 61.1628 181.452 61.0293 181.779C60.8958 182.106 60.6557 182.466 60.3091 182.861C59.9654 183.256 59.4767 183.729 58.8432 184.28L57.7992 185.243V185.299H61.3361V186.999H54.8759ZM62.2342 185.55V183.905L65.8095 178.272H67.2711V180.505H66.4231L64.3308 183.82V183.888H69.5083V185.55H62.2342ZM66.4487 186.999V185.047L66.4913 184.327V178.272H68.4643V186.999H66.4487ZM75.502 185.363V184.902C75.502 184.544 75.5787 184.214 75.7321 183.91C75.8883 183.606 76.1142 183.361 76.4096 183.177C76.7051 182.992 77.0659 182.9 77.492 182.9C77.9267 182.9 78.2917 182.992 78.5872 183.177C78.8855 183.358 79.1099 183.601 79.2605 183.905C79.4139 184.206 79.4906 184.539 79.4906 184.902V185.363C79.4906 185.721 79.4139 186.052 79.2605 186.356C79.1071 186.66 78.8812 186.904 78.5829 187.089C78.2846 187.273 77.921 187.366 77.492 187.366C77.0602 187.366 76.6966 187.273 76.4011 187.089C76.1056 186.904 75.8812 186.66 75.7278 186.356C75.5772 186.052 75.502 185.721 75.502 185.363ZM76.8613 184.902V185.363C76.8613 185.544 76.9054 185.719 76.9934 185.887C77.0843 186.054 77.2505 186.138 77.492 186.138C77.7392 186.138 77.9054 186.057 77.9906 185.895C78.0758 185.731 78.1184 185.553 78.1184 185.363V184.902C78.1184 184.712 78.0772 184.533 77.9949 184.366C77.9153 184.195 77.7477 184.11 77.492 184.11C77.2534 184.11 77.0886 184.195 76.9977 184.366C76.9068 184.533 76.8613 184.712 76.8613 184.902ZM70.9764 180.368V179.908C70.9764 179.544 71.0545 179.212 71.2108 178.911C71.3699 178.607 71.5971 178.364 71.8926 178.182C72.188 177.998 72.546 177.905 72.9664 177.905C73.4011 177.905 73.7662 177.998 74.0616 178.182C74.3599 178.364 74.5858 178.607 74.7392 178.911C74.8926 179.212 74.9693 179.544 74.9693 179.908V180.368C74.9693 180.732 74.8912 181.064 74.7349 181.366C74.5815 181.667 74.3556 181.907 74.0574 182.086C73.7591 182.265 73.3954 182.354 72.9664 182.354C72.5375 182.354 72.1738 182.263 71.8755 182.081C71.5801 181.9 71.3556 181.658 71.2022 181.357C71.0517 181.056 70.9764 180.726 70.9764 180.368ZM72.3485 179.908V180.368C72.3485 180.559 72.3926 180.736 72.4806 180.901C72.5716 181.063 72.7335 181.144 72.9664 181.144C73.2164 181.144 73.3826 181.063 73.465 180.901C73.5502 180.736 73.5929 180.559 73.5929 180.368V179.908C73.5929 179.718 73.5531 179.539 73.4735 179.371C73.394 179.201 73.225 179.116 72.9664 179.116C72.7278 179.116 72.5645 179.202 72.4764 179.375C72.3912 179.549 72.3485 179.726 72.3485 179.908ZM71.6199 186.999L77.6199 178.272H78.7832L72.7832 186.999H71.6199Z" fill="#0B0101"/>
</g>
<rect x="-0.125461" y="0.125291" width="355.735" height="20.7179" rx="10.3589" transform="matrix(-1 -0.000675958 -0.000675958 1 365.749 4.24064)" fill="#181818" stroke="#EFAB00" stroke-width="0.250752"/>
<g filter="url(#filter1_d_316_289)">
<rect x="11.2637" y="5.2627" width="81.772" height="17.9962" rx="8.99808" fill="url(#paint1_linear_316_289)" shape-rendering="crispEdges"/>
<path d="M44.3294 10.0335V18.7607H42.2243V12.0022H42.1731L40.2214 13.1954V11.3715L42.3734 10.0335H44.3294ZM49.6678 18.8801C48.9888 18.8801 48.3823 18.7721 47.8482 18.5562C47.3169 18.3374 46.8993 18.042 46.5953 17.6698C46.2942 17.2948 46.1436 16.8715 46.1436 16.3999C46.1436 16.0392 46.2303 15.7082 46.4036 15.407C46.5769 15.1059 46.8113 14.8559 47.1067 14.657C47.405 14.4553 47.7374 14.3261 48.1039 14.2693V14.2011C47.6238 14.113 47.2303 13.89 46.9235 13.532C46.6195 13.1741 46.4675 12.7551 46.4675 12.2749C46.4675 11.8204 46.6053 11.4156 46.8809 11.0605C47.1593 10.7053 47.5385 10.4255 48.0186 10.221C48.5016 10.0164 49.0513 9.91415 49.6678 9.91415C50.2843 9.91415 50.8326 10.0164 51.3127 10.221C51.7956 10.4255 52.1749 10.7053 52.4505 11.0605C52.7289 11.4156 52.8681 11.8204 52.8681 12.2749C52.8681 12.7579 52.7132 13.1784 52.4036 13.5363C52.0968 13.8914 51.7061 14.113 51.2317 14.2011V14.2693C51.5953 14.3261 51.9249 14.4553 52.2203 14.657C52.5186 14.8559 52.7544 15.1059 52.9277 15.407C53.1039 15.7082 53.1919 16.0392 53.1919 16.3999C53.1919 16.8715 53.04 17.2948 52.736 17.6698C52.432 18.042 52.0144 18.3374 51.4831 18.5562C50.9547 18.7721 50.3496 18.8801 49.6678 18.8801ZM49.6678 17.3843C49.9263 17.3843 50.1536 17.336 50.3496 17.2394C50.5456 17.14 50.699 17.0022 50.8098 16.8261C50.9235 16.6499 50.9803 16.4511 50.9803 16.2295C50.9803 16.0022 50.9235 15.8005 50.8098 15.6244C50.6962 15.4482 50.54 15.3105 50.3411 15.211C50.1451 15.1088 49.9206 15.0576 49.6678 15.0576C49.4178 15.0576 49.1934 15.1088 48.9945 15.211C48.7956 15.3105 48.6394 15.4482 48.5257 15.6244C48.4121 15.8005 48.3553 16.0022 48.3553 16.2295C48.3553 16.4511 48.4107 16.6499 48.5215 16.8261C48.6351 16.9994 48.79 17.1357 48.986 17.2352C49.1848 17.3346 49.4121 17.3843 49.6678 17.3843ZM49.6678 13.5704C49.8894 13.5704 50.0854 13.5249 50.2559 13.434C50.4292 13.3431 50.5641 13.2167 50.6607 13.0548C50.7601 12.8928 50.8098 12.7096 50.8098 12.5051C50.8098 12.3005 50.7601 12.1201 50.6607 11.9639C50.5641 11.8076 50.4306 11.6855 50.2601 11.5974C50.0897 11.5065 49.8922 11.461 49.6678 11.461C49.4462 11.461 49.2488 11.5065 49.0755 11.5974C48.9022 11.6855 48.7672 11.8076 48.6706 11.9639C48.574 12.1201 48.5257 12.3005 48.5257 12.5051C48.5257 12.7096 48.574 12.8928 48.6706 13.0548C48.7701 13.2139 48.9064 13.3403 49.0797 13.434C49.253 13.5249 49.449 13.5704 49.6678 13.5704ZM59.2559 17.1244V16.6642C59.2559 16.3062 59.3326 15.9752 59.486 15.6713C59.6422 15.3673 59.8681 15.123 60.1635 14.9383C60.459 14.7536 60.8198 14.6613 61.2459 14.6613C61.6806 14.6613 62.0456 14.7536 62.3411 14.9383C62.6394 15.1201 62.8638 15.363 63.0144 15.667C63.1678 15.9681 63.2445 16.3005 63.2445 16.6642V17.1244C63.2445 17.4823 63.1678 17.8133 63.0144 18.1173C62.861 18.4213 62.6351 18.6656 62.3368 18.8502C62.0385 19.0349 61.6749 19.1272 61.2459 19.1272C60.8141 19.1272 60.4505 19.0349 60.155 18.8502C59.8596 18.6656 59.6351 18.4213 59.4817 18.1173C59.3311 17.8133 59.2559 17.4823 59.2559 17.1244ZM60.6152 16.6642V17.1244C60.6152 17.3062 60.6593 17.4809 60.7473 17.6485C60.8382 17.8161 61.0044 17.8999 61.2459 17.8999C61.4931 17.8999 61.6593 17.819 61.7445 17.657C61.8297 17.4923 61.8723 17.3147 61.8723 17.1244V16.6642C61.8723 16.4738 61.8311 16.2948 61.7488 16.1272C61.6692 15.9568 61.5016 15.8715 61.2459 15.8715C61.0073 15.8715 60.8425 15.9568 60.7516 16.1272C60.6607 16.2948 60.6152 16.4738 60.6152 16.6642ZM54.7303 12.1301V11.6698C54.7303 11.3062 54.8084 10.9738 54.9647 10.6727C55.1238 10.3687 55.351 10.1258 55.6465 9.94398C55.9419 9.75932 56.2999 9.66699 56.7203 9.66699C57.155 9.66699 57.5201 9.75932 57.8155 9.94398C58.1138 10.1258 58.3397 10.3687 58.4931 10.6727C58.6465 10.9738 58.7232 11.3062 58.7232 11.6698V12.1301C58.7232 12.4937 58.6451 12.8261 58.4888 13.1272C58.3354 13.4284 58.1096 13.6684 57.8113 13.8474C57.513 14.0264 57.1493 14.1159 56.7203 14.1159C56.2914 14.1159 55.9277 14.0249 55.6294 13.8431C55.334 13.6613 55.1096 13.4198 54.9561 13.1187C54.8056 12.8176 54.7303 12.488 54.7303 12.1301ZM56.1025 11.6698V12.1301C56.1025 12.3204 56.1465 12.498 56.2346 12.6627C56.3255 12.8247 56.4874 12.9056 56.7203 12.9056C56.9703 12.9056 57.1365 12.8247 57.2189 12.6627C57.3042 12.498 57.3468 12.3204 57.3468 12.1301V11.6698C57.3468 11.4795 57.307 11.3005 57.2275 11.1329C57.1479 10.9624 56.9789 10.8772 56.7203 10.8772C56.4817 10.8772 56.3184 10.9639 56.2303 11.1372C56.1451 11.3105 56.1025 11.488 56.1025 11.6698ZM55.3738 18.7607L61.3738 10.0335H62.5371L56.5371 18.7607H55.3738Z" fill="#0B0101"/>
</g>
<defs>
<filter id="filter0_d_316_289" x="0.76931" y="169.043" width="133.926" height="37.0434" filterUnits="userSpaceOnUse" color-interpolation-filters="sRGB">
<feFlood flood-opacity="0" result="BackgroundImageFix"/>
<feColorMatrix in="SourceAlpha" type="matrix" values="0 0 0 0 0 0 0 0 0 0 0 0 0 0 0 0 0 0 127 0" result="hardAlpha"/>
<feOffset dy="5.06574"/>
<feGaussianBlur stdDeviation="4.74913"/>
<feComposite in2="hardAlpha" operator="out"/>
<feColorMatrix type="matrix" values="0 0 0 0 0.0352941 0 0 0 0 0.988235 0 0 0 0 0.235294 0 0 0 0.35 0"/>
<feBlend mode="normal" in2="BackgroundImageFix" result="effect1_dropShadow_316_289"/>
<feBlend mode="normal" in="SourceGraphic" in2="effect1_dropShadow_316_289" result="shape"/>
</filter>
<filter id="filter1_d_316_289" x="1.79201" y="0.842587" width="100.715" height="36.9394" filterUnits="userSpaceOnUse" color-interpolation-filters="sRGB">
<feFlood flood-opacity="0" result="BackgroundImageFix"/>
<feColorMatrix in="SourceAlpha" type="matrix" values="0 0 0 0 0 0 0 0 0 0 0 0 0 0 0 0 0 0 127 0" result="hardAlpha"/>
<feOffset dy="5.05155"/>
<feGaussianBlur stdDeviation="4.73583"/>
<feComposite in2="hardAlpha" operator="out"/>
<feColorMatrix type="matrix" values="0 0 0 0 0.379167 0 0 0 0 0.334931 0 0 0 0 0 0 0 0 1 0"/>
<feBlend mode="normal" in2="BackgroundImageFix" result="effect1_dropShadow_316_289"/>
<feBlend mode="normal" in="SourceGraphic" in2="effect1_dropShadow_316_289" result="shape"/>
</filter>
<linearGradient id="paint0_linear_316_289" x1="50.2285" y1="190.37" x2="57.4091" y2="169.861" gradientUnits="userSpaceOnUse">
<stop stop-color="#79EC8F"/>
<stop offset="1" stop-color="#09FC3C"/>
</linearGradient>
<linearGradient id="paint1_linear_316_289" x1="39.6959" y1="22.1102" x2="48.7755" y2="3.60697" gradientUnits="userSpaceOnUse">
<stop stop-color="#FFC676"/>
<stop offset="1" stop-color="#FFBF00"/>
</linearGradient>
</defs>
</svg>
