<svg width="24" height="24" viewBox="0 0 24 24" fill="none" xmlns="http://www.w3.org/2000/svg">
<g clip-path="url(#clip0_297_18512)">
<path d="M11.8895 0.389648C8.82551 0.389648 5.88426 1.60786 3.7194 3.77416C1.55232 5.94134 0.334604 8.88042 0.333984 11.9452C0.333984 15.0087 1.55273 17.9499 3.7194 20.1162C5.88426 22.2826 8.82551 23.5008 11.8895 23.5008C14.9536 23.5008 17.8948 22.2826 20.0597 20.1162C22.2263 17.9499 23.4451 15.0087 23.4451 11.9452C23.4451 8.88172 22.2263 5.94047 20.0597 3.77416C17.8948 1.60786 14.9536 0.389648 11.8895 0.389648Z" fill="white"/>
<path d="M5.56371 11.8239C8.93287 10.3563 11.179 9.3888 12.302 8.92128C15.5123 7.58644 16.1786 7.3546 16.6137 7.34675C16.7094 7.34521 16.9225 7.36887 17.0615 7.48126C17.177 7.57605 17.2095 7.70425 17.2258 7.79426C17.2402 7.88417 17.2601 8.0891 17.2438 8.24907C17.0705 10.0763 16.3176 14.5104 15.9348 16.557C15.7741 17.4229 15.4545 17.7133 15.1458 17.7416C14.4741 17.8034 13.965 17.2982 13.315 16.8722C12.2984 16.2054 11.7243 15.7905 10.7366 15.14C9.59551 14.3881 10.3358 13.9749 10.9858 13.2996C11.1555 13.1228 14.113 10.4334 14.169 10.1895C14.1762 10.159 14.1834 10.0452 14.1148 9.9853C14.048 9.92517 13.9487 9.94576 13.8765 9.96201C13.7736 9.98512 12.1504 11.0591 9.00149 13.1837C8.54107 13.5004 8.12399 13.6547 7.74843 13.6466C7.33676 13.6378 6.54232 13.4133 5.9519 13.2216C5.22968 12.9863 4.65371 12.8619 4.70426 12.4623C4.72954 12.2543 5.01662 12.0415 5.56371 11.8239Z" fill="url(#paint0_linear_297_18512)"/>
</g>
<defs>
<linearGradient id="paint0_linear_297_18512" x1="632.139" y1="7.34668" x2="632.139" y2="1047.35" gradientUnits="userSpaceOnUse">
<stop stop-color="#2AABEE"/>
<stop offset="1" stop-color="#229ED9"/>
</linearGradient>
<clipPath id="clip0_297_18512">
<rect width="23.1111" height="23.1111" fill="white" transform="translate(0.333984 0.389648)"/>
</clipPath>
</defs>
</svg>
