<svg width="18" height="17" viewBox="0 0 18 17" fill="none" xmlns="http://www.w3.org/2000/svg">
<path d="M9.24758 16.9705C4.58278 16.9515 0.828056 13.1736 0.851673 8.52281C0.875324 3.86531 4.64531 0.118688 9.28975 0.13703C13.9558 0.155458 17.7098 3.93302 17.6851 8.58506C17.6603 13.2428 13.8905 16.9895 9.24758 16.9705ZM9.91561 12.5898C10.2736 12.4345 10.6167 12.3249 10.9191 12.1463C11.5481 11.7748 11.869 11.2021 11.854 10.4671C11.8317 9.36469 11.2569 8.64007 10.2612 8.2294C9.89469 8.07826 9.50881 7.97386 9.14348 7.82031C8.83593 7.69105 8.51362 7.56225 8.25429 7.36064C7.80829 7.01391 7.8773 6.27725 8.36387 6.02197C8.94963 5.71465 9.55658 5.72178 10.1517 6.00697C10.4128 6.13209 10.5521 6.34666 10.5665 6.6499C10.57 6.73445 10.5902 6.81745 10.6262 6.89405C10.6622 6.97065 10.7131 7.03929 10.7759 7.09595C10.8388 7.1526 10.9123 7.19613 10.9923 7.22397C11.0722 7.25181 11.1569 7.2634 11.2414 7.25807C11.3258 7.2545 11.4087 7.23428 11.4853 7.19856C11.5619 7.16284 11.6307 7.11234 11.6877 7.04994C11.7448 6.98755 11.7889 6.9145 11.8175 6.83501C11.8462 6.75551 11.8589 6.67112 11.8548 6.58671C11.8356 5.72333 11.3818 5.15089 10.6213 4.80155C10.3986 4.69922 10.1575 4.63668 9.91566 4.55271C9.91566 4.38619 9.91794 4.21805 9.9152 4.04999C9.90895 3.66606 9.64063 3.38304 9.27981 3.37675C8.9138 3.37036 8.62892 3.66026 8.62179 4.0498C8.6186 4.22398 8.62125 4.39828 8.62125 4.56987C8.48682 4.60619 8.36936 4.63498 8.25366 4.66966C7.10893 5.01282 6.5338 5.89405 6.72244 7.05046C6.8635 7.9152 7.38367 8.49636 8.17413 8.8312C8.67519 9.04346 9.19883 9.20199 9.70315 9.40719C9.92223 9.49256 10.1259 9.61306 10.3062 9.76395C10.7078 10.1145 10.6564 10.8202 10.2038 11.0695C9.58902 11.408 8.95168 11.3981 8.33012 11.0689C8.10789 10.9512 7.99038 10.7525 7.97447 10.4945C7.94879 10.0782 7.67355 9.82134 7.28469 9.84195C6.92131 9.86121 6.6673 10.1625 6.68362 10.5645C6.71071 11.2317 6.99993 11.7644 7.56736 12.1107C7.88399 12.3039 8.24358 12.4267 8.62126 12.5983C8.62126 12.7173 8.6187 12.8913 8.62177 13.0653C8.62873 13.4594 8.90446 13.7391 9.27879 13.7351C9.64212 13.7312 9.90905 13.4522 9.91514 13.0668C9.9179 12.8929 9.91561 12.7188 9.91561 12.5898Z" fill="black"/>
</svg>
