<svg width="15" height="19" viewBox="0 0 15 19" fill="none" xmlns="http://www.w3.org/2000/svg">
<path d="M8.02609 0.606567C8.31734 0.666305 8.61409 0.706933 8.89896 0.788855C9.85139 1.06141 10.6898 1.6354 11.2886 2.42478C11.8874 3.21416 12.2143 4.17641 12.2202 5.16726C12.2265 5.87255 12.2214 6.57794 12.2215 7.28328C12.2215 7.34739 12.2215 7.41149 12.2215 7.47714C12.5231 7.4929 12.8109 7.48529 13.0913 7.5269C13.8793 7.64381 14.489 8.34047 14.5122 9.13989C14.5245 9.56395 14.5163 9.98862 14.5163 10.413C14.5165 12.6785 14.5163 14.944 14.5155 17.2095C14.5146 18.0332 14.0125 18.7005 13.2367 18.9072C13.0749 18.9485 12.9084 18.9687 12.7414 18.9676C9.33498 18.9709 5.92855 18.9715 2.52212 18.9694C1.49333 18.9688 0.748231 18.2218 0.74749 17.1916C0.745589 14.5495 0.74563 11.9075 0.747608 9.26539C0.748474 8.23766 1.49627 7.49705 2.52767 7.493C2.69343 7.49234 2.8592 7.49291 3.04178 7.49291C3.04178 7.39953 3.04107 7.32346 3.04188 7.2474C3.05094 6.40499 3.00561 5.55771 3.08037 4.72117C3.2574 2.74042 4.71189 1.14321 6.65864 0.713192C6.85001 0.670921 7.04428 0.641797 7.2372 0.606567H8.02609ZM7.63138 8.64062C5.94023 8.64062 4.24908 8.64067 2.55793 8.64076C2.11966 8.64084 1.89453 8.86424 1.89448 9.29992C1.89414 11.9179 1.89413 14.5359 1.89444 17.1539C1.89448 17.6024 2.11591 17.8223 2.5673 17.8223C5.94362 17.8225 9.31994 17.8225 12.6963 17.8223C13.1471 17.8223 13.3688 17.602 13.3688 17.1535C13.3691 14.5415 13.3691 11.9295 13.3689 9.31749C13.3688 8.85458 13.1531 8.64073 12.6869 8.64069C11.0017 8.64052 9.31655 8.64049 7.63138 8.64062ZM11.0696 7.48549C11.0696 6.64095 11.0992 5.8152 11.0634 4.99229C10.9883 3.26247 9.53694 1.83366 7.81762 1.7577C5.82496 1.66966 4.19788 3.21768 4.18974 5.21153C4.18686 5.91683 4.18905 6.62214 4.18969 7.32745C4.18974 7.37903 4.19605 7.43062 4.19967 7.48549H11.0696Z" fill="black"/>
</svg>
