<svg width="18" height="16" viewBox="0 0 18 16" fill="none" xmlns="http://www.w3.org/2000/svg">
<g clip-path="url(#clip0_129_276)">
<path d="M17.7633 8.8994C17.7222 9.17792 17.6955 9.45939 17.6379 9.73449C17.0308 12.6323 15.3281 14.6074 12.5117 15.5767C9.36109 16.6611 5.75816 15.4419 3.87616 12.7135C3.64234 12.3745 3.70466 11.961 4.02431 11.7304C4.34639 11.4981 4.77366 11.5727 5.01967 11.9135C5.98958 13.2572 7.28198 14.1153 8.91638 14.4466C12.1248 15.0969 15.3301 13.1062 16.1526 9.96036C17.0172 6.6538 15.0978 3.32316 11.7716 2.40591C8.4072 1.47814 4.96972 3.47558 4.08535 6.78537C4.07863 6.81049 4.07501 6.83641 4.06512 6.88634C4.42867 6.64365 4.77061 6.41125 5.11693 6.18544C5.43238 5.97974 5.81934 6.03239 6.05099 6.30477C6.30848 6.60755 6.27175 7.07447 5.94158 7.30123C5.14997 7.8449 4.35131 8.37841 3.5456 8.90173C3.23279 9.10518 2.82917 9.01906 2.61486 8.70488C2.07522 7.91376 1.54486 7.11645 1.02378 6.31293C0.850982 6.0469 0.912669 5.59802 1.23803 5.38966C1.38778 5.29036 1.57046 5.25245 1.74776 5.2839C1.92506 5.31534 2.0832 5.41369 2.18902 5.55831C2.34319 5.76894 2.48075 5.99153 2.62617 6.20849C2.65879 6.25714 2.69324 6.30457 2.72761 6.35366C2.85544 6.00185 2.95785 5.65176 3.10635 5.3221C4.26683 2.74585 6.24944 1.19023 9.05857 0.753252C12.4964 0.218474 15.9395 2.22714 17.2085 5.44047C17.4943 6.15217 17.672 6.902 17.7359 7.66547C17.7421 7.70792 17.7513 7.74989 17.7633 7.79108L17.7633 8.8994Z" fill="black"/>
<path d="M10.7589 6.36455C10.7591 6.87503 10.7552 7.38556 10.7632 7.89591C10.7671 7.97895 10.8 8.05808 10.8561 8.11977C11.4482 8.7225 12.0472 9.31851 12.6429 9.9177C12.8446 10.1205 12.913 10.3632 12.8238 10.6356C12.7366 10.902 12.5409 11.0569 12.2646 11.1026C12.156 11.1224 12.0443 11.115 11.9394 11.081C11.8345 11.047 11.7398 10.9876 11.6639 10.9081C10.9606 10.2083 10.2595 9.50625 9.56068 8.80198C9.49169 8.73181 9.4378 8.64845 9.40227 8.55697C9.36675 8.4655 9.35033 8.36781 9.35403 8.26985C9.3554 7.124 9.3535 5.97814 9.35533 4.83229C9.35599 4.42083 9.64946 4.11349 10.0393 4.1071C10.4411 4.10052 10.7503 4.39804 10.7567 4.81687C10.7647 5.33265 10.7587 5.84865 10.7589 6.36455Z" fill="black"/>
</g>
<defs>
<clipPath id="clip0_129_276">
<rect width="16.8336" height="15.3033" fill="white" transform="translate(0.929688 0.667236)"/>
</clipPath>
</defs>
</svg>
