<svg width="200" height="35" viewBox="0 0 200 35" fill="none" xmlns="http://www.w3.org/2000/svg">
<path d="M29.2026 21.0125C28.937 21.1962 28.6273 21.3045 28.3059 21.326C27.9845 21.3476 27.6632 21.2817 27.3758 21.1352C26.6999 20.752 26.3283 19.8547 26.3283 18.6069V14.8733C26.3283 13.0704 25.6183 11.7874 24.4311 11.4409C22.4191 10.8526 20.9059 13.3241 20.3372 14.2523L16.7887 20.0284V12.9685C16.7488 11.3441 16.2233 10.3726 15.2256 10.0797C14.5654 9.88603 13.5778 9.96362 12.6183 11.4377L4.66837 24.2537C3.60435 22.2263 3.04943 19.9671 3.05213 17.6737C3.05213 9.95359 9.21445 3.67337 16.7887 3.67337C24.3629 3.67337 30.5245 9.95359 30.5245 17.6737C30.5245 17.6871 30.5277 17.6989 30.5286 17.7113C30.5286 17.7245 30.5262 17.7363 30.5269 17.7497C30.5985 19.2447 30.1163 20.434 29.2026 21.0134V21.0125ZM33.5766 17.6745V17.6354L33.5758 17.5969C33.5332 8.19483 26.0198 0.562378 16.7878 0.562378C7.5317 0.562378 0 8.23823 0 17.6737C0 27.1083 7.53168 34.785 16.7887 34.785C21.0316 34.7868 25.1148 33.1543 28.2024 30.2218C28.4997 29.9397 28.6749 29.551 28.6901 29.1397C28.7054 28.7284 28.5594 28.3277 28.2837 28.024C28.1484 27.8744 27.9849 27.7535 27.8028 27.6683C27.6206 27.583 27.4235 27.5351 27.2228 27.5273C27.0221 27.5196 26.8219 27.5521 26.6338 27.623C26.4457 27.6939 26.2735 27.8018 26.1272 27.9404C24.7973 29.2031 23.2288 30.183 21.515 30.8219C19.8013 31.4608 17.9775 31.7455 16.1522 31.659C14.327 31.5726 12.5377 31.1167 10.891 30.3187C9.24432 29.5207 7.77391 28.3968 6.56741 27.014L13.7366 15.4568V20.7847C13.7366 23.3438 14.7252 24.171 15.5541 24.4131C16.3838 24.6552 17.6518 24.4898 18.9827 22.3197L22.9262 15.9017C23.0526 15.6946 23.169 15.516 23.2753 15.3616V18.6069C23.2753 20.9992 24.2298 22.9123 25.8935 23.8547C26.6558 24.2708 27.5155 24.4719 28.3818 24.4366C29.2481 24.4014 30.0889 24.1311 30.8154 23.6543C32.6778 22.4733 33.6813 20.2972 33.5766 17.6745Z" fill="white"/>
<path d="M57.2845 11.1533C57.5036 11.3002 57.6865 11.499 57.8186 11.7337C57.9506 11.9683 58.0281 12.2321 58.0446 12.5038C58.0396 12.9031 57.8869 13.2847 57.6186 13.5686C57.3503 13.8524 56.9874 14.0164 56.606 14.0259C56.4204 14.0185 56.2372 13.9797 56.0634 13.9111C55.1294 13.1812 53.9989 12.779 52.8334 12.7621C50.0113 12.7621 48.057 15.175 48.057 18.162C48.057 21.1501 50.0113 23.5338 52.8334 23.5338C54.1775 23.5238 55.4677 22.9797 56.4429 22.0117C56.6886 21.8278 56.9825 21.7275 57.2845 21.7244C57.4643 21.7236 57.6424 21.7603 57.8084 21.8323C57.9744 21.9044 58.125 22.0104 58.2514 22.1442C58.3778 22.2779 58.4774 22.4367 58.5444 22.6113C58.6114 22.7858 58.6445 22.9726 58.6417 23.1607C58.6337 23.4089 58.5677 23.6513 58.4493 23.8666C58.331 24.0819 58.1641 24.2635 57.9631 24.3956C56.5382 25.6674 54.7337 26.3786 52.8611 26.4062C51.6179 26.4067 50.3918 26.1025 49.2812 25.5178C48.1705 24.9331 47.2062 24.0842 46.4654 23.0392C45.7247 21.9942 45.2281 20.7822 45.0156 19.5002C44.8031 18.2182 44.8804 16.9019 45.2415 15.6568C45.6026 14.4117 46.2373 13.2725 47.0949 12.3304C47.9524 11.3883 49.0089 10.6695 50.1797 10.2317C51.3504 9.79393 52.6029 9.64925 53.8367 9.80928C55.0705 9.96932 56.2513 10.4296 57.2845 11.1533ZM65.2245 14.6293C68.1823 14.6293 70.6792 17.2435 70.6792 20.4599C70.6792 23.6774 68.1823 26.4062 65.2245 26.4062C63.7242 26.3867 62.2908 25.7537 61.2308 24.6425C60.1708 23.5312 59.5683 22.03 59.5521 20.4599C59.5521 17.2435 62.1304 14.6293 65.2245 14.6293ZM65.1967 23.5338C66.5001 23.5338 67.6119 22.2411 67.6119 20.4889C67.6119 18.7374 66.5001 17.6453 65.1967 17.6453C63.7858 17.6453 62.6184 18.7084 62.6184 20.4889C62.6184 22.2411 63.7858 23.5338 65.1967 23.5338ZM72.5396 24.625V16.4105C72.5356 15.983 72.6931 15.5711 72.9777 15.2645C73.2624 14.9578 73.6512 14.7812 74.0596 14.7729C74.4708 14.78 74.863 14.9554 75.1522 15.2615C75.4413 15.5676 75.6044 15.9801 75.6065 16.4105V24.625C75.6044 25.0554 75.4414 25.4679 75.1522 25.7741C74.8631 26.0802 74.4708 26.2556 74.0596 26.2628C73.6511 26.2545 73.2623 26.0778 72.9777 25.7711C72.693 25.4644 72.5356 25.0525 72.5396 24.625ZM72.2958 11.6709C72.2907 11.4232 72.3322 11.177 72.4181 10.9461C72.504 10.7153 72.6325 10.5045 72.7964 10.3257C72.9602 10.1469 73.1561 10.0037 73.3728 9.90424C73.5896 9.80477 73.823 9.75102 74.0596 9.74604C74.5445 9.74905 75.0085 9.95352 75.3495 10.3145C75.6904 10.6754 75.8805 11.1633 75.8778 11.6709C75.8757 11.9185 75.8269 12.1632 75.7344 12.391C75.6418 12.6189 75.5073 12.8254 75.3384 12.9988C75.1696 13.1722 74.9697 13.3091 74.7503 13.4016C74.5309 13.4942 74.2961 13.5405 74.0596 13.5381C73.8265 13.5372 73.5959 13.4881 73.381 13.3937C73.166 13.2992 72.971 13.1613 72.8072 12.9878C72.6433 12.8144 72.5138 12.6087 72.426 12.3827C72.3383 12.1567 72.294 11.9148 72.2958 11.6709ZM81.4838 20.1726V24.625C81.4817 25.0556 81.3185 25.4682 81.0291 25.7744C80.7397 26.0806 80.3473 26.2559 79.9358 26.2628C79.5274 26.2543 79.1387 26.0776 78.8541 25.7709C78.5695 25.4643 78.412 25.0525 78.4158 24.625V16.0366C78.4171 15.704 78.543 15.3853 78.7665 15.149C78.99 14.9126 79.2933 14.7776 79.611 14.7729C79.9257 14.7789 80.2254 14.9153 80.4442 15.1522C80.663 15.3891 80.7832 15.7071 80.7783 16.0366C82.0264 14.8308 83.1114 14.6293 84.1428 14.6293C87.2099 14.6293 88.567 17.0418 88.567 19.7708V24.625C88.565 25.0554 88.4019 25.4679 88.1128 25.7741C87.8236 26.0802 87.4314 26.2556 87.0201 26.2628C86.6117 26.2545 86.2228 26.0779 85.9381 25.7712C85.6534 25.4645 85.496 25.0525 85.4999 24.625V20.1726C85.4999 18.7653 85.337 17.5875 83.4104 17.5875C82.0531 17.5875 81.4829 18.7653 81.4829 20.1726H81.4838ZM98.5418 21.8683C98.39 21.868 98.2403 21.8315 98.104 21.7617C97.9677 21.6919 97.8483 21.5905 97.755 21.4653L94.1722 17.4159V24.625C94.1701 25.0555 94.007 25.468 93.7178 25.7741C93.4286 26.0803 93.0364 26.2557 92.6251 26.2628C92.2166 26.2545 91.8278 26.0778 91.5432 25.7711C91.2585 25.4644 91.1011 25.0525 91.1051 24.625V10.3503C91.1492 10.2299 91.2277 10.1266 91.3298 10.0546C91.432 9.9825 91.5529 9.94513 91.6761 9.94752C91.9465 9.94752 92.1632 10.1778 92.3271 10.3503L98.0263 17.0426C98.0716 17.1376 98.1412 17.2175 98.2274 17.2733C98.3137 17.3292 98.413 17.3588 98.5144 17.3589C98.6158 17.359 98.7152 17.3296 98.8015 17.2739C98.8878 17.2182 98.9576 17.1384 99.0031 17.0435L104.703 10.3503C104.866 10.1778 105.083 9.94752 105.354 9.94752C105.477 9.94534 105.598 9.98282 105.7 10.0549C105.802 10.1269 105.88 10.23 105.924 10.3503V24.625C105.928 25.0525 105.771 25.4644 105.486 25.7711C105.201 26.0778 104.813 26.2545 104.404 26.2628C103.993 26.2557 103.6 26.0803 103.311 25.7741C103.022 25.468 102.859 25.0555 102.857 24.625V17.4159L99.275 21.4653C99.1883 21.5844 99.0777 21.6822 98.9511 21.7519C98.8244 21.8215 98.6847 21.8612 98.5418 21.8683ZM113.294 23.5338C114.678 23.5338 115.844 22.2411 115.844 20.4889C115.844 18.7374 114.651 17.5875 113.294 17.5875C111.937 17.5875 110.851 18.7653 110.851 20.4889C110.851 22.1834 111.937 23.5338 113.294 23.5338ZM116.551 24.9989L116.495 24.625C115.899 25.86 113.998 26.4062 112.777 26.4062C109.9 26.4062 107.784 23.6774 107.784 20.4599C107.784 17.2435 109.955 14.6293 112.94 14.6293C113.62 14.6434 114.289 14.8097 114.902 15.1169C115.515 15.4241 116.058 15.8652 116.495 16.4105L116.55 16.0366C116.545 15.7071 116.665 15.389 116.884 15.1521C117.103 14.9151 117.402 14.7788 117.717 14.7729C118.035 14.7778 118.338 14.9129 118.561 15.1493C118.784 15.3856 118.91 15.7043 118.911 16.0366V24.9989C118.91 25.3314 118.784 25.6502 118.561 25.8866C118.337 26.123 118.034 26.2581 117.716 26.2628C117.402 26.2567 117.102 26.1203 116.883 25.8834C116.664 25.6464 116.544 25.3284 116.549 24.9989H116.551ZM127.421 17.5875H127.096C125.169 17.7032 124.789 18.852 124.789 20.1726V24.625C124.787 25.0555 124.624 25.468 124.334 25.7741C124.045 26.0803 123.653 26.2557 123.242 26.2628C122.833 26.2545 122.444 26.0778 122.16 25.7711C121.875 25.4644 121.718 25.0525 121.722 24.625V16.0366C121.723 15.7041 121.848 15.3854 122.072 15.1491C122.295 14.9127 122.598 14.7776 122.916 14.7729C123.231 14.7788 123.531 14.9151 123.749 15.1521C123.968 15.389 124.088 15.7071 124.083 16.0366C125.223 14.9163 126.146 14.6869 127.096 14.6293H127.394C127.766 14.63 128.123 14.7842 128.387 15.0585C128.651 15.3328 128.801 15.7051 128.805 16.0945C128.808 16.4839 128.665 16.859 128.406 17.1385C128.147 17.418 127.793 17.5794 127.421 17.5875ZM139.242 23.8789C139.383 24.1105 139.458 24.3792 139.459 24.6538C139.443 25.0722 139.279 25.4694 138.997 25.7671C138.716 26.0649 138.339 26.2417 137.939 26.2628C137.397 26.2628 136.935 25.8319 136.582 25.3719L133.055 21.0923V24.625C133.052 25.0555 132.889 25.4681 132.6 25.7742C132.31 26.0803 131.918 26.2557 131.507 26.2628C131.098 26.2545 130.709 26.0778 130.425 25.7711C130.14 25.4644 129.983 25.0525 129.987 24.625V11.5851C129.983 11.1575 130.14 10.7456 130.425 10.4389C130.709 10.1322 131.098 9.95563 131.507 9.94752C131.918 9.95447 132.31 10.1298 132.599 10.4359C132.889 10.7421 133.052 11.1546 133.054 11.5851V19.7138L136.582 15.6347C136.935 15.2036 137.369 14.7729 137.912 14.7729C138.302 14.7945 138.669 14.9692 138.941 15.2621C139.212 15.555 139.368 15.9445 139.378 16.3526C139.382 16.6154 139.316 16.8742 139.187 17.0996L136.392 20.2874L139.242 23.878V23.8789ZM143.056 19.5212H147.48C147.48 18.15 146.441 17.4693 145.268 17.4693C144.095 17.4693 143.056 18.1786 143.056 19.5212ZM149.271 21.4941H143.056C143.056 23.4192 144.82 23.7064 145.607 23.7064C146.295 23.7074 146.977 23.5706 147.616 23.3035C147.85 23.1417 148.123 23.0521 148.403 23.045C148.735 23.0512 149.051 23.193 149.284 23.4401C149.517 23.6873 149.649 24.0201 149.651 24.3674C149.642 24.6038 149.575 24.8337 149.456 25.035C149.338 25.2362 149.171 25.4018 148.973 25.5158C148.023 26.2337 146.801 26.4062 145.634 26.4062C142.541 26.4062 139.962 24.6547 139.962 20.6037C139.962 17.4159 141.536 14.6293 145.2 14.6293C148.158 14.6293 150.411 16.6399 150.466 20.2305C150.464 20.5629 150.339 20.8816 150.115 21.118C149.892 21.3543 149.589 21.4894 149.271 21.4941ZM157.808 26.4062H156.967C154.632 26.4062 153.275 25.3431 153.275 21.5231V17.5875H152.489C152.119 17.5795 151.767 17.4201 151.508 17.1436C151.249 16.8671 151.104 16.4954 151.104 16.1084C151.104 15.7213 151.249 15.3497 151.508 15.0732C151.767 14.7966 152.119 14.6373 152.489 14.6293H153.275V11.5842C153.272 11.1567 153.429 10.7449 153.714 10.4382C153.998 10.1316 154.387 9.95493 154.795 9.94663C155.207 9.95384 155.599 10.1293 155.888 10.4353C156.177 10.7414 156.34 11.1538 156.343 11.5842V14.6293H157.617C157.987 14.6371 158.339 14.7964 158.598 15.0729C158.857 15.3495 159.002 15.7212 159.002 16.1084C159.002 16.4955 158.857 16.8673 158.598 17.1438C158.339 17.4203 157.987 17.5796 157.617 17.5875H156.343V20.891C156.343 23.0741 156.451 23.5338 157.374 23.5338H157.808C158.17 23.5372 158.515 23.6901 158.769 23.9592C159.023 24.2283 159.165 24.5917 159.164 24.9701C159.161 25.347 159.017 25.7076 158.764 25.9756C158.511 26.2437 158.168 26.3981 157.808 26.4062ZM172.668 11.1533C172.887 11.3004 173.07 11.4992 173.202 11.7338C173.334 11.9684 173.412 12.2322 173.429 12.5038C173.424 12.9031 173.271 13.2847 173.003 13.5686C172.734 13.8524 172.371 14.0164 171.99 14.0259C171.804 14.0186 171.621 13.9798 171.447 13.9111C170.513 13.1811 169.383 12.779 168.217 12.7621C165.395 12.7621 163.44 15.175 163.44 18.162C163.44 21.1501 165.394 23.5338 168.217 23.5338C169.561 23.5238 170.852 22.9797 171.827 22.0117C172.073 21.8278 172.366 21.7275 172.668 21.7244C172.848 21.7236 173.026 21.7603 173.192 21.8324C173.358 21.9045 173.509 22.0105 173.635 22.1443C173.761 22.278 173.861 22.4369 173.928 22.6114C173.995 22.7859 174.028 22.9727 174.025 23.1607C174.017 23.4089 173.951 23.6512 173.833 23.8665C173.715 24.0818 173.548 24.2635 173.347 24.3956C171.922 25.6675 170.117 26.3787 168.244 26.4062C167.001 26.4066 165.775 26.1022 164.664 25.5174C163.554 24.9326 162.589 24.0836 161.849 23.0386C161.108 21.9935 160.612 20.7815 160.399 19.4995C160.187 18.2175 160.264 16.9013 160.626 15.6563C160.987 14.4113 161.622 13.2721 162.479 12.3301C163.337 11.3881 164.393 10.6694 165.564 10.2316C166.735 9.79389 167.987 9.64925 169.221 9.8093C170.454 9.96936 171.635 10.4297 172.668 11.1533ZM180.445 23.5338C181.83 23.5338 182.996 22.2411 182.996 20.4889C182.996 18.7374 181.802 17.5875 180.445 17.5875C179.088 17.5875 178.002 18.7653 178.002 20.4889C178.002 22.1834 179.088 23.5338 180.445 23.5338H180.445ZM183.701 24.9989L183.648 24.625C183.05 25.86 181.151 26.4062 179.929 26.4062C177.052 26.4062 174.935 23.6774 174.935 20.4599C174.935 17.2435 177.107 14.6293 180.092 14.6293C180.772 14.6435 181.441 14.8097 182.054 15.117C182.667 15.4242 183.211 15.8652 183.648 16.4105L183.701 16.0366C183.696 15.7071 183.817 15.3889 184.035 15.152C184.254 14.9151 184.554 14.7788 184.869 14.7729C185.186 14.7778 185.489 14.9129 185.713 15.1492C185.936 15.3855 186.062 15.7042 186.063 16.0366V24.9989C186.062 25.3313 185.936 25.65 185.713 25.8864C185.49 26.1227 185.186 26.2579 184.869 26.2628C184.554 26.2569 184.254 26.1205 184.035 25.8836C183.817 25.6466 183.696 25.3284 183.701 24.9989ZM194.491 23.5338C195.848 23.5338 196.933 22.1834 196.933 20.4889C196.933 18.7653 195.848 17.5875 194.491 17.5875C193.134 17.5875 191.939 18.7365 191.939 20.4889C191.939 22.2411 193.107 23.5338 194.491 23.5338ZM191.939 25.4588V29.537C191.937 29.9675 191.774 30.3799 191.485 30.686C191.196 30.9921 190.804 31.1675 190.393 31.1746C189.984 31.1662 189.595 30.9895 189.311 30.6829C189.026 30.3762 188.869 29.9645 188.872 29.537V16.0366C188.874 15.7041 189 15.3853 189.223 15.149C189.447 14.9127 189.75 14.7776 190.067 14.7729C190.718 14.7729 191.235 15.3474 191.235 16.1514C191.705 15.6531 192.268 15.261 192.889 14.9992C193.509 14.7374 194.175 14.6115 194.844 14.6293C197.829 14.6293 200 17.2435 200 20.4599C200 23.6774 197.884 26.4062 195.007 26.4062C194.111 26.4062 192.781 26.1191 191.939 25.4588Z" fill="white"/>
</svg>
