<svg width="134" height="35" viewBox="0 0 134 35" fill="none" xmlns="http://www.w3.org/2000/svg">
<g clip-path="url(#clip0_1160_5312)">
<path d="M34.9453 17.6737C34.9453 26.772 27.3348 34.1737 17.9141 34.1737C8.49335 34.1737 0.882812 26.772 0.882812 17.6737C0.882812 8.5754 8.49335 1.17371 17.9141 1.17371C27.3348 1.17371 34.9453 8.5754 34.9453 17.6737Z" stroke="white"/>
<path fill-rule="evenodd" clip-rule="evenodd" d="M55.4766 10.2429V23.9819H52.7141L45.7547 15.5888V23.9819H42.4609V10.2429H45.1172L52.2359 18.636V10.2429H55.4234H55.4766Z" fill="white"/>
<path fill-rule="evenodd" clip-rule="evenodd" d="M61.8437 16.1234C61.3656 16.4976 61.0468 17.1391 60.8343 17.8341H66.3062C66.1999 17.2461 65.9343 16.658 65.5093 16.1234C64.3937 15.3215 62.9062 15.3215 61.8437 16.1234ZM69.2812 19.7052H60.9406C61.0468 20.2932 61.4187 20.8813 62.0031 21.202C62.5874 21.6832 63.2781 21.897 64.0749 21.7901L65.5624 21.5762C66.0406 21.4693 66.4656 21.202 66.8374 20.8813L68.5374 22.592C67.3687 23.875 65.6687 24.463 63.9687 24.4096C62.9062 24.4096 61.6843 24.1957 60.6749 23.7146C59.7718 23.3404 58.9749 22.6454 58.4968 21.8435C57.9124 20.9347 57.5937 19.9725 57.6999 18.9568C57.6999 17.941 58.0187 16.9788 58.4968 16.1769C58.9749 15.375 59.6656 14.68 60.5687 14.3058C61.4718 13.8247 62.5343 13.6108 63.5437 13.6108C64.5531 13.6108 65.5093 13.8247 66.4124 14.3058C67.3156 14.68 68.0062 15.375 68.4843 16.1769C68.9624 17.0857 69.2812 18.0479 69.1749 19.0637V19.7586L69.2812 19.7052Z" fill="white"/>
<path fill-rule="evenodd" clip-rule="evenodd" d="M88.7797 13.3435L84.7953 24.0353H81.8203L79.3234 17.4599L76.8266 24.0353H73.8516L69.8672 13.3435H72.8422L75.3391 20.6139L77.9953 13.3435H80.7578L83.2547 20.6139L85.9109 13.3435H88.6734H88.7797Z" fill="white"/>
<path fill-rule="evenodd" clip-rule="evenodd" d="M91.0641 23.9284C90.3734 23.7146 89.6828 23.4473 88.9922 23.1265L90.0547 20.9347L91.7547 21.6297C92.4453 21.8435 93.1359 21.9504 93.8266 21.8435C95.1016 21.8435 95.8984 21.6297 95.8984 20.8278C95.8984 20.0259 95.6859 20.3466 95.3141 20.2397L93.6141 19.8655L91.4359 19.3844C90.8516 19.1705 90.3734 18.9033 89.8422 18.5825C89.0453 17.5133 89.0453 16.0165 89.8422 15.0007C90.2141 14.4127 90.9047 13.9316 91.6484 13.8246C92.4453 13.4504 93.4547 13.3435 94.3047 13.3435L96.5891 13.5573C97.2797 13.6643 97.8641 13.9316 98.4484 14.2523L97.3859 16.4441C96.3766 15.963 95.3141 15.6422 94.1984 15.6422C93.0828 15.6422 93.1891 15.7492 92.7109 16.0165C92.3391 16.1234 92.1266 16.3907 92.1266 16.7114C92.1266 17.0322 92.3391 17.1926 92.7109 17.2995L94.5172 17.6737L96.8016 18.1548C97.2797 18.3687 97.8109 18.7429 98.2891 19.1705C98.6609 19.6517 98.8734 20.3467 98.8734 20.9882C98.8734 21.6297 98.6609 22.1643 98.2891 22.6989C97.8109 23.2869 97.2266 23.7146 96.4828 23.875C95.5797 24.1957 94.6766 24.3561 93.7203 24.3561C92.8172 24.3561 91.9141 24.1957 91.0641 23.9819V23.9284Z" fill="white"/>
<path fill-rule="evenodd" clip-rule="evenodd" d="M108.705 20.9347C109.289 20.3467 109.608 19.5448 109.502 18.7429C109.502 17.941 109.183 17.2461 108.705 16.658C108.227 16.07 107.43 15.7492 106.633 15.8561C105.942 15.8561 105.145 16.1769 104.773 16.658C104.295 17.1391 103.87 17.941 103.977 18.7429C103.977 19.5448 104.295 20.3467 104.773 20.9347C105.252 21.4159 105.942 21.7366 106.633 21.7366C107.536 21.7366 108.227 21.4159 108.705 20.9347ZM110.086 14.0385C110.883 14.4127 111.573 15.1077 111.945 15.9096C112.423 16.7115 112.742 17.7272 112.636 18.6895C112.636 19.7052 112.423 20.6674 111.945 21.5762C111.467 22.3781 110.883 23.0731 110.086 23.4473C109.183 23.9284 108.28 24.1423 107.323 24.1423C106.048 24.2492 104.773 23.6611 103.977 22.6454V23.8215H100.789V9.33411H104.083V14.6266C104.88 13.7178 106.048 13.2366 107.377 13.3435C108.386 13.2366 109.236 13.5574 110.139 14.0385H110.086Z" fill="white"/>
<path fill-rule="evenodd" clip-rule="evenodd" d="M114.812 24.0353H118V13.3435H114.812V24.0353ZM115.025 11.4724C114.706 11.1517 114.547 10.6706 114.547 10.2963C114.547 9.92212 114.759 9.38753 115.025 9.12024C115.928 8.53219 116.991 8.53219 117.894 9.12024C118.213 9.44099 118.372 9.8152 118.372 10.1894C118.372 10.5636 118.266 11.2051 117.894 11.4724C116.991 12.0605 115.822 12.0605 115.025 11.4724Z" fill="white"/>
<path fill-rule="evenodd" clip-rule="evenodd" d="M128.045 23.5008C127.727 23.7146 127.355 23.875 126.983 23.9819L125.495 24.1958C124.433 24.3027 123.317 23.875 122.52 23.18C121.723 22.3781 121.458 21.3624 121.458 20.2932V15.9096H119.758V13.6108H121.458V11.0983H124.645V13.6108H127.408V16.0165H124.645V20.4002C124.539 21.0951 125.017 21.6832 125.708 21.6832H126.027C126.505 21.6832 126.93 21.5763 127.302 21.309L128.098 23.5008H128.045Z" fill="white"/>
<path fill-rule="evenodd" clip-rule="evenodd" d="M129.795 23.7146C129.423 23.3939 129.211 22.9127 129.211 22.4316C129.211 21.9505 129.423 21.3624 129.795 20.9347C130.167 20.5071 130.698 20.4536 131.283 20.4536C131.867 20.4536 132.292 20.5605 132.558 20.9347C132.93 21.2555 133.248 21.8436 133.142 22.4316C133.142 22.9127 132.93 23.4473 132.558 23.7146C132.239 24.0888 131.761 24.3027 131.283 24.3027C130.698 24.3027 130.22 23.9819 129.795 23.7146Z" fill="white"/>
<path fill-rule="evenodd" clip-rule="evenodd" d="M22.8016 21.7366H19.8266V18.7429H22.8016C24.0766 18.7429 24.9797 19.224 24.9797 20.2398C24.9797 21.2555 24.0766 21.7366 22.8016 21.7366ZM19.7203 13.6643H22.6953C23.7578 13.6643 24.5016 14.1454 24.5016 15.1612C24.5016 16.1769 23.8109 16.4442 22.6953 16.4442H19.7203V13.6643ZM28.0609 20.5605C28.1672 18.9567 26.8922 17.5668 25.2984 17.353C26.6797 17.0322 27.5828 15.8561 27.5828 14.4662C27.5828 13.0762 26.4141 11.7932 24.3953 11.4725V10.1895H22.3234V11.419H20.0391V10.2429H17.8609V11.419H16.6922V19.7052L10.3703 11.419H7.82031V24.0888H10.5828V16.0165L16.9047 24.0888H17.9672V25.2649H20.1453V24.0888H22.4297V25.2649H24.5016V23.9819C26.7859 23.6077 28.0609 22.3781 28.0609 20.5605Z" fill="white"/>
</g>
<defs>
<clipPath id="clip0_1160_5312">
<rect width="132.812" height="34" fill="white" transform="translate(0.382812 0.673706)"/>
</clipPath>
</defs>
</svg>
