<svg width="37" height="37" viewBox="0 0 37 37" fill="none" xmlns="http://www.w3.org/2000/svg">
<path d="M8 14.3379C8.725 14.1433 9.4625 14.0461 10.2125 14.0461C10.7875 14.0461 11.3 14.1024 11.75 14.215C12.225 14.3379 12.5625 14.5068 12.7625 14.7218L18.5 20.343L24.2375 14.7065C24.4625 14.4812 24.7875 14.3072 25.2125 14.1843C25.6375 14.0614 26.125 14 26.675 14C27.45 14 28.225 14.1126 29 14.3379L20.15 22.5239C20 22.6672 19.775 22.7799 19.475 22.8618C19.2 22.9539 18.875 23 18.5 23C17.775 23 17.2375 22.8413 16.8875 22.5239L8 14.3379Z" fill="white"/>
<circle cx="18.5" cy="18.5" r="18.5" fill="#D9D9D9" fill-opacity="0.1"/>
</svg>
