<svg width="29" height="29" viewBox="0 0 29 29" fill="none" xmlns="http://www.w3.org/2000/svg">
<rect x="0.609375" y="0.333984" width="28.1304" height="28.1304" rx="14.0652" fill="url(#paint0_linear_1751_496)"/>
<path d="M8.60156 14.3988C8.60156 11.5359 8.60156 10.1038 9.49087 9.2145C10.3802 8.3252 11.8116 8.3252 14.6752 8.3252C17.5381 8.3252 18.9702 8.3252 19.8595 9.2145C20.7488 10.1038 20.7488 11.5353 20.7488 14.3988C20.7488 17.2617 20.7488 18.6938 19.8595 19.5831C18.9702 20.4724 17.5387 20.4724 14.6752 20.4724C11.8123 20.4724 10.3802 20.4724 9.49087 19.5831C8.60156 18.6938 8.60156 17.2623 8.60156 14.3988Z" stroke="black" stroke-width="0.95899" stroke-linecap="round" stroke-linejoin="round"/>
<path d="M18.1953 10.8809H18.1889M17.5508 14.3972C17.5508 15.1602 17.2477 15.8919 16.7082 16.4315C16.1686 16.971 15.4369 17.2741 14.6738 17.2741C13.9108 17.2741 13.1791 16.971 12.6395 16.4315C12.1 15.8919 11.7969 15.1602 11.7969 14.3972C11.7969 13.6341 12.1 12.9024 12.6395 12.3628C13.1791 11.8233 13.9108 11.5202 14.6738 11.5202C15.4369 11.5202 16.1686 11.8233 16.7082 12.3628C17.2477 12.9024 17.5508 13.6341 17.5508 14.3972Z" stroke="black" stroke-width="0.95899" stroke-linecap="round" stroke-linejoin="round"/>
<defs>
<linearGradient id="paint0_linear_1751_496" x1="10.7351" y1="14.3992" x2="38.4648" y2="14.3992" gradientUnits="userSpaceOnUse">
<stop stop-color="#FFBF01"/>
<stop offset="1" stop-color="#01FE37"/>
</linearGradient>
</defs>
</svg>
