<svg width="16" height="14" viewBox="0 0 16 14" fill="none" xmlns="http://www.w3.org/2000/svg">
<path d="M0.707031 13.9062H3.73098V4.51367H0.707031V13.9062Z" fill="black"/>
<path d="M11.9946 4.42541C11.3938 4.36576 10.7887 4.48187 10.2526 4.75964C9.71648 5.03741 9.27255 5.46489 8.97469 5.99016V4.51533H5.57812C5.62208 5.29771 5.57812 13.9079 5.57812 13.9079H8.97469V8.82191C8.95174 8.56374 8.9768 8.30355 9.04862 8.05452C9.16835 7.71622 9.39044 7.42361 9.68404 7.21733C9.97764 7.01105 10.3282 6.90134 10.687 6.90343C11.8668 6.90343 12.4032 7.77274 12.4032 9.04473V13.9109H15.8328V8.68702C15.8338 5.77633 14.1445 4.42541 11.9946 4.42541Z" fill="black"/>
<mask id="mask0_887_2531" style="mask-type:luminance" maskUnits="userSpaceOnUse" x="0" y="0" width="4" height="4">
<path d="M0.316406 0.0800781H3.98798V3.34004H0.316406V0.0800781Z" fill="white"/>
</mask>
<g mask="url(#mask0_887_2531)">
<path d="M2.16468 0.079183C1.93427 0.0553856 1.70142 0.0795966 1.48084 0.150289C1.26025 0.220981 1.0567 0.33662 0.88304 0.489912C0.709379 0.643203 0.569369 0.83082 0.471844 1.04093C0.374318 1.25104 0.321393 1.47908 0.316406 1.71066C0.319643 1.93876 0.369901 2.16373 0.464039 2.37152C0.558177 2.57931 0.694169 2.76545 0.863514 2.91829C1.03286 3.07113 1.23192 3.18739 1.44824 3.25981C1.66456 3.33222 1.89349 3.35923 2.12072 3.33914H2.1427C2.373 3.36311 2.60576 3.339 2.82625 3.26834C3.04674 3.19768 3.25016 3.082 3.42363 2.92864C3.59709 2.77527 3.73682 2.58756 3.83396 2.37739C3.93111 2.16721 3.98355 1.93916 3.98798 1.70766C3.98392 1.47814 3.93246 1.25193 3.83682 1.04324C3.74118 0.834552 3.60343 0.647888 3.43221 0.494969C3.261 0.34205 3.06002 0.226177 2.84189 0.154626C2.62377 0.0830741 2.39321 0.0573891 2.16468 0.079183Z" fill="black"/>
</g>
</svg>
