<svg width="18" height="16" viewBox="0 0 18 16" fill="none" xmlns="http://www.w3.org/2000/svg">
<path d="M9.07031 16C13.4886 16 17.0703 12.4183 17.0703 8C17.0703 3.58172 13.4886 0 9.07031 0C4.65203 0 1.07031 3.58172 1.07031 8C1.07031 12.4183 4.65203 16 9.07031 16Z" fill="black"/>
<path d="M9.11387 2.91793C5.7173 2.91793 3.91341 5.19816 3.91341 7.68044C3.89704 8.2828 4.03524 8.8793 4.31485 9.41308C4.59447 9.94685 5.00616 10.4001 5.51067 10.7296C5.6597 10.7991 5.73924 10.7689 5.77398 10.6244C5.8005 10.5147 5.93307 9.98444 5.9925 9.7321C6.00363 9.69293 6.00442 9.65154 5.99481 9.61196C5.9852 9.57239 5.9655 9.53598 5.93764 9.50627C5.55788 8.98447 5.35276 8.35598 5.35158 7.71062C5.34992 7.2499 5.44173 6.79364 5.62145 6.36942C5.80118 5.9452 6.06508 5.56185 6.3972 5.24255C6.72933 4.92325 7.12277 4.67463 7.55373 4.51174C7.98468 4.34884 8.44421 4.27506 8.9045 4.29484C9.33528 4.26989 9.76654 4.33489 10.1708 4.48571C10.5751 4.63654 10.9436 4.86988 11.2528 5.17089C11.5619 5.4719 11.8051 5.83398 11.9666 6.23408C12.1282 6.63418 12.2048 7.06355 12.1914 7.49485C12.1914 9.6233 11.1162 11.099 9.7173 11.099C9.53862 11.1081 9.36028 11.0753 9.19664 11.0029C9.03299 10.9306 8.88861 10.8209 8.77512 10.6826C8.66163 10.5443 8.58219 10.3812 8.54321 10.2066C8.50422 10.032 8.50678 9.85069 8.55067 9.67724C8.84245 8.82403 9.06054 7.94737 9.20256 7.0569C9.21968 6.9168 9.20659 6.77466 9.16418 6.64004C9.12177 6.50542 9.05102 6.38145 8.95668 6.27646C8.86235 6.17147 8.74662 6.08791 8.61729 6.03139C8.48796 5.97486 8.34803 5.9467 8.2069 5.94879C7.41696 5.94879 6.78336 6.76524 6.78336 7.85964C6.77846 8.26143 6.85886 8.65968 7.01924 9.0281C7.01924 9.0281 6.23936 12.3259 6.09673 12.9403C5.97437 13.6853 5.96481 14.4444 6.06838 15.1922C6.24576 15.2617 6.42313 15.3312 6.6069 15.3879C7.02149 14.7459 7.35037 14.0525 7.58518 13.3252C7.67661 12.9595 8.07616 11.4546 8.07616 11.4546C8.27683 11.7444 8.54711 11.979 8.86215 12.137C9.1772 12.295 9.5269 12.3713 9.87913 12.3588C12.2563 12.3588 13.9632 10.1764 13.9632 7.46376C13.9543 6.84344 13.8205 6.23129 13.5698 5.66383C13.3191 5.09637 12.9566 4.58524 12.504 4.16096C12.0514 3.73668 11.5179 3.40795 10.9354 3.19438C10.353 2.98081 9.73347 2.88679 9.11387 2.91793Z" fill="white"/>
</svg>
