<svg width="19" height="16" viewBox="0 0 19 16" fill="none" xmlns="http://www.w3.org/2000/svg">
<path fill-rule="evenodd" clip-rule="evenodd" d="M12.4396 0.748047H5.70271C3.37731 0.748047 1.49219 2.63317 1.49219 4.95857V11.6954C1.49219 14.0208 3.37731 15.906 5.70271 15.906H12.4396C14.7649 15.906 16.6501 14.0208 16.6501 11.6954V4.95857C16.6501 2.63317 14.7649 0.748047 12.4396 0.748047ZM15.1764 11.6954C15.1718 13.205 13.9491 14.4277 12.4396 14.4323H5.70271C4.19311 14.4277 2.97049 13.205 2.96587 11.6954V4.95857C2.97049 3.44897 4.19311 2.22635 5.70271 2.22173H12.4396C13.9491 2.22635 15.1718 3.44897 15.1764 4.95857V11.6954ZM13.0711 5.1691C13.5362 5.1691 13.9132 4.79207 13.9132 4.32699C13.9132 3.86191 13.5362 3.48489 13.0711 3.48489C12.606 3.48489 12.229 3.86191 12.229 4.32699C12.229 4.79207 12.606 5.1691 13.0711 5.1691ZM9.07114 4.53752C6.97827 4.53752 5.28166 6.23413 5.28166 8.32699C5.28166 10.4199 6.97827 12.1165 9.07114 12.1165C11.164 12.1165 12.8606 10.4199 12.8606 8.32699C12.8629 7.32127 12.4643 6.3561 11.7532 5.64495C11.042 4.93381 10.0769 4.53528 9.07114 4.53752ZM6.75535 8.32699C6.75535 9.60601 7.79215 10.6428 9.07114 10.6428C10.3501 10.6428 11.3869 9.60601 11.3869 8.32699C11.3869 7.048 10.3501 6.0112 9.07114 6.0112C7.79215 6.0112 6.75535 7.048 6.75535 8.32699Z" fill="black"/>
</svg>
