<svg width="23" height="16" viewBox="0 0 23 16" fill="none" xmlns="http://www.w3.org/2000/svg">
<path d="M17.4991 0.220703H4.6416C3.43026 0.220703 2.26853 0.701836 1.41198 1.55825C0.555424 2.41466 0.0742188 3.5762 0.0742188 4.78736L0.0742188 11.2141C0.0742188 12.4252 0.555424 13.5868 1.41198 14.4432C2.26853 15.2996 3.43026 15.7807 4.6416 15.7807H17.4991C18.7104 15.7807 19.8721 15.2996 20.7287 14.4432C21.5852 13.5868 22.0664 12.4252 22.0664 11.2141V4.78736C22.0664 3.5762 21.5852 2.41466 20.7287 1.55825C19.8721 0.701836 18.7104 0.220703 17.4991 0.220703ZM14.4102 8.31654L8.39628 11.1811C8.35951 11.1987 8.31888 11.2066 8.27819 11.2042C8.2375 11.2018 8.19808 11.1892 8.16362 11.1674C8.12916 11.1456 8.10079 11.1155 8.08117 11.0798C8.06154 11.044 8.0513 11.0039 8.0514 10.9632V5.04822C8.05158 5.00701 8.06229 4.96653 8.08251 4.93062C8.10274 4.8947 8.1318 4.86456 8.16695 4.84303C8.2021 4.8215 8.24217 4.80931 8.28335 4.80762C8.32454 4.80592 8.36547 4.81477 8.40228 4.83334L14.4162 7.88077C14.4561 7.9014 14.4895 7.93275 14.5126 7.9713C14.5357 8.00985 14.5476 8.05407 14.547 8.09901C14.5464 8.14395 14.5332 8.18783 14.5091 8.22573C14.4849 8.26362 14.4506 8.29403 14.4102 8.31354V8.31654Z" fill="black"/>
</svg>
