<svg width="19" height="16" viewBox="0 0 19 16" fill="none" xmlns="http://www.w3.org/2000/svg">
<path fill-rule="evenodd" clip-rule="evenodd" d="M13.1671 0.748047H6.43025C4.10485 0.748047 2.21973 2.63317 2.21973 4.95857V11.6954C2.21973 14.0208 4.10485 15.906 6.43025 15.906H13.1671C15.4925 15.906 17.3776 14.0208 17.3776 11.6954V4.95857C17.3776 2.63317 15.4925 0.748047 13.1671 0.748047ZM15.9039 11.6954C15.8993 13.205 14.6767 14.4277 13.1671 14.4323H6.43025C4.92065 14.4277 3.69803 13.205 3.69341 11.6954V4.95857C3.69803 3.44897 4.92065 2.22635 6.43025 2.22173H13.1671C14.6767 2.22635 15.8993 3.44897 15.9039 4.95857V11.6954ZM13.7987 5.1691C14.2638 5.1691 14.6408 4.79207 14.6408 4.32699C14.6408 3.86191 14.2638 3.48489 13.7987 3.48489C13.3336 3.48489 12.9566 3.86191 12.9566 4.32699C12.9566 4.79207 13.3336 5.1691 13.7987 5.1691ZM9.79867 4.53752C7.70581 4.53752 6.0092 6.23413 6.0092 8.32699C6.0092 10.4199 7.70581 12.1165 9.79867 12.1165C11.8916 12.1165 13.5881 10.4199 13.5881 8.32699C13.5904 7.32127 13.1919 6.3561 12.4807 5.64495C11.7695 4.93381 10.8044 4.53528 9.79867 4.53752ZM7.48288 8.32699C7.48288 9.60601 8.51968 10.6428 9.79867 10.6428C11.0777 10.6428 12.1145 9.60601 12.1145 8.32699C12.1145 7.048 11.0777 6.0112 9.79867 6.0112C8.51968 6.0112 7.48288 7.048 7.48288 8.32699Z" fill="white"/>
</svg>
