<svg width="23" height="16" viewBox="0 0 23 16" fill="none" xmlns="http://www.w3.org/2000/svg">
<path d="M18.0284 0.219727H5.1709C3.95956 0.219727 2.79782 0.700859 1.94127 1.55727C1.08472 2.41369 0.603516 3.57523 0.603516 4.78638L0.603516 11.2131C0.603516 12.4242 1.08472 13.5858 1.94127 14.4422C2.79782 15.2986 3.95956 15.7797 5.1709 15.7797H18.0284C19.2397 15.7797 20.4014 15.2986 21.258 14.4422C22.1145 13.5858 22.5957 12.4242 22.5957 11.2131V4.78638C22.5957 3.57523 22.1145 2.41369 21.258 1.55727C20.4014 0.700859 19.2397 0.219727 18.0284 0.219727ZM14.9394 8.31556L8.92557 11.1801C8.88881 11.1977 8.84817 11.2057 8.80748 11.2033C8.7668 11.2009 8.72738 11.1882 8.69292 11.1664C8.65846 11.1447 8.63009 11.1145 8.61047 11.0788C8.59084 11.0431 8.5806 11.003 8.5807 10.9622V5.04725C8.58088 5.00603 8.59159 4.96555 8.61181 4.92964C8.63203 4.89373 8.6611 4.86358 8.69625 4.84205C8.7314 4.82053 8.77147 4.80834 8.81265 4.80664C8.85384 4.80494 8.89477 4.8138 8.93157 4.83236L14.9454 7.87979C14.9854 7.90042 15.0188 7.93177 15.0419 7.97032C15.065 8.00887 15.0769 8.05309 15.0763 8.09803C15.0757 8.14297 15.0625 8.18686 15.0384 8.22475C15.0142 8.26264 14.9799 8.29305 14.9394 8.31257V8.31556Z" fill="white"/>
</svg>
