<svg width="27" height="26" viewBox="0 0 27 26" fill="none" xmlns="http://www.w3.org/2000/svg">
<g clip-path="url(#clip0_1198_2661)">
<path d="M13.5 0C10.053 0 6.74406 1.37048 4.30859 3.80758C1.87063 6.24565 0.500698 9.55212 0.5 13C0.5 16.4464 1.87109 19.7553 4.30859 22.1924C6.74406 24.6295 10.053 26 13.5 26C16.947 26 20.2559 24.6295 22.6914 22.1924C25.1289 19.7553 26.5 16.4464 26.5 13C26.5 9.55358 25.1289 6.24467 22.6914 3.80758C20.2559 1.37048 16.947 0 13.5 0Z" fill="white"/>
<path d="M6.38442 12.863C10.1747 11.212 12.7016 10.1236 13.965 9.5976C17.5766 8.0959 18.3261 7.83508 18.8157 7.82625C18.9233 7.82452 19.163 7.85113 19.3194 7.97758C19.4494 8.08422 19.486 8.22844 19.5043 8.32969C19.5205 8.43085 19.5429 8.6614 19.5246 8.84137C19.3296 10.897 18.4825 15.8853 18.0519 18.1878C17.8711 19.1619 17.5116 19.4886 17.1643 19.5205C16.4086 19.5899 15.8358 19.0216 15.1046 18.5424C13.961 17.7923 13.315 17.3255 12.2039 16.5936C10.9202 15.7478 11.753 15.2829 12.4843 14.5232C12.6752 14.3243 16.0024 11.2988 16.0654 11.0244C16.0735 10.99 16.0816 10.8621 16.0044 10.7946C15.9293 10.727 15.8175 10.7501 15.7363 10.7684C15.6205 10.7944 13.7944 12.0026 10.2519 14.3928C9.73395 14.7491 9.26473 14.9227 8.84223 14.9136C8.3791 14.9036 7.48535 14.6511 6.82113 14.4354C6.00863 14.1708 5.36067 14.0308 5.41754 13.5813C5.44598 13.3473 5.76895 13.1078 6.38442 12.863Z" fill="url(#paint0_linear_1198_2661)"/>
</g>
<defs>
<linearGradient id="paint0_linear_1198_2661" x1="711.282" y1="7.82617" x2="711.282" y2="1177.83" gradientUnits="userSpaceOnUse">
<stop stop-color="#2AABEE"/>
<stop offset="1" stop-color="#229ED9"/>
</linearGradient>
<clipPath id="clip0_1198_2661">
<rect width="26" height="26" fill="white" transform="translate(0.5)"/>
</clipPath>
</defs>
</svg>
