<svg width="27" height="26" viewBox="0 0 27 26" fill="none" xmlns="http://www.w3.org/2000/svg">
<g clip-path="url(#clip0_1198_2668)">
<path d="M13.5 0C10.053 0 6.74406 1.37048 4.30859 3.80758C1.87063 6.24565 0.500698 9.55212 0.5 13C0.5 16.4464 1.87109 19.7553 4.30859 22.1924C6.74406 24.6295 10.053 26 13.5 26C16.947 26 20.2559 24.6295 22.6914 22.1924C25.1289 19.7553 26.5 16.4464 26.5 13C26.5 9.55358 25.1289 6.24467 22.6914 3.80758C20.2559 1.37048 16.947 0 13.5 0Z" fill="white"/>
<g clip-path="url(#clip1_1198_2668)">
<path d="M6.5 19.9918C8.21501 17.8959 9.89447 15.8433 11.5791 13.7845C9.89005 11.2003 8.20977 8.62949 6.51103 6.03043C6.57302 6.01909 6.63554 6.01124 6.69833 6.00691C7.8631 6.00576 9.0279 6.00921 10.1926 6.0021C10.3412 6.00119 10.4159 6.0682 10.492 6.18504C11.4992 7.73149 12.5084 9.27646 13.5197 10.8199C13.5863 10.9218 13.6542 11.0226 13.7328 11.1408C13.7877 11.0784 13.8368 11.0259 13.8823 10.9704C15.1803 9.38468 16.4773 7.79796 17.773 6.21021C17.8938 6.06175 18.0141 5.98893 18.2043 6.00136C18.4809 6.01944 18.7594 6.006 19.094 6.006C17.4589 8.00428 15.8613 9.9569 14.2463 11.9306C15.9912 14.6003 17.7368 17.2712 19.5 19.9689C19.4384 19.9795 19.3763 19.9869 19.314 19.991C18.1492 19.992 16.9845 19.9885 15.8197 19.996C15.6722 19.9969 15.5971 19.9357 15.5201 19.8173C14.4342 18.1492 13.346 16.4827 12.2553 14.818C12.2057 14.7422 12.1551 14.667 12.0933 14.5739C12.0345 14.6414 11.9845 14.6957 11.9377 14.7528C10.577 16.4147 9.21763 18.0779 7.85971 19.7423C7.71324 19.9227 7.57039 20.018 7.33806 19.9972C7.07812 19.9738 6.81481 19.9918 6.5 19.9918ZM17.9314 19.1301C17.8823 19.045 17.8586 18.9982 17.8299 18.955C15.1923 14.9889 12.5527 11.0241 9.91127 7.06074C9.86041 6.98453 9.73654 6.92494 9.64499 6.9222C9.18105 6.90831 8.71653 6.91521 8.25222 6.91663C8.19948 6.91679 8.14678 6.92829 8.07577 6.9367C8.13667 7.03051 8.18137 7.10082 8.22744 7.17012C9.51432 9.10581 10.8013 11.0414 12.0884 12.977C13.4136 14.9695 14.74 16.9612 16.0675 18.9521C16.117 19.0262 16.2045 19.1204 16.2763 19.1223C16.8126 19.1367 17.3495 19.1301 17.9314 19.1301Z" fill="black"/>
</g>
</g>
<defs>
<clipPath id="clip0_1198_2668">
<rect width="26" height="26" fill="white" transform="translate(0.5)"/>
</clipPath>
<clipPath id="clip1_1198_2668">
<rect width="13" height="14" fill="white" transform="translate(6.5 6)"/>
</clipPath>
</defs>
</svg>
